<svg width="105" height="74" viewBox="0 0 105 74" fill="none" xmlns="http://www.w3.org/2000/svg">
<g clip-path="url(#clip0_1645_27769)">
<path d="M44.4375 6.1875H62.5781V43.3125H36.375V14.4375L44.4375 6.1875Z" stroke="#0F6062" stroke-width="2" stroke-miterlimit="10"/>
<path d="M47.125 4.125L50.4844 0.6875H68.625V37.8125H63.9219" stroke="#0F6062" stroke-width="2" stroke-miterlimit="10"/>
<path d="M36.375 14.4375H44.4375V6.1875" stroke="#0F6062" stroke-width="2" stroke-miterlimit="10"/>
</g>
<path d="M17.0515 61.18C16.4155 61.18 15.8365 61.036 15.3145 60.748C14.7985 60.454 14.3905 60.055 14.0905 59.551C13.7965 59.041 13.6495 58.474 13.6495 57.85C13.6495 57.226 13.7965 56.662 14.0905 56.158C14.3905 55.648 14.7985 55.249 15.3145 54.961C15.8365 54.667 16.4155 54.52 17.0515 54.52C17.6095 54.52 18.1255 54.64 18.5995 54.88C19.0735 55.114 19.4425 55.438 19.7065 55.852L19.2205 56.32C18.9805 56.02 18.6985 55.789 18.3745 55.627C18.0565 55.465 17.7235 55.384 17.3755 55.384C16.9735 55.384 16.6105 55.492 16.2865 55.708C15.9625 55.918 15.7075 56.212 15.5215 56.59C15.3415 56.962 15.2515 57.382 15.2515 57.85C15.2515 58.324 15.3445 58.75 15.5305 59.128C15.7165 59.5 15.9745 59.791 16.3045 60.001C16.6345 60.211 17.0065 60.316 17.4205 60.316C17.7925 60.316 18.1435 60.226 18.4735 60.046C18.8095 59.866 19.0945 59.614 19.3285 59.29L19.8145 59.758C19.4785 60.238 19.0795 60.595 18.6175 60.829C18.1615 61.063 17.6395 61.18 17.0515 61.18ZM21.9366 61V54.7H26.8146L26.6706 55.636H23.4666V60.064H26.9226V61H21.9366ZM22.7736 58.273V57.337H25.8426L25.7076 58.273H22.7736ZM29.0459 61V54.7H31.6289C32.1749 54.7 32.6519 54.79 33.0599 54.97C33.4739 55.144 33.7919 55.393 34.0139 55.717C34.2419 56.035 34.3559 56.407 34.3559 56.833C34.3559 57.259 34.2419 57.634 34.0139 57.958C33.7919 58.276 33.4739 58.525 33.0599 58.705C32.6519 58.879 32.1749 58.966 31.6289 58.966H29.8739V58.138H31.4489C31.7069 58.138 31.9349 58.084 32.1329 57.976C32.3309 57.868 32.4839 57.715 32.5919 57.517C32.6999 57.319 32.7539 57.091 32.7539 56.833C32.7539 56.575 32.6999 56.347 32.5919 56.149C32.4839 55.951 32.3309 55.798 32.1329 55.69C31.9349 55.582 31.7069 55.528 31.4489 55.528H30.5759V61H29.0459ZM37.9376 61V55.636H35.8316V54.7H41.5736L41.4296 55.636H39.4676V61H37.9376ZM43.537 61V54.7H44.995V59.092H45.067L48.082 54.7H49.468V61H48.01V56.608H47.938L44.923 61H43.537ZM56.1371 60.586V59.776H56.6321C57.0041 59.776 57.3311 59.698 57.6131 59.542C57.8951 59.38 58.1111 59.155 58.2611 58.867C58.4171 58.573 58.4951 58.234 58.4951 57.85C58.4951 57.466 58.4171 57.13 58.2611 56.842C58.1051 56.548 57.8861 56.323 57.6041 56.167C57.3281 56.005 57.0041 55.924 56.6321 55.924H56.1371V55.114H56.6321C57.2981 55.114 57.8951 55.231 58.4231 55.465C58.9511 55.699 59.3621 56.023 59.6561 56.437C59.9501 56.851 60.0971 57.322 60.0971 57.85C60.0971 58.378 59.9501 58.852 59.6561 59.272C59.3621 59.686 58.9511 60.01 58.4231 60.244C57.9011 60.472 57.3041 60.586 56.6321 60.586H56.1371ZM55.1561 60.586C54.4841 60.586 53.8841 60.472 53.3561 60.244C52.8341 60.01 52.4261 59.686 52.1321 59.272C51.8381 58.852 51.6911 58.378 51.6911 57.85C51.6911 57.322 51.8381 56.851 52.1321 56.437C52.4261 56.023 52.8371 55.699 53.3651 55.465C53.8931 55.231 54.4901 55.114 55.1561 55.114H55.6511V55.924H55.1561C54.7841 55.924 54.4571 56.005 54.1751 56.167C53.8991 56.323 53.6831 56.548 53.5271 56.842C53.3711 57.13 53.2931 57.466 53.2931 57.85C53.2931 58.234 53.3681 58.573 53.5181 58.867C53.6741 59.155 53.8931 59.38 54.1751 59.542C54.4571 59.698 54.7841 59.776 55.1561 59.776H55.6511V60.586H55.1561ZM55.1561 61.405V54.295H56.6321V61.405H55.1561ZM62.3171 61V54.7H63.7751V59.092H63.8471L66.8621 54.7H68.2481V61H66.7901V56.608H66.7181L63.7031 61H62.3171ZM75.1062 61L73.2702 58.3H71.6772V57.364H73.4232L75.1782 54.7H76.4112L74.1882 58.093L74.2962 57.337L76.7802 61H75.1062ZM70.8942 61V54.7H72.4242V61H70.8942ZM77.8543 61L80.4283 54.7H81.7423L84.3163 61H82.6783L80.8873 56.356H80.8153L78.9703 61H77.8543ZM78.8533 59.659L79.1683 58.777H82.7773L83.0923 59.659H78.8533ZM87.1148 61V55.636H85.0088V54.7H90.7508L90.6068 55.636H88.6448V61H87.1148ZM10.4383 73.18C9.80229 73.18 9.22329 73.036 8.70129 72.748C8.18529 72.454 7.77729 72.055 7.47729 71.551C7.18329 71.041 7.03629 70.474 7.03629 69.85C7.03629 69.226 7.18329 68.662 7.47729 68.158C7.77729 67.648 8.18529 67.249 8.70129 66.961C9.22329 66.667 9.80229 66.52 10.4383 66.52C10.9963 66.52 11.5123 66.64 11.9863 66.88C12.4603 67.114 12.8293 67.438 13.0933 67.852L12.6073 68.32C12.3673 68.02 12.0853 67.789 11.7613 67.627C11.4433 67.465 11.1103 67.384 10.7623 67.384C10.3603 67.384 9.99729 67.492 9.67329 67.708C9.34929 67.918 9.09429 68.212 8.90829 68.59C8.72829 68.962 8.63829 69.382 8.63829 69.85C8.63829 70.324 8.73129 70.75 8.91729 71.128C9.10329 71.5 9.36129 71.791 9.69129 72.001C10.0213 72.211 10.3933 72.316 10.8073 72.316C11.1793 72.316 11.5303 72.226 11.8603 72.046C12.1963 71.866 12.4813 71.614 12.7153 71.29L13.2013 71.758C12.8653 72.238 12.4663 72.595 12.0043 72.829C11.5483 73.063 11.0263 73.18 10.4383 73.18ZM18.2968 73.18C17.6428 73.18 17.0488 73.036 16.5148 72.748C15.9868 72.454 15.5698 72.055 15.2638 71.551C14.9578 71.041 14.8048 70.474 14.8048 69.85C14.8048 69.22 14.9548 68.653 15.2548 68.149C15.5548 67.639 15.9718 67.24 16.5058 66.952C17.0398 66.664 17.6368 66.52 18.2968 66.52C18.9568 66.52 19.5538 66.664 20.0878 66.952C20.6218 67.24 21.0388 67.639 21.3388 68.149C21.6388 68.653 21.7888 69.22 21.7888 69.85C21.7888 70.48 21.6388 71.05 21.3388 71.56C21.0388 72.064 20.6218 72.46 20.0878 72.748C19.5538 73.036 18.9568 73.18 18.2968 73.18ZM18.2968 72.37C18.6688 72.37 18.9958 72.268 19.2778 72.064C19.5598 71.854 19.7758 71.56 19.9258 71.182C20.0818 70.798 20.1598 70.354 20.1598 69.85C20.1598 69.346 20.0818 68.905 19.9258 68.527C19.7758 68.143 19.5598 67.849 19.2778 67.645C18.9958 67.435 18.6688 67.33 18.2968 67.33C17.9308 67.33 17.6068 67.435 17.3248 67.645C17.0428 67.855 16.8238 68.152 16.6678 68.536C16.5118 68.914 16.4338 69.352 16.4338 69.85C16.4338 70.348 16.5118 70.789 16.6678 71.173C16.8238 71.551 17.0428 71.845 17.3248 72.055C17.6068 72.265 17.9308 72.37 18.2968 72.37ZM27.1727 73.18C26.5187 73.18 25.9247 73.036 25.3907 72.748C24.8627 72.454 24.4457 72.055 24.1397 71.551C23.8337 71.041 23.6807 70.474 23.6807 69.85C23.6807 69.22 23.8307 68.653 24.1307 68.149C24.4307 67.639 24.8477 67.24 25.3817 66.952C25.9157 66.664 26.5127 66.52 27.1727 66.52C27.8327 66.52 28.4297 66.664 28.9637 66.952C29.4977 67.24 29.9147 67.639 30.2147 68.149C30.5147 68.653 30.6647 69.22 30.6647 69.85C30.6647 70.48 30.5147 71.05 30.2147 71.56C29.9147 72.064 29.4977 72.46 28.9637 72.748C28.4297 73.036 27.8327 73.18 27.1727 73.18ZM27.1727 72.37C27.5447 72.37 27.8717 72.268 28.1537 72.064C28.4357 71.854 28.6517 71.56 28.8017 71.182C28.9577 70.798 29.0357 70.354 29.0357 69.85C29.0357 69.346 28.9577 68.905 28.8017 68.527C28.6517 68.143 28.4357 67.849 28.1537 67.645C27.8717 67.435 27.5447 67.33 27.1727 67.33C26.8067 67.33 26.4827 67.435 26.2007 67.645C25.9187 67.855 25.6997 68.152 25.5437 68.536C25.3877 68.914 25.3097 69.352 25.3097 69.85C25.3097 70.348 25.3877 70.789 25.5437 71.173C25.6997 71.551 25.9187 71.845 26.2007 72.055C26.4827 72.265 26.8067 72.37 27.1727 72.37ZM34.1808 73V67.636H32.0748V66.7H37.8168L37.6728 67.636H35.7108V73H34.1808ZM39.7802 73V66.7H42.4712C42.9452 66.7 43.3562 66.763 43.7042 66.889C44.0582 67.009 44.3282 67.186 44.5142 67.42C44.7062 67.648 44.8022 67.918 44.8022 68.23C44.8022 68.44 44.7482 68.638 44.6402 68.824C44.5322 69.004 44.3822 69.16 44.1902 69.292C44.0042 69.424 43.7882 69.514 43.5422 69.562V69.634C43.8782 69.676 44.1722 69.772 44.4242 69.922C44.6762 70.066 44.8682 70.255 45.0002 70.489C45.1382 70.723 45.2072 70.984 45.2072 71.272C45.2072 71.608 45.1052 71.908 44.9012 72.172C44.6972 72.43 44.4092 72.634 44.0372 72.784C43.6652 72.928 43.2392 73 42.7592 73H39.7802ZM42.3992 72.172C42.6452 72.172 42.8582 72.13 43.0382 72.046C43.2182 71.962 43.3562 71.845 43.4522 71.695C43.5542 71.539 43.6052 71.359 43.6052 71.155C43.6052 70.843 43.5032 70.597 43.2992 70.417C43.0952 70.231 42.8132 70.138 42.4532 70.138H40.6172V69.31H42.3092C42.4952 69.31 42.6602 69.271 42.8042 69.193C42.9542 69.115 43.0712 69.007 43.1552 68.869C43.2392 68.731 43.2812 68.575 43.2812 68.401C43.2812 68.149 43.1882 67.942 43.0022 67.78C42.8162 67.612 42.5732 67.528 42.2732 67.528H41.3102V72.172H42.3992ZM47.3553 73V66.7H52.2333L52.0893 67.636H48.8853V72.064H52.3413V73H47.3553ZM48.1923 70.273V69.337H51.2613L51.1263 70.273H48.1923ZM55.8866 73V67.636H53.7806V66.7H59.5226L59.3786 67.636H57.4166V73H55.8866ZM64.3342 73.18C63.6982 73.18 63.1192 73.036 62.5972 72.748C62.0812 72.454 61.6732 72.055 61.3732 71.551C61.0792 71.041 60.9322 70.474 60.9322 69.85C60.9322 69.226 61.0792 68.662 61.3732 68.158C61.6732 67.648 62.0812 67.249 62.5972 66.961C63.1192 66.667 63.6982 66.52 64.3342 66.52C64.8922 66.52 65.4082 66.64 65.8822 66.88C66.3562 67.114 66.7252 67.438 66.9892 67.852L66.5032 68.32C66.2632 68.02 65.9812 67.789 65.6572 67.627C65.3392 67.465 65.0062 67.384 64.6582 67.384C64.2562 67.384 63.8932 67.492 63.5692 67.708C63.2452 67.918 62.9902 68.212 62.8042 68.59C62.6242 68.962 62.5342 69.382 62.5342 69.85C62.5342 70.324 62.6272 70.75 62.8132 71.128C62.9992 71.5 63.2572 71.791 63.5872 72.001C63.9172 72.211 64.2892 72.316 64.7032 72.316C65.0752 72.316 65.4262 72.226 65.7562 72.046C66.0922 71.866 66.3772 71.614 66.6112 71.29L67.0972 71.758C66.7612 72.238 66.3622 72.595 65.9002 72.829C65.4442 73.063 64.9222 73.18 64.3342 73.18ZM70.6413 73V67.636H68.5353V66.7H74.2773L74.1333 67.636H72.1713V73H70.6413ZM76.2407 73V66.7H78.9317C79.4057 66.7 79.8167 66.763 80.1647 66.889C80.5187 67.009 80.7887 67.186 80.9747 67.42C81.1667 67.648 81.2627 67.918 81.2627 68.23C81.2627 68.44 81.2087 68.638 81.1007 68.824C80.9927 69.004 80.8427 69.16 80.6507 69.292C80.4647 69.424 80.2487 69.514 80.0027 69.562V69.634C80.3387 69.676 80.6327 69.772 80.8847 69.922C81.1367 70.066 81.3287 70.255 81.4607 70.489C81.5987 70.723 81.6677 70.984 81.6677 71.272C81.6677 71.608 81.5657 71.908 81.3617 72.172C81.1577 72.43 80.8697 72.634 80.4977 72.784C80.1257 72.928 79.6997 73 79.2197 73H76.2407ZM78.8597 72.172C79.1057 72.172 79.3187 72.13 79.4987 72.046C79.6787 71.962 79.8167 71.845 79.9127 71.695C80.0147 71.539 80.0657 71.359 80.0657 71.155C80.0657 70.843 79.9637 70.597 79.7597 70.417C79.5557 70.231 79.2737 70.138 78.9137 70.138H77.0777V69.31H78.7697C78.9557 69.31 79.1207 69.271 79.2647 69.193C79.4147 69.115 79.5317 69.007 79.6157 68.869C79.6997 68.731 79.7417 68.575 79.7417 68.401C79.7417 68.149 79.6487 67.942 79.4627 67.78C79.2767 67.612 79.0337 67.528 78.7337 67.528H77.7707V72.172H78.8597ZM83.8159 73V66.7H85.2739V71.092H85.3459L88.3609 66.7H89.7469V73H88.2889V68.608H88.2169L85.2019 73H83.8159ZM96.0559 73V67.528H95.1019C94.8619 67.528 94.6489 67.579 94.4629 67.681C94.2829 67.777 94.1419 67.915 94.0399 68.095C93.9379 68.275 93.8869 68.482 93.8869 68.716C93.8869 68.95 93.9379 69.157 94.0399 69.337C94.1419 69.517 94.2829 69.658 94.4629 69.76C94.6489 69.856 94.8619 69.904 95.1019 69.904H96.8479V70.732H95.0479C94.4779 70.732 93.9859 70.654 93.5719 70.498C93.1579 70.336 92.8399 70.105 92.6179 69.805C92.3959 69.499 92.2849 69.136 92.2849 68.716C92.2849 68.296 92.3959 67.936 92.6179 67.636C92.8399 67.33 93.1579 67.099 93.5719 66.943C93.9859 66.781 94.4779 66.7 95.0479 66.7H97.5859V73H96.0559ZM91.7989 73L93.8329 70.039L95.1559 70.489L93.4639 73H91.7989Z" fill="#0F6062"/>
<defs>
<clipPath id="clip0_1645_27769">
<rect width="43" height="44" fill="white" transform="translate(31)"/>
</clipPath>
</defs>
</svg>
