<svg width="105" height="73" viewBox="0 0 105 73" fill="none" xmlns="http://www.w3.org/2000/svg">
<path d="M16.3584 15.5254H30.2451V18.0596H19.2002V37H16.3584V15.5254ZM30.0107 26.541C30.0107 22.9766 30.9678 20.1885 32.8818 18.1768C34.7959 16.1553 37.2666 15.1445 40.2939 15.1445C42.2764 15.1445 44.0635 15.6182 45.6553 16.5654C47.2471 17.5127 48.458 18.8359 49.2881 20.5352C50.1279 22.2246 50.5479 24.1436 50.5479 26.292C50.5479 28.4697 50.1084 30.418 49.2295 32.1367C48.3506 33.8555 47.1055 35.1592 45.4941 36.0479C43.8828 36.9268 42.1445 37.3662 40.2793 37.3662C38.2578 37.3662 36.4512 36.8779 34.8594 35.9014C33.2676 34.9248 32.0615 33.5918 31.2412 31.9023C30.4209 30.2129 30.0107 28.4258 30.0107 26.541ZM32.9404 26.585C32.9404 29.1729 33.6338 31.2139 35.0205 32.708C36.417 34.1924 38.165 34.9346 40.2646 34.9346C42.4033 34.9346 44.1611 34.1826 45.5381 32.6787C46.9248 31.1748 47.6182 29.041 47.6182 26.2773C47.6182 24.5293 47.3203 23.0059 46.7246 21.707C46.1387 20.3984 45.2744 19.3877 44.1318 18.6748C42.999 17.9521 41.7246 17.5908 40.3086 17.5908C38.2969 17.5908 36.5635 18.2842 35.1084 19.6709C33.6631 21.0479 32.9404 23.3525 32.9404 26.585ZM69.5469 29.4707L72.3887 30.1885C71.793 32.5225 70.7188 34.3047 69.166 35.5352C67.623 36.7559 65.7334 37.3662 63.4971 37.3662C61.1826 37.3662 59.2979 36.8975 57.8428 35.96C56.3975 35.0127 55.2939 33.6455 54.5322 31.8584C53.7803 30.0713 53.4043 28.1523 53.4043 26.1016C53.4043 23.8652 53.8291 21.917 54.6787 20.2568C55.5381 18.5869 56.7539 17.3223 58.3262 16.4629C59.9082 15.5938 61.6465 15.1592 63.541 15.1592C65.6895 15.1592 67.4961 15.7061 68.9609 16.7998C70.4258 17.8936 71.4463 19.4316 72.0225 21.4141L69.2246 22.0732C68.7266 20.5107 68.0039 19.373 67.0566 18.6602C66.1094 17.9473 64.918 17.5908 63.4824 17.5908C61.832 17.5908 60.4502 17.9863 59.3369 18.7773C58.2334 19.5684 57.457 20.6328 57.0078 21.9707C56.5586 23.2988 56.334 24.6709 56.334 26.0869C56.334 27.9131 56.5977 29.5098 57.125 30.877C57.6621 32.2344 58.4922 33.25 59.6152 33.9238C60.7383 34.5977 61.9541 34.9346 63.2627 34.9346C64.8545 34.9346 66.2021 34.4756 67.3057 33.5576C68.4092 32.6396 69.1562 31.2773 69.5469 29.4707ZM80.3721 37V18.0596H73.2969V15.5254H90.3184V18.0596H83.2139V37H80.3721Z" fill="#0F6062"/>
<path d="M22.3433 58H21.2007V50.7192C20.9256 50.9816 20.5638 51.244 20.1152 51.5063C19.6709 51.7687 19.271 51.9655 18.9155 52.0967V50.9922C19.5545 50.6917 20.1131 50.3278 20.5913 49.9004C21.0695 49.473 21.408 49.0583 21.6069 48.6562H22.3433V58ZM25.4473 55.8481L26.5454 55.7466C26.6385 56.2629 26.8162 56.6374 27.0786 56.8701C27.341 57.1029 27.6774 57.2192 28.0879 57.2192C28.4391 57.2192 28.7459 57.1388 29.0083 56.978C29.2749 56.8172 29.4928 56.6035 29.6621 56.3369C29.8314 56.0661 29.9731 55.7021 30.0874 55.2451C30.2017 54.7881 30.2588 54.3226 30.2588 53.8486C30.2588 53.7979 30.2567 53.7217 30.2524 53.6201C30.0239 53.984 29.7108 54.2803 29.313 54.5088C28.9194 54.7331 28.492 54.8452 28.0308 54.8452C27.2606 54.8452 26.6089 54.5659 26.0757 54.0073C25.5425 53.4487 25.2759 52.7124 25.2759 51.7983C25.2759 50.8547 25.5531 50.0951 26.1074 49.5195C26.666 48.944 27.3643 48.6562 28.2021 48.6562C28.8073 48.6562 29.3595 48.8192 29.8589 49.145C30.3625 49.4709 30.7433 49.9364 31.0015 50.5415C31.2638 51.1424 31.395 52.0142 31.395 53.1567C31.395 54.3459 31.266 55.2938 31.0078 56.0005C30.7497 56.703 30.3646 57.2383 29.8525 57.6064C29.3447 57.9746 28.748 58.1587 28.0625 58.1587C27.3346 58.1587 26.7401 57.9577 26.2788 57.5557C25.8175 57.1494 25.5404 56.5802 25.4473 55.8481ZM30.1255 51.7412C30.1255 51.0853 29.9499 50.5648 29.5986 50.1797C29.2516 49.7946 28.8327 49.6021 28.3418 49.6021C27.834 49.6021 27.3918 49.8094 27.0151 50.2241C26.6385 50.6388 26.4502 51.1763 26.4502 51.8364C26.4502 52.4289 26.6279 52.9113 26.9834 53.2837C27.3431 53.6519 27.7853 53.8359 28.3101 53.8359C28.839 53.8359 29.2728 53.6519 29.6113 53.2837C29.9541 52.9113 30.1255 52.3971 30.1255 51.7412ZM38.4409 50.9731L37.3047 51.062C37.2031 50.6134 37.0592 50.2876 36.873 50.0845C36.5641 49.7586 36.1833 49.5957 35.7305 49.5957C35.3665 49.5957 35.047 49.6973 34.772 49.9004C34.4123 50.1628 34.1287 50.5457 33.9214 51.0493C33.714 51.5529 33.6061 52.2702 33.5977 53.2012C33.8727 52.7822 34.2091 52.4712 34.6069 52.2681C35.0047 52.0649 35.4215 51.9634 35.8574 51.9634C36.6191 51.9634 37.2666 52.2448 37.7998 52.8076C38.3372 53.3662 38.606 54.0898 38.606 54.9785C38.606 55.5625 38.479 56.1063 38.2251 56.6099C37.9754 57.1092 37.6305 57.4922 37.1904 57.7588C36.7503 58.0254 36.251 58.1587 35.6924 58.1587C34.7402 58.1587 33.9637 57.8096 33.3628 57.1113C32.7619 56.4089 32.4614 55.2536 32.4614 53.6455C32.4614 51.847 32.7936 50.5394 33.458 49.7227C34.0378 49.0117 34.8185 48.6562 35.8003 48.6562C36.5324 48.6562 37.1312 48.8615 37.5967 49.272C38.0664 49.6825 38.3478 50.2495 38.4409 50.9731ZM33.7754 54.9849C33.7754 55.3784 33.8579 55.755 34.0229 56.1147C34.1922 56.4744 34.4271 56.7495 34.7275 56.9399C35.028 57.1261 35.3433 57.2192 35.6733 57.2192C36.1558 57.2192 36.5705 57.0246 36.9175 56.6353C37.2645 56.2459 37.438 55.717 37.438 55.0483C37.438 54.4051 37.2666 53.8994 36.9238 53.5312C36.5811 53.1589 36.1494 52.9727 35.6289 52.9727C35.1126 52.9727 34.6746 53.1589 34.3149 53.5312C33.9552 53.8994 33.7754 54.384 33.7754 54.9849ZM41.5068 52.9536C41.0329 52.7801 40.6816 52.5326 40.4531 52.2109C40.2246 51.8893 40.1104 51.5042 40.1104 51.0557C40.1104 50.3786 40.3537 49.8094 40.8403 49.3481C41.327 48.8869 41.9744 48.6562 42.7827 48.6562C43.5952 48.6562 44.249 48.8932 44.7441 49.3672C45.2393 49.8369 45.4868 50.4103 45.4868 51.0874C45.4868 51.519 45.3726 51.8957 45.144 52.2173C44.9198 52.5347 44.577 52.7801 44.1157 52.9536C44.687 53.1398 45.1208 53.4403 45.417 53.855C45.7174 54.2697 45.8677 54.7648 45.8677 55.3403C45.8677 56.1359 45.5863 56.8045 45.0234 57.3462C44.4606 57.8879 43.7201 58.1587 42.8018 58.1587C41.8835 58.1587 41.1429 57.8879 40.5801 57.3462C40.0173 56.8003 39.7358 56.1211 39.7358 55.3086C39.7358 54.7035 39.8882 54.1978 40.1929 53.7915C40.5018 53.381 40.9398 53.1017 41.5068 52.9536ZM41.2783 51.0176C41.2783 51.4577 41.4201 51.8174 41.7036 52.0967C41.9871 52.376 42.3553 52.5156 42.8081 52.5156C43.2482 52.5156 43.6079 52.3781 43.8872 52.103C44.1707 51.8237 44.3125 51.4831 44.3125 51.0811C44.3125 50.6621 44.1665 50.3109 43.8745 50.0273C43.5868 49.7396 43.2271 49.5957 42.7954 49.5957C42.3595 49.5957 41.9977 49.7354 41.71 50.0146C41.4222 50.2939 41.2783 50.6283 41.2783 51.0176ZM40.9102 55.3149C40.9102 55.6408 40.9863 55.9561 41.1387 56.2607C41.2952 56.5654 41.5259 56.8024 41.8306 56.9717C42.1353 57.1367 42.4632 57.2192 42.8145 57.2192C43.3604 57.2192 43.811 57.0436 44.1665 56.6924C44.522 56.3411 44.6997 55.8947 44.6997 55.353C44.6997 54.8029 44.5156 54.348 44.1475 53.9883C43.7835 53.6286 43.3265 53.4487 42.7764 53.4487C42.2389 53.4487 41.7925 53.6265 41.437 53.9819C41.0858 54.3374 40.9102 54.7817 40.9102 55.3149ZM51.2886 58H50.146V50.7192C49.8709 50.9816 49.5091 51.244 49.0605 51.5063C48.6162 51.7687 48.2163 51.9655 47.8608 52.0967V50.9922C48.4998 50.6917 49.0584 50.3278 49.5366 49.9004C50.0148 49.473 50.3534 49.0583 50.5522 48.6562H51.2886V58ZM54.0942 55.207V54.0581H57.6045V55.207H54.0942ZM64.5552 56.9019V58H58.4043C58.3958 57.7249 58.4403 57.4604 58.5376 57.2065C58.6942 56.7876 58.9438 56.375 59.2866 55.9688C59.6336 55.5625 60.133 55.0928 60.7847 54.5596C61.7961 53.7301 62.4795 53.0742 62.835 52.5918C63.1904 52.1051 63.3682 51.646 63.3682 51.2144C63.3682 50.7616 63.2052 50.3807 62.8794 50.0718C62.5578 49.7586 62.1367 49.6021 61.6162 49.6021C61.0661 49.6021 60.626 49.7671 60.2959 50.0972C59.9658 50.4272 59.7987 50.8843 59.7944 51.4683L58.6201 51.3477C58.7005 50.4717 59.0031 49.8052 59.5278 49.3481C60.0526 48.8869 60.7572 48.6562 61.6416 48.6562C62.5345 48.6562 63.2412 48.9038 63.7617 49.3989C64.2822 49.894 64.5425 50.5076 64.5425 51.2397C64.5425 51.6121 64.4663 51.9782 64.314 52.3379C64.1616 52.6976 63.9077 53.0763 63.5522 53.4741C63.201 53.8719 62.6149 54.4178 61.7939 55.1118C61.1084 55.6873 60.6683 56.0788 60.4736 56.2861C60.279 56.4893 60.1182 56.6945 59.9912 56.9019H64.5552ZM65.7866 53.4106C65.7866 52.3104 65.8988 51.4259 66.123 50.7573C66.3516 50.0845 66.688 49.5661 67.1323 49.2021C67.5809 48.8382 68.1437 48.6562 68.8208 48.6562C69.3201 48.6562 69.7581 48.7578 70.1348 48.9609C70.5114 49.1598 70.8224 49.4497 71.0679 49.8306C71.3133 50.2072 71.5059 50.6685 71.6455 51.2144C71.7852 51.756 71.855 52.4881 71.855 53.4106C71.855 54.5024 71.7428 55.3848 71.5186 56.0576C71.2943 56.7262 70.9578 57.2446 70.5093 57.6128C70.0649 57.9767 69.5021 58.1587 68.8208 58.1587C67.9237 58.1587 67.2191 57.8371 66.707 57.1938C66.0934 56.4194 65.7866 55.1584 65.7866 53.4106ZM66.9609 53.4106C66.9609 54.9383 67.1387 55.9561 67.4941 56.4639C67.8538 56.9674 68.2961 57.2192 68.8208 57.2192C69.3455 57.2192 69.7856 56.9653 70.1411 56.4575C70.5008 55.9497 70.6807 54.9341 70.6807 53.4106C70.6807 51.8787 70.5008 50.861 70.1411 50.3574C69.7856 49.8538 69.3413 49.6021 68.8081 49.6021C68.2834 49.6021 67.8644 49.8242 67.5513 50.2686C67.1577 50.8356 66.9609 51.883 66.9609 53.4106ZM77.3267 58H76.1841V50.7192C75.909 50.9816 75.5472 51.244 75.0986 51.5063C74.6543 51.7687 74.2544 51.9655 73.8989 52.0967V50.9922C74.5379 50.6917 75.0965 50.3278 75.5747 49.9004C76.0529 49.473 76.3914 49.0583 76.5903 48.6562H77.3267V58ZM86.188 50.9731L85.0518 51.062C84.9502 50.6134 84.8063 50.2876 84.6201 50.0845C84.3112 49.7586 83.9303 49.5957 83.4775 49.5957C83.1136 49.5957 82.7941 49.6973 82.519 49.9004C82.1593 50.1628 81.8758 50.5457 81.6685 51.0493C81.4611 51.5529 81.3532 52.2702 81.3447 53.2012C81.6198 52.7822 81.9562 52.4712 82.354 52.2681C82.7518 52.0649 83.1686 51.9634 83.6045 51.9634C84.3662 51.9634 85.0137 52.2448 85.5469 52.8076C86.0843 53.3662 86.353 54.0898 86.353 54.9785C86.353 55.5625 86.2261 56.1063 85.9722 56.6099C85.7225 57.1092 85.3776 57.4922 84.9375 57.7588C84.4974 58.0254 83.998 58.1587 83.4395 58.1587C82.4873 58.1587 81.7108 57.8096 81.1099 57.1113C80.509 56.4089 80.2085 55.2536 80.2085 53.6455C80.2085 51.847 80.5407 50.5394 81.2051 49.7227C81.7848 49.0117 82.5656 48.6562 83.5474 48.6562C84.2795 48.6562 84.8783 48.8615 85.3438 49.272C85.8135 49.6825 86.0949 50.2495 86.188 50.9731ZM81.5225 54.9849C81.5225 55.3784 81.605 55.755 81.77 56.1147C81.9393 56.4744 82.1742 56.7495 82.4746 56.9399C82.7751 57.1261 83.0903 57.2192 83.4204 57.2192C83.9028 57.2192 84.3175 57.0246 84.6646 56.6353C85.0116 56.2459 85.1851 55.717 85.1851 55.0483C85.1851 54.4051 85.0137 53.8994 84.6709 53.5312C84.3281 53.1589 83.8965 52.9727 83.376 52.9727C82.8597 52.9727 82.4217 53.1589 82.062 53.5312C81.7023 53.8994 81.5225 54.384 81.5225 54.9849Z" fill="#0F6062"/>
</svg>
