<svg width="69" height="69" viewBox="0 0 69 69" fill="none" xmlns="http://www.w3.org/2000/svg">
<path d="M35.2325 31.5269C35.154 31.5269 35.0719 31.5197 34.9863 31.5055C34.9006 31.4983 34.8221 31.4876 34.7507 31.4734V30.1778H34.9113C35.0969 30.1778 35.254 30.1421 35.3824 30.0707C35.5181 29.9994 35.6251 29.8923 35.7036 29.7495C35.7822 29.5996 35.8357 29.4176 35.8642 29.2035C35.9142 28.7538 35.9535 28.3077 35.982 27.8651C36.0177 27.4154 36.0534 26.7837 36.0891 25.97H40.5432V31.3877H38.8729V26.9336H37.0099C36.9885 27.4547 36.9635 27.9151 36.9349 28.3148C36.9064 28.7145 36.8671 29.1678 36.8172 29.6746C36.7458 30.2885 36.5745 30.7524 36.3032 31.0665C36.0391 31.3734 35.6822 31.5269 35.2325 31.5269ZM44.6566 31.5483C44.0927 31.5483 43.5788 31.4234 43.1148 31.1736C42.658 30.9237 42.2975 30.5811 42.0334 30.1457C41.7693 29.7031 41.6373 29.2142 41.6373 28.6789C41.6373 28.1292 41.7658 27.6367 42.0227 27.2013C42.2797 26.7659 42.633 26.4268 43.0827 26.1841C43.5324 25.9343 44.0428 25.8094 44.6138 25.8094C45.142 25.8094 45.6202 25.9272 46.0485 26.1627C46.4768 26.3911 46.8123 26.7088 47.055 27.1156C47.3048 27.5154 47.4297 27.9686 47.4297 28.4754C47.4297 28.5754 47.419 28.6753 47.3976 28.7752C47.3833 28.8751 47.3655 28.9715 47.344 29.0643H42.5259V28.197H46.3483L45.8451 28.818V28.7324C45.8451 28.2756 45.7987 27.9008 45.7059 27.6082C45.6202 27.3084 45.4846 27.0871 45.299 26.9443C45.1206 26.7944 44.8957 26.7195 44.6245 26.7195C44.3533 26.7195 44.1213 26.7944 43.9285 26.9443C43.7358 27.0942 43.5859 27.3155 43.4789 27.6082C43.3789 27.9008 43.329 28.2577 43.329 28.6789C43.329 29.0714 43.3968 29.4176 43.5324 29.7174C43.6752 30.0101 43.875 30.2385 44.132 30.4027C44.3961 30.5597 44.703 30.6382 45.0528 30.6382C45.374 30.6382 45.6809 30.5633 45.9736 30.4134C46.2662 30.2563 46.4946 30.0493 46.6588 29.7924L47.1513 30.2635C46.9372 30.6418 46.5981 30.9523 46.1342 31.195C45.6773 31.4305 45.1848 31.5483 44.6566 31.5483ZM49.5072 31.3877V26.9336H47.6121V25.97H53.0833L52.912 26.9336H51.1775V31.3877H49.5072Z" fill="#0F6062"/>
<path d="M6.46364 62.7461V56.084H11.4031L11.2508 57.0738H8.08157V62.7461H6.46364ZM12.1323 62.7461L14.8542 56.084H16.2437L18.9656 62.7461H17.2335L15.3396 57.8352H15.2634L13.3124 62.7461H12.1323ZM13.1887 61.328L13.5218 60.3953H17.3382L17.6713 61.328H13.1887ZM20.9882 62.7461V56.084H23.7197C24.297 56.084 24.8015 56.1792 25.2329 56.3695C25.6707 56.5535 26.007 56.8169 26.2417 57.1595C26.4828 57.4957 26.6034 57.8891 26.6034 58.3396C26.6034 58.7901 26.4828 59.1866 26.2417 59.5293C26.007 59.8655 25.6707 60.1289 25.2329 60.3192C24.8015 60.5032 24.297 60.5952 23.7197 60.5952H21.8638V59.7196H23.5293C23.8021 59.7196 24.0432 59.6625 24.2526 59.5483C24.462 59.4341 24.6238 59.2723 24.738 59.0629C24.8522 58.8535 24.9093 58.6124 24.9093 58.3396C24.9093 58.0668 24.8522 57.8257 24.738 57.6163C24.6238 57.4069 24.462 57.2451 24.2526 57.1309C24.0432 57.0167 23.8021 56.9596 23.5293 56.9596H22.6061V62.7461H20.9882ZM27.6513 62.7461L30.3733 56.084H31.7628L34.4847 62.7461H32.7526L30.8586 57.8352H30.7825L28.8315 62.7461H27.6513ZM28.7077 61.328L29.0408 60.3953H32.8573L33.1904 61.328H28.7077ZM41.0375 62.7461V56.084H42.6554V62.7461H41.0375ZM36.5073 62.7461V56.084H38.1252V62.7461H36.5073ZM37.3448 59.8909V58.9011H41.8179V59.8909H37.3448ZM46.9602 62.7461V57.0738H44.7331V56.084H50.8051L50.6529 57.0738H48.5781V62.7461H46.9602ZM52.8814 62.7461V56.084H54.4232V60.7284H54.4993L57.6876 56.084H59.1532V62.7461H57.6115V58.1017H57.5353L54.347 62.7461H52.8814ZM65.8249 62.7461V56.9596H64.8161C64.5623 56.9596 64.337 57.0135 64.1403 57.1214C63.95 57.2229 63.8009 57.3689 63.693 57.5592C63.5852 57.7495 63.5312 57.9684 63.5312 58.2159C63.5312 58.4633 63.5852 58.6822 63.693 58.8726C63.8009 59.0629 63.95 59.212 64.1403 59.3199C64.337 59.4214 64.5623 59.4722 64.8161 59.4722H66.6624V60.3477H64.759C64.1562 60.3477 63.6359 60.2653 63.1981 60.1003C62.7603 59.929 62.4241 59.6847 62.1893 59.3675C61.9546 59.0439 61.8372 58.66 61.8372 58.2159C61.8372 57.7717 61.9546 57.3911 62.1893 57.0738C62.4241 56.7502 62.7603 56.506 63.1981 56.341C63.6359 56.1697 64.1562 56.084 64.759 56.084H67.4428V62.7461H65.8249ZM61.3232 62.7461L63.4741 59.6149L64.8732 60.0908L63.0839 62.7461H61.3232Z" fill="#0F6062"/>
<path d="M10.8472 49.037C11.3537 48.3194 11.7969 47.4542 12.1767 46.4412C12.5566 45.4282 12.7465 44.3941 12.7465 43.3389V13.5827C12.7465 12.4008 12.5144 11.5356 12.0501 10.9869C11.5858 10.396 10.9316 10.1005 10.0875 10.1005C9.45435 10.1005 8.65241 10.3116 7.68164 10.7336V9.78398L16.8618 5.03563H17.4949V43.3389C17.4949 44.3941 17.6848 45.4282 18.0647 46.4412C18.4446 47.4542 18.8877 48.3194 19.3942 49.037V49.3535H10.8472V49.037Z" fill="#0F6062"/>
<path d="M64.5504 27.3804C64.5504 39.5455 55.4055 49.4073 44.1248 49.4073C32.8441 49.4073 23.6992 39.5455 23.6992 27.3804C23.6992 15.2153 32.8441 5.35352 44.1248 5.35352C55.4055 5.35352 64.5504 15.2153 64.5504 27.3804ZM28.2125 27.3804C28.2125 36.8575 35.3367 44.5402 44.1248 44.5402C52.9129 44.5402 60.0371 36.8575 60.0371 27.3804C60.0371 17.9033 52.9129 10.2206 44.1248 10.2206C35.3367 10.2206 28.2125 17.9033 28.2125 27.3804Z" fill="#0F6062"/>
</svg>
