<svg width="284" height="209" viewBox="0 0 284 209" fill="none" xmlns="http://www.w3.org/2000/svg">
<mask id="mask0_1753_33728" style="mask-type:alpha" maskUnits="userSpaceOnUse" x="0" y="0" width="284" height="209">
<path d="M0.8 208.2H283.2V0.800003H0.8V208.2Z" fill="white" stroke="#0F6062" stroke-width="1.6"/>
</mask>
<g mask="url(#mask0_1753_33728)">
<line x1="69.4597" y1="-145.325" x2="-104.318" y2="132.777" stroke="#0F6062" stroke-width="1.6" stroke-dasharray="1.64 1.64"/>
<line x1="279.776" y1="-13.9052" x2="105.999" y2="264.197" stroke="#0F6062" stroke-width="1.6" stroke-dasharray="1.64 1.64"/>
<line x1="89.8113" y1="-132.607" x2="-83.9662" y2="145.495" stroke="#0F6062" stroke-width="1.6" stroke-dasharray="1.64 1.64"/>
<line x1="300.128" y1="-1.18739" x2="126.35" y2="276.915" stroke="#0F6062" stroke-width="1.6" stroke-dasharray="1.64 1.64"/>
<line x1="118.964" y1="-103.778" x2="-54.8139" y2="174.324" stroke="#0F6062" stroke-width="1.6" stroke-dasharray="1.64 1.64"/>
<line x1="165.925" y1="-73.2548" x2="-7.85294" y2="204.847" stroke="#0F6062" stroke-width="1.6" stroke-dasharray="1.64 1.64"/>
<line x1="172.182" y1="-68.1669" x2="-1.59513" y2="209.935" stroke="#0F6062" stroke-width="1.6" stroke-dasharray="1.64 1.64"/>
<line x1="131.475" y1="-93.6034" x2="-42.3022" y2="184.499" stroke="#0F6062" stroke-width="1.6" stroke-dasharray="1.64 1.64"/>
<line x1="96.5964" y1="-128.368" x2="-77.1811" y2="149.734" stroke="#0F6062" stroke-width="1.6" stroke-dasharray="1.64 1.64"/>
<line x1="306.913" y1="3.05187" x2="133.135" y2="281.154" stroke="#0F6062" stroke-width="1.6" stroke-dasharray="1.64 1.64"/>
<line x1="70.9089" y1="-132.548" x2="-102.869" y2="145.554" stroke="#0F6062" stroke-width="1.6" stroke-dasharray="1.64 1.64"/>
<line x1="281.225" y1="-1.12685" x2="107.448" y2="276.975" stroke="#0F6062" stroke-width="1.6" stroke-dasharray="1.64 1.64"/>
<line x1="77.6941" y1="-128.308" x2="-96.0834" y2="149.795" stroke="#0F6062" stroke-width="1.6" stroke-dasharray="1.64 1.64"/>
<line x1="288.01" y1="3.11241" x2="114.233" y2="281.215" stroke="#0F6062" stroke-width="1.6" stroke-dasharray="1.64 1.64"/>
<line x1="98.0456" y1="-115.59" x2="-75.7318" y2="162.512" stroke="#0F6062" stroke-width="1.6" stroke-dasharray="1.64 1.64"/>
<line x1="308.362" y1="15.8302" x2="134.585" y2="293.932" stroke="#0F6062" stroke-width="1.6" stroke-dasharray="1.64 1.64"/>
<line x1="104.3" y1="-110.503" x2="-69.4779" y2="167.599" stroke="#0F6062" stroke-width="1.6" stroke-dasharray="1.64 1.64"/>
<line x1="315.147" y1="20.0694" x2="141.37" y2="298.172" stroke="#0F6062" stroke-width="1.6" stroke-dasharray="1.64 1.64"/>
<line x1="321.401" y1="25.1573" x2="147.624" y2="303.259" stroke="#0F6062" stroke-width="1.6" stroke-dasharray="1.64 1.64"/>
<line x1="328.714" y1="28.548" x2="154.936" y2="306.65" stroke="#0F6062" stroke-width="1.6" stroke-dasharray="1.64 1.64"/>
<line x1="334.971" y1="33.6358" x2="161.194" y2="311.738" stroke="#0F6062" stroke-width="1.6" stroke-dasharray="1.64 1.64"/>
<line x1="342.284" y1="37.0265" x2="168.506" y2="315.129" stroke="#0F6062" stroke-width="1.6" stroke-dasharray="1.64 1.64"/>
<line x1="349.069" y1="41.2667" x2="175.292" y2="319.369" stroke="#0F6062" stroke-width="1.6" stroke-dasharray="1.64 1.64"/>
<line x1="356.382" y1="44.6573" x2="182.604" y2="322.759" stroke="#0F6062" stroke-width="1.6" stroke-dasharray="1.64 1.64"/>
<line x1="362.635" y1="49.7452" x2="188.858" y2="327.847" stroke="#0F6062" stroke-width="1.6" stroke-dasharray="1.64 1.64"/>
<line x1="369.952" y1="53.1358" x2="196.174" y2="331.238" stroke="#0F6062" stroke-width="1.6" stroke-dasharray="1.64 1.64"/>
<line x1="376.206" y1="58.2237" x2="202.428" y2="336.326" stroke="#0F6062" stroke-width="1.6" stroke-dasharray="1.64 1.64"/>
<line x1="111.616" y1="-107.111" x2="-62.1615" y2="170.991" stroke="#0F6062" stroke-width="1.6" stroke-dasharray="1.64 1.64"/>
<line x1="145.007" y1="-85.0663" x2="-28.7709" y2="193.036" stroke="#0F6062" stroke-width="1.6" stroke-dasharray="1.64 1.64"/>
<line x1="152.323" y1="-81.6747" x2="-21.4545" y2="196.427" stroke="#0F6062" stroke-width="1.6" stroke-dasharray="1.64 1.64"/>
<line x1="159.635" y1="-78.2841" x2="-14.142" y2="199.818" stroke="#0F6062" stroke-width="1.6" stroke-dasharray="1.64 1.64"/>
<line x1="179.46" y1="-64.7177" x2="5.68222" y2="213.384" stroke="#0F6062" stroke-width="1.6" stroke-dasharray="1.64 1.64"/>
<line x1="186.772" y1="-61.3261" x2="12.9947" y2="216.776" stroke="#0F6062" stroke-width="1.6" stroke-dasharray="1.64 1.64"/>
<line x1="193.026" y1="-56.2392" x2="19.2486" y2="221.863" stroke="#0F6062" stroke-width="1.6" stroke-dasharray="1.64 1.64"/>
<line x1="199.284" y1="-51.1513" x2="25.5064" y2="226.951" stroke="#0F6062" stroke-width="1.6" stroke-dasharray="1.64 1.64"/>
<line x1="206.596" y1="-47.7606" x2="32.8189" y2="230.341" stroke="#0F6062" stroke-width="1.6" stroke-dasharray="1.64 1.64"/>
<line x1="213.909" y1="-44.369" x2="40.1314" y2="233.733" stroke="#0F6062" stroke-width="1.6" stroke-dasharray="1.64 1.64"/>
<line x1="220.928" y1="-40.5018" x2="47.151" y2="237.6" stroke="#0F6062" stroke-width="1.6" stroke-dasharray="1.64 1.64"/>
<line x1="227.182" y1="-35.4149" x2="53.4049" y2="242.687" stroke="#0F6062" stroke-width="1.6" stroke-dasharray="1.64 1.64"/>
<line x1="235.257" y1="-33.2431" x2="61.4791" y2="244.859" stroke="#0F6062" stroke-width="1.6" stroke-dasharray="1.64 1.64"/>
<line x1="241.811" y1="-28.6317" x2="68.0338" y2="249.47" stroke="#0F6062" stroke-width="1.6" stroke-dasharray="1.64 1.64"/>
<line x1="247.303" y1="-22.3241" x2="73.526" y2="255.778" stroke="#0F6062" stroke-width="1.6" stroke-dasharray="1.64 1.64"/>
<line x1="254.85" y1="-19.3046" x2="81.0728" y2="258.798" stroke="#0F6062" stroke-width="1.6" stroke-dasharray="1.64 1.64"/>
<line x1="262.397" y1="-16.285" x2="88.6197" y2="261.817" stroke="#0F6062" stroke-width="1.6" stroke-dasharray="1.64 1.64"/>
<line x1="268.417" y1="-10.8261" x2="94.6392" y2="267.276" stroke="#0F6062" stroke-width="1.6" stroke-dasharray="1.64 1.64"/>
<line x1="125.182" y1="-98.6327" x2="-48.5951" y2="179.469" stroke="#0F6062" stroke-width="1.6" stroke-dasharray="1.64 1.64"/>
<line x1="138.753" y1="-90.1542" x2="-35.0248" y2="187.948" stroke="#0F6062" stroke-width="1.6" stroke-dasharray="1.64 1.64"/>
</g>
</svg>
