<svg width="284" height="209" viewBox="0 0 284 209" fill="none" xmlns="http://www.w3.org/2000/svg">
<mask id="mask0_1813_36337" style="mask-type:alpha" maskUnits="userSpaceOnUse" x="0" y="0" width="284" height="209">
<path d="M0.5 208.5H283.5V0.5H0.5V208.5Z" fill="white" stroke="#0F6062"/>
</mask>
<g mask="url(#mask0_1813_36337)">
<path d="M-1.43366 -40.082C-5.66221 -34.957 -9.89075 -29.832 -9.89075 -18.7279C-9.89075 2.6263 7.02344 2.6263 7.02344 23.9805C7.02344 46.1888 -9.89075 44.4805 -9.89075 66.6888C-9.89075 88.043 7.02344 88.043 7.02344 109.397C7.02344 120.501 2.79489 125.626 -1.43366 130.751" stroke="#0F6062" stroke-width="1.5" stroke-linecap="round" stroke-linejoin="round" stroke-dasharray="3 3"/>
<path d="M-1.43366 130.918C-5.66221 136.043 -9.89075 141.168 -9.89075 152.272C-9.89075 173.626 7.02344 173.626 7.02344 194.98C7.02344 217.189 -9.89075 215.48 -9.89075 237.689C-9.89075 259.043 7.02344 259.043 7.02344 280.397C7.02344 291.501 2.79489 296.626 -1.43366 301.751" stroke="#0F6062" stroke-width="1.5" stroke-linecap="round" stroke-linejoin="round" stroke-dasharray="3 3"/>
<path d="M9.74603 -40.082C5.51748 -34.957 1.28893 -29.832 1.28893 -18.7279C1.28893 2.6263 18.2031 2.6263 18.2031 23.9805C18.2031 46.1888 1.28893 44.4805 1.28893 66.6888C1.28893 88.043 18.2031 88.043 18.2031 109.397C18.2031 120.501 13.9746 125.626 9.74603 130.751" stroke="#0F6062" stroke-width="1.5" stroke-linecap="round" stroke-linejoin="round" stroke-dasharray="3 3"/>
<path d="M9.74603 130.918C5.51748 136.043 1.28893 141.168 1.28893 152.272C1.28893 173.626 18.2031 173.626 18.2031 194.98C18.2031 217.189 1.28893 215.48 1.28893 237.689C1.28893 259.043 18.2031 259.043 18.2031 280.397C18.2031 291.501 13.9746 296.626 9.74603 301.751" stroke="#0F6062" stroke-width="1.5" stroke-linecap="round" stroke-linejoin="round" stroke-dasharray="3 3"/>
<path d="M20.9257 -40.082C16.6972 -34.957 12.4686 -29.832 12.4686 -18.7279C12.4686 2.6263 29.3828 2.6263 29.3828 23.9805C29.3828 46.1888 12.4686 44.4805 12.4686 66.6888C12.4686 88.043 29.3828 88.043 29.3828 109.397C29.3828 120.501 25.1543 125.626 20.9257 130.751" stroke="#0F6062" stroke-width="1.5" stroke-linecap="round" stroke-linejoin="round" stroke-dasharray="3 3"/>
<path d="M20.9257 130.918C16.6972 136.043 12.4686 141.168 12.4686 152.272C12.4686 173.626 29.3828 173.626 29.3828 194.98C29.3828 217.189 12.4686 215.48 12.4686 237.689C12.4686 259.043 29.3828 259.043 29.3828 280.397C29.3828 291.501 25.1543 296.626 20.9257 301.751" stroke="#0F6062" stroke-width="1.5" stroke-linecap="round" stroke-linejoin="round" stroke-dasharray="3 3"/>
<path d="M32.1054 -40.082C27.8769 -34.957 23.6483 -29.832 23.6483 -18.7279C23.6483 2.6263 40.5625 2.6263 40.5625 23.9805C40.5625 46.1888 23.6483 44.4805 23.6483 66.6888C23.6483 88.043 40.5625 88.043 40.5625 109.397C40.5625 120.501 36.334 125.626 32.1054 130.751" stroke="#0F6062" stroke-width="1.5" stroke-linecap="round" stroke-linejoin="round" stroke-dasharray="3 3"/>
<path d="M32.1054 130.918C27.8769 136.043 23.6483 141.168 23.6483 152.272C23.6483 173.626 40.5625 173.626 40.5625 194.98C40.5625 217.189 23.6483 215.48 23.6483 237.689C23.6483 259.043 40.5625 259.043 40.5625 280.397C40.5625 291.501 36.334 296.626 32.1054 301.751" stroke="#0F6062" stroke-width="1.5" stroke-linecap="round" stroke-linejoin="round" stroke-dasharray="3 3"/>
<path d="M43.2851 -40.082C39.0565 -34.957 34.828 -29.832 34.828 -18.7279C34.828 2.6263 51.7422 2.6263 51.7422 23.9805C51.7422 46.1888 34.828 44.4805 34.828 66.6888C34.828 88.043 51.7422 88.043 51.7422 109.397C51.7422 120.501 47.5136 125.626 43.2851 130.751" stroke="#0F6062" stroke-width="1.5" stroke-linecap="round" stroke-linejoin="round" stroke-dasharray="3 3"/>
<path d="M43.2851 130.918C39.0565 136.043 34.828 141.168 34.828 152.272C34.828 173.626 51.7422 173.626 51.7422 194.98C51.7422 217.189 34.828 215.48 34.828 237.689C34.828 259.043 51.7422 259.043 51.7422 280.397C51.7422 291.501 47.5136 296.626 43.2851 301.751" stroke="#0F6062" stroke-width="1.5" stroke-linecap="round" stroke-linejoin="round" stroke-dasharray="3 3"/>
<path d="M54.4648 -40.082C50.2362 -34.957 46.0077 -29.832 46.0077 -18.7279C46.0077 2.6263 62.9219 2.6263 62.9219 23.9805C62.9219 46.1888 46.0077 44.4805 46.0077 66.6888C46.0077 88.043 62.9219 88.043 62.9219 109.397C62.9219 120.501 58.6933 125.626 54.4648 130.751" stroke="#0F6062" stroke-width="1.5" stroke-linecap="round" stroke-linejoin="round" stroke-dasharray="3 3"/>
<path d="M54.4648 130.918C50.2362 136.043 46.0077 141.168 46.0077 152.272C46.0077 173.626 62.9219 173.626 62.9219 194.98C62.9219 217.189 46.0077 215.48 46.0077 237.689C46.0077 259.043 62.9219 259.043 62.9219 280.397C62.9219 291.501 58.6933 296.626 54.4648 301.751" stroke="#0F6062" stroke-width="1.5" stroke-linecap="round" stroke-linejoin="round" stroke-dasharray="3 3"/>
<path d="M65.6445 -40.082C61.4159 -34.957 57.1874 -29.832 57.1874 -18.7279C57.1874 2.6263 74.1016 2.6263 74.1016 23.9805C74.1016 46.1888 57.1874 44.4805 57.1874 66.6888C57.1874 88.043 74.1016 88.043 74.1016 109.397C74.1016 120.501 69.873 125.626 65.6445 130.751" stroke="#0F6062" stroke-width="1.5" stroke-linecap="round" stroke-linejoin="round" stroke-dasharray="3 3"/>
<path d="M65.6445 130.918C61.4159 136.043 57.1874 141.168 57.1874 152.272C57.1874 173.626 74.1016 173.626 74.1016 194.98C74.1016 217.189 57.1874 215.48 57.1874 237.689C57.1874 259.043 74.1016 259.043 74.1016 280.397C74.1016 291.501 69.873 296.626 65.6445 301.751" stroke="#0F6062" stroke-width="1.5" stroke-linecap="round" stroke-linejoin="round" stroke-dasharray="3 3"/>
<path d="M76.8202 -40.082C72.5917 -34.957 68.3632 -29.832 68.3632 -18.7279C68.3632 2.6263 85.2773 2.6263 85.2773 23.9805C85.2773 46.1888 68.3632 44.4805 68.3632 66.6888C68.3632 88.043 85.2773 88.043 85.2773 109.397C85.2773 120.501 81.0488 125.626 76.8202 130.751" stroke="#0F6062" stroke-width="1.5" stroke-linecap="round" stroke-linejoin="round" stroke-dasharray="3 3"/>
<path d="M76.8202 130.918C72.5917 136.043 68.3632 141.168 68.3632 152.272C68.3632 173.626 85.2773 173.626 85.2773 194.98C85.2773 217.189 68.3632 215.48 68.3632 237.689C68.3632 259.043 85.2773 259.043 85.2773 280.397C85.2773 291.501 81.0488 296.626 76.8202 301.751" stroke="#0F6062" stroke-width="1.5" stroke-linecap="round" stroke-linejoin="round" stroke-dasharray="3 3"/>
<path d="M87.9999 -40.082C83.7714 -34.957 79.5428 -29.832 79.5428 -18.7279C79.5428 2.6263 96.457 2.6263 96.457 23.9805C96.457 46.1888 79.5428 44.4805 79.5428 66.6888C79.5428 88.043 96.457 88.043 96.457 109.397C96.457 120.501 92.2285 125.626 87.9999 130.751" stroke="#0F6062" stroke-width="1.5" stroke-linecap="round" stroke-linejoin="round" stroke-dasharray="3 3"/>
<path d="M87.9999 130.918C83.7714 136.043 79.5428 141.168 79.5428 152.272C79.5428 173.626 96.457 173.626 96.457 194.98C96.457 217.189 79.5428 215.48 79.5428 237.689C79.5428 259.043 96.457 259.043 96.457 280.397C96.457 291.501 92.2285 296.626 87.9999 301.751" stroke="#0F6062" stroke-width="1.5" stroke-linecap="round" stroke-linejoin="round" stroke-dasharray="3 3"/>
<path d="M99.1796 -40.082C94.9511 -34.957 90.7225 -29.832 90.7225 -18.7279C90.7225 2.6263 107.637 2.6263 107.637 23.9805C107.637 46.1888 90.7225 44.4805 90.7225 66.6888C90.7225 88.043 107.637 88.043 107.637 109.397C107.637 120.501 103.408 125.626 99.1796 130.751" stroke="#0F6062" stroke-width="1.5" stroke-linecap="round" stroke-linejoin="round" stroke-dasharray="3 3"/>
<path d="M99.1796 130.918C94.9511 136.043 90.7225 141.168 90.7225 152.272C90.7225 173.626 107.637 173.626 107.637 194.98C107.637 217.189 90.7225 215.48 90.7225 237.689C90.7225 259.043 107.637 259.043 107.637 280.397C107.637 291.501 103.408 296.626 99.1796 301.751" stroke="#0F6062" stroke-width="1.5" stroke-linecap="round" stroke-linejoin="round" stroke-dasharray="3 3"/>
<path d="M110.359 -40.082C106.131 -34.957 101.902 -29.832 101.902 -18.7279C101.902 2.6263 118.816 2.6263 118.816 23.9805C118.816 46.1888 101.902 44.4805 101.902 66.6888C101.902 88.043 118.816 88.043 118.816 109.397C118.816 120.501 114.588 125.626 110.359 130.751" stroke="#0F6062" stroke-width="1.5" stroke-linecap="round" stroke-linejoin="round" stroke-dasharray="3 3"/>
<path d="M110.359 130.918C106.131 136.043 101.902 141.168 101.902 152.272C101.902 173.626 118.816 173.626 118.816 194.98C118.816 217.189 101.902 215.48 101.902 237.689C101.902 259.043 118.816 259.043 118.816 280.397C118.816 291.501 114.588 296.626 110.359 301.751" stroke="#0F6062" stroke-width="1.5" stroke-linecap="round" stroke-linejoin="round" stroke-dasharray="3 3"/>
<path d="M121.539 -40.082C117.31 -34.957 113.082 -29.832 113.082 -18.7279C113.082 2.6263 129.996 2.6263 129.996 23.9805C129.996 46.1888 113.082 44.4805 113.082 66.6888C113.082 88.043 129.996 88.043 129.996 109.397C129.996 120.501 125.768 125.626 121.539 130.751" stroke="#0F6062" stroke-width="1.5" stroke-linecap="round" stroke-linejoin="round" stroke-dasharray="3 3"/>
<path d="M121.539 130.918C117.31 136.043 113.082 141.168 113.082 152.272C113.082 173.626 129.996 173.626 129.996 194.98C129.996 217.189 113.082 215.48 113.082 237.689C113.082 259.043 129.996 259.043 129.996 280.397C129.996 291.501 125.768 296.626 121.539 301.751" stroke="#0F6062" stroke-width="1.5" stroke-linecap="round" stroke-linejoin="round" stroke-dasharray="3 3"/>
<path d="M132.719 -40.082C128.49 -34.957 124.262 -29.832 124.262 -18.7279C124.262 2.6263 141.176 2.6263 141.176 23.9805C141.176 46.1888 124.262 44.4805 124.262 66.6888C124.262 88.043 141.176 88.043 141.176 109.397C141.176 120.501 136.947 125.626 132.719 130.751" stroke="#0F6062" stroke-width="1.5" stroke-linecap="round" stroke-linejoin="round" stroke-dasharray="3 3"/>
<path d="M132.719 130.918C128.49 136.043 124.262 141.168 124.262 152.272C124.262 173.626 141.176 173.626 141.176 194.98C141.176 217.189 124.262 215.48 124.262 237.689C124.262 259.043 141.176 259.043 141.176 280.397C141.176 291.501 136.947 296.626 132.719 301.751" stroke="#0F6062" stroke-width="1.5" stroke-linecap="round" stroke-linejoin="round" stroke-dasharray="3 3"/>
<path d="M143.898 -40.082C139.67 -34.957 135.441 -29.832 135.441 -18.7279C135.441 2.6263 152.355 2.6263 152.355 23.9805C152.355 46.1888 135.441 44.4805 135.441 66.6888C135.441 88.043 152.355 88.043 152.355 109.397C152.355 120.501 148.127 125.626 143.898 130.751" stroke="#0F6062" stroke-width="1.5" stroke-linecap="round" stroke-linejoin="round" stroke-dasharray="3 3"/>
<path d="M143.898 130.918C139.67 136.043 135.441 141.168 135.441 152.272C135.441 173.626 152.355 173.626 152.355 194.98C152.355 217.189 135.441 215.48 135.441 237.689C135.441 259.043 152.355 259.043 152.355 280.397C152.355 291.501 148.127 296.626 143.898 301.751" stroke="#0F6062" stroke-width="1.5" stroke-linecap="round" stroke-linejoin="round" stroke-dasharray="3 3"/>
<path d="M155.078 -40.082C150.85 -34.957 146.621 -29.832 146.621 -18.7279C146.621 2.6263 163.535 2.6263 163.535 23.9805C163.535 46.1888 146.621 44.4805 146.621 66.6888C146.621 88.043 163.535 88.043 163.535 109.397C163.535 120.501 159.307 125.626 155.078 130.751" stroke="#0F6062" stroke-width="1.5" stroke-linecap="round" stroke-linejoin="round" stroke-dasharray="3 3"/>
<path d="M155.078 130.918C150.85 136.043 146.621 141.168 146.621 152.272C146.621 173.626 163.535 173.626 163.535 194.98C163.535 217.189 146.621 215.48 146.621 237.689C146.621 259.043 163.535 259.043 163.535 280.397C163.535 291.501 159.307 296.626 155.078 301.751" stroke="#0F6062" stroke-width="1.5" stroke-linecap="round" stroke-linejoin="round" stroke-dasharray="3 3"/>
<path d="M166.254 -40.082C162.025 -34.957 157.797 -29.832 157.797 -18.7279C157.797 2.6263 174.711 2.6263 174.711 23.9805C174.711 46.1888 157.797 44.4805 157.797 66.6888C157.797 88.043 174.711 88.043 174.711 109.397C174.711 120.501 170.482 125.626 166.254 130.751" stroke="#0F6062" stroke-width="1.5" stroke-linecap="round" stroke-linejoin="round" stroke-dasharray="3 3"/>
<path d="M166.254 130.918C162.025 136.043 157.797 141.168 157.797 152.272C157.797 173.626 174.711 173.626 174.711 194.98C174.711 217.189 157.797 215.48 157.797 237.689C157.797 259.043 174.711 259.043 174.711 280.397C174.711 291.501 170.482 296.626 166.254 301.751" stroke="#0F6062" stroke-width="1.5" stroke-linecap="round" stroke-linejoin="round" stroke-dasharray="3 3"/>
<path d="M177.434 -40.082C173.205 -34.957 168.976 -29.832 168.976 -18.7279C168.976 2.6263 185.891 2.6263 185.891 23.9805C185.891 46.1888 168.976 44.4805 168.976 66.6888C168.976 88.043 185.891 88.043 185.891 109.397C185.891 120.501 181.662 125.626 177.434 130.751" stroke="#0F6062" stroke-width="1.5" stroke-linecap="round" stroke-linejoin="round" stroke-dasharray="3 3"/>
<path d="M177.434 130.918C173.205 136.043 168.976 141.168 168.976 152.272C168.976 173.626 185.891 173.626 185.891 194.98C185.891 217.189 168.976 215.48 168.976 237.689C168.976 259.043 185.891 259.043 185.891 280.397C185.891 291.501 181.662 296.626 177.434 301.751" stroke="#0F6062" stroke-width="1.5" stroke-linecap="round" stroke-linejoin="round" stroke-dasharray="3 3"/>
<path d="M188.613 -40.082C184.385 -34.957 180.156 -29.832 180.156 -18.7279C180.156 2.6263 197.07 2.6263 197.07 23.9805C197.07 46.1888 180.156 44.4805 180.156 66.6888C180.156 88.043 197.07 88.043 197.07 109.397C197.07 120.501 192.842 125.626 188.613 130.751" stroke="#0F6062" stroke-width="1.5" stroke-linecap="round" stroke-linejoin="round" stroke-dasharray="3 3"/>
<path d="M188.613 130.918C184.385 136.043 180.156 141.168 180.156 152.272C180.156 173.626 197.07 173.626 197.07 194.98C197.07 217.189 180.156 215.48 180.156 237.689C180.156 259.043 197.07 259.043 197.07 280.397C197.07 291.501 192.842 296.626 188.613 301.751" stroke="#0F6062" stroke-width="1.5" stroke-linecap="round" stroke-linejoin="round" stroke-dasharray="3 3"/>
<path d="M199.793 -40.082C195.564 -34.957 191.336 -29.832 191.336 -18.7279C191.336 2.6263 208.25 2.6263 208.25 23.9805C208.25 46.1888 191.336 44.4805 191.336 66.6888C191.336 88.043 208.25 88.043 208.25 109.397C208.25 120.501 204.021 125.626 199.793 130.751" stroke="#0F6062" stroke-width="1.5" stroke-linecap="round" stroke-linejoin="round" stroke-dasharray="3 3"/>
<path d="M199.793 130.918C195.564 136.043 191.336 141.168 191.336 152.272C191.336 173.626 208.25 173.626 208.25 194.98C208.25 217.189 191.336 215.48 191.336 237.689C191.336 259.043 208.25 259.043 208.25 280.397C208.25 291.501 204.021 296.626 199.793 301.751" stroke="#0F6062" stroke-width="1.5" stroke-linecap="round" stroke-linejoin="round" stroke-dasharray="3 3"/>
<path d="M210.973 -40.082C206.744 -34.957 202.515 -29.832 202.515 -18.7279C202.515 2.6263 219.43 2.6263 219.43 23.9805C219.43 46.1888 202.515 44.4805 202.515 66.6888C202.515 88.043 219.43 88.043 219.43 109.397C219.43 120.501 215.201 125.626 210.973 130.751" stroke="#0F6062" stroke-width="1.5" stroke-linecap="round" stroke-linejoin="round" stroke-dasharray="3 3"/>
<path d="M210.973 130.918C206.744 136.043 202.515 141.168 202.515 152.272C202.515 173.626 219.43 173.626 219.43 194.98C219.43 217.189 202.515 215.48 202.515 237.689C202.515 259.043 219.43 259.043 219.43 280.397C219.43 291.501 215.201 296.626 210.973 301.751" stroke="#0F6062" stroke-width="1.5" stroke-linecap="round" stroke-linejoin="round" stroke-dasharray="3 3"/>
<path d="M222.152 -40.082C217.924 -34.957 213.695 -29.832 213.695 -18.7279C213.695 2.6263 230.609 2.6263 230.609 23.9805C230.609 46.1888 213.695 44.4805 213.695 66.6888C213.695 88.043 230.609 88.043 230.609 109.397C230.609 120.501 226.381 125.626 222.152 130.751" stroke="#0F6062" stroke-width="1.5" stroke-linecap="round" stroke-linejoin="round" stroke-dasharray="3 3"/>
<path d="M222.152 130.918C217.924 136.043 213.695 141.168 213.695 152.272C213.695 173.626 230.609 173.626 230.609 194.98C230.609 217.189 213.695 215.48 213.695 237.689C213.695 259.043 230.609 259.043 230.609 280.397C230.609 291.501 226.381 296.626 222.152 301.751" stroke="#0F6062" stroke-width="1.5" stroke-linecap="round" stroke-linejoin="round" stroke-dasharray="3 3"/>
<path d="M233.332 -40.082C229.103 -34.957 224.875 -29.832 224.875 -18.7279C224.875 2.6263 241.789 2.6263 241.789 23.9805C241.789 46.1888 224.875 44.4805 224.875 66.6888C224.875 88.043 241.789 88.043 241.789 109.397C241.789 120.501 237.561 125.626 233.332 130.751" stroke="#0F6062" stroke-width="1.5" stroke-linecap="round" stroke-linejoin="round" stroke-dasharray="3 3"/>
<path d="M233.332 130.918C229.103 136.043 224.875 141.168 224.875 152.272C224.875 173.626 241.789 173.626 241.789 194.98C241.789 217.189 224.875 215.48 224.875 237.689C224.875 259.043 241.789 259.043 241.789 280.397C241.789 291.501 237.561 296.626 233.332 301.751" stroke="#0F6062" stroke-width="1.5" stroke-linecap="round" stroke-linejoin="round" stroke-dasharray="3 3"/>
<path d="M244.512 -40.082C240.283 -34.957 236.055 -29.832 236.055 -18.7279C236.055 2.6263 252.969 2.6263 252.969 23.9805C252.969 46.1888 236.055 44.4805 236.055 66.6888C236.055 88.043 252.969 88.043 252.969 109.397C252.969 120.501 248.74 125.626 244.512 130.751" stroke="#0F6062" stroke-width="1.5" stroke-linecap="round" stroke-linejoin="round" stroke-dasharray="3 3"/>
<path d="M244.512 130.918C240.283 136.043 236.055 141.168 236.055 152.272C236.055 173.626 252.969 173.626 252.969 194.98C252.969 217.189 236.055 215.48 236.055 237.689C236.055 259.043 252.969 259.043 252.969 280.397C252.969 291.501 248.74 296.626 244.512 301.751" stroke="#0F6062" stroke-width="1.5" stroke-linecap="round" stroke-linejoin="round" stroke-dasharray="3 3"/>
<path d="M255.691 -40.082C251.463 -34.957 247.234 -29.832 247.234 -18.7279C247.234 2.6263 264.148 2.6263 264.148 23.9805C264.148 46.1888 247.234 44.4805 247.234 66.6888C247.234 88.043 264.148 88.043 264.148 109.397C264.148 120.501 259.92 125.626 255.691 130.751" stroke="#0F6062" stroke-width="1.5" stroke-linecap="round" stroke-linejoin="round" stroke-dasharray="3 3"/>
<path d="M255.691 130.918C251.463 136.043 247.234 141.168 247.234 152.272C247.234 173.626 264.148 173.626 264.148 194.98C264.148 217.189 247.234 215.48 247.234 237.689C247.234 259.043 264.148 259.043 264.148 280.397C264.148 291.501 259.92 296.626 255.691 301.751" stroke="#0F6062" stroke-width="1.5" stroke-linecap="round" stroke-linejoin="round" stroke-dasharray="3 3"/>
<path d="M266.867 -40.082C262.639 -34.957 258.41 -29.832 258.41 -18.7279C258.41 2.6263 275.324 2.6263 275.324 23.9805C275.324 46.1888 258.41 44.4805 258.41 66.6888C258.41 88.043 275.324 88.043 275.324 109.397C275.324 120.501 271.096 125.626 266.867 130.751" stroke="#0F6062" stroke-width="1.5" stroke-linecap="round" stroke-linejoin="round" stroke-dasharray="3 3"/>
<path d="M266.867 130.918C262.639 136.043 258.41 141.168 258.41 152.272C258.41 173.626 275.324 173.626 275.324 194.98C275.324 217.189 258.41 215.48 258.41 237.689C258.41 259.043 275.324 259.043 275.324 280.397C275.324 291.501 271.096 296.626 266.867 301.751" stroke="#0F6062" stroke-width="1.5" stroke-linecap="round" stroke-linejoin="round" stroke-dasharray="3 3"/>
<path d="M278.047 -40.082C273.818 -34.957 269.59 -29.832 269.59 -18.7279C269.59 2.6263 286.504 2.6263 286.504 23.9805C286.504 46.1888 269.59 44.4805 269.59 66.6888C269.59 88.043 286.504 88.043 286.504 109.397C286.504 120.501 282.275 125.626 278.047 130.751" stroke="#0F6062" stroke-width="1.5" stroke-linecap="round" stroke-linejoin="round" stroke-dasharray="3 3"/>
<path d="M278.047 130.918C273.818 136.043 269.59 141.168 269.59 152.272C269.59 173.626 286.504 173.626 286.504 194.98C286.504 217.189 269.59 215.48 269.59 237.689C269.59 259.043 286.504 259.043 286.504 280.397C286.504 291.501 282.275 296.626 278.047 301.751" stroke="#0F6062" stroke-width="1.5" stroke-linecap="round" stroke-linejoin="round" stroke-dasharray="3 3"/>
<path d="M289.226 -40.082C284.998 -34.957 280.769 -29.832 280.769 -18.7279C280.769 2.6263 297.684 2.6263 297.684 23.9805C297.684 46.1888 280.769 44.4805 280.769 66.6888C280.769 88.043 297.684 88.043 297.684 109.397C297.684 120.501 293.455 125.626 289.226 130.751" stroke="#0F6062" stroke-width="1.5" stroke-linecap="round" stroke-linejoin="round" stroke-dasharray="3 3"/>
<path d="M289.226 130.918C284.998 136.043 280.769 141.168 280.769 152.272C280.769 173.626 297.684 173.626 297.684 194.98C297.684 217.189 280.769 215.48 280.769 237.689C280.769 259.043 297.684 259.043 297.684 280.397C297.684 291.501 293.455 296.626 289.226 301.751" stroke="#0F6062" stroke-width="1.5" stroke-linecap="round" stroke-linejoin="round" stroke-dasharray="3 3"/>
</g>
</svg>
