<svg width="284" height="209" viewBox="0 0 284 209" fill="none" xmlns="http://www.w3.org/2000/svg">
<mask id="mask0_1645_27530" style="mask-type:alpha" maskUnits="userSpaceOnUse" x="0" y="0" width="284" height="209">
<path d="M0.8 208.2H283.2V0.800003H0.8V208.2Z" fill="white" stroke="#0F6062" stroke-width="1.6"/>
</mask>
<g mask="url(#mask0_1645_27530)">
<line x1="39.8" y1="-75" x2="39.8" y2="252.932" stroke="#0F6062" stroke-width="1.6" stroke-dasharray="1.64 1.64"/>
<line x1="116.8" y1="-74" x2="116.8" y2="253.932" stroke="#0F6062" stroke-width="1.6" stroke-dasharray="1.64 1.64"/>
<line x1="127.8" y1="-73" x2="127.8" y2="254.932" stroke="#0F6062" stroke-width="1.6" stroke-dasharray="1.64 1.64"/>
<line x1="61.8" y1="-73" x2="61.8" y2="254.932" stroke="#0F6062" stroke-width="1.6" stroke-dasharray="1.64 1.64"/>
<line x1="6.8" y1="-63.9316" x2="6.8" y2="264" stroke="#0F6062" stroke-width="1.6" stroke-dasharray="1.64 1.64"/>
<line x1="17.8" y1="-62.9316" x2="17.8" y2="265" stroke="#0F6062" stroke-width="1.6" stroke-dasharray="1.64 1.64"/>
<line x1="28.8" y1="-63.9316" x2="28.8" y2="264" stroke="#0F6062" stroke-width="1.6" stroke-dasharray="1.64 1.64"/>
<line x1="83.8" y1="-62.9316" x2="83.8" y2="265" stroke="#0F6062" stroke-width="1.6" stroke-dasharray="1.64 1.64"/>
<line x1="94.8" y1="-63.9316" x2="94.8" y2="264" stroke="#0F6062" stroke-width="1.6" stroke-dasharray="1.64 1.64"/>
<line x1="105.8" y1="-64.9316" x2="105.8" y2="263" stroke="#0F6062" stroke-width="1.6" stroke-dasharray="1.64 1.64"/>
<line x1="138.8" y1="-63.9316" x2="138.8" y2="264" stroke="#0F6062" stroke-width="1.6" stroke-dasharray="1.64 1.64"/>
<line x1="149.8" y1="-64.9316" x2="149.8" y2="263" stroke="#0F6062" stroke-width="1.6" stroke-dasharray="1.64 1.64"/>
<line x1="160.8" y1="-63.9316" x2="160.8" y2="264" stroke="#0F6062" stroke-width="1.6" stroke-dasharray="1.64 1.64"/>
<line x1="171.8" y1="-62.9316" x2="171.8" y2="265" stroke="#0F6062" stroke-width="1.6" stroke-dasharray="1.64 1.64"/>
<line x1="182.8" y1="-63.9316" x2="182.8" y2="264" stroke="#0F6062" stroke-width="1.6" stroke-dasharray="1.64 1.64"/>
<line x1="193.8" y1="-64.9316" x2="193.8" y2="263" stroke="#0F6062" stroke-width="1.6" stroke-dasharray="1.64 1.64"/>
<line x1="204.8" y1="-65.3701" x2="204.8" y2="262.562" stroke="#0F6062" stroke-width="1.6" stroke-dasharray="1.64 1.64"/>
<line x1="215.8" y1="-64.3711" x2="215.8" y2="263.561" stroke="#0F6062" stroke-width="1.6" stroke-dasharray="1.64 1.64"/>
<line x1="226.8" y1="-66.8086" x2="226.8" y2="261.123" stroke="#0F6062" stroke-width="1.6" stroke-dasharray="1.64 1.64"/>
<line x1="237.8" y1="-66.3711" x2="237.8" y2="261.561" stroke="#0F6062" stroke-width="1.6" stroke-dasharray="1.64 1.64"/>
<line x1="248.8" y1="-63.9316" x2="248.8" y2="264" stroke="#0F6062" stroke-width="1.6" stroke-dasharray="1.64 1.64"/>
<line x1="259.8" y1="-65.3701" x2="259.8" y2="262.562" stroke="#0F6062" stroke-width="1.6" stroke-dasharray="1.64 1.64"/>
<line x1="270.8" y1="-66.8086" x2="270.8" y2="261.123" stroke="#0F6062" stroke-width="1.6" stroke-dasharray="1.64 1.64"/>
<line x1="281.8" y1="-65.3701" x2="281.8" y2="262.562" stroke="#0F6062" stroke-width="1.6" stroke-dasharray="1.64 1.64"/>
<line x1="50.8" y1="-63.9316" x2="50.8" y2="264" stroke="#0F6062" stroke-width="1.6" stroke-dasharray="1.64 1.64"/>
<line x1="72.8" y1="-63.9316" x2="72.8" y2="264" stroke="#0F6062" stroke-width="1.6" stroke-dasharray="1.64 1.64"/>
</g>
</svg>
