<svg width="284" height="209" viewBox="0 0 284 209" fill="none" xmlns="http://www.w3.org/2000/svg">
<mask id="mask0_1813_36286" style="mask-type:alpha" maskUnits="userSpaceOnUse" x="0" y="0" width="284" height="209">
<path d="M0 209H284V0H0V209Z" fill="white"/>
</mask>
<g mask="url(#mask0_1813_36286)">
<line y1="-0.8" x2="472.1" y2="-0.8" transform="matrix(0 -1 -1 0 24.582 314.646)" stroke="#0F6062" stroke-width="1.6" stroke-dasharray="2.07 2.07"/>
<line y1="-0.8" x2="472.1" y2="-0.8" transform="matrix(0 -1 -1 0 30.582 315.645)" stroke="#0F6062" stroke-width="1.6" stroke-dasharray="2.07 2.07"/>
<line y1="-0.8" x2="472.1" y2="-0.8" transform="matrix(0 -1 -1 0 36.582 314.646)" stroke="#0F6062" stroke-width="1.6" stroke-dasharray="2.07 2.07"/>
<line y1="-0.8" x2="472.1" y2="-0.8" transform="matrix(0 -1 -1 0 42.582 308.435)" stroke="#0F6062" stroke-width="1.6" stroke-dasharray="2.07 2.07"/>
<line y1="-0.8" x2="472.1" y2="-0.8" transform="matrix(0 -1 -1 0 48.582 312.574)" stroke="#0F6062" stroke-width="1.6" stroke-dasharray="2.07 2.07"/>
<line y1="-0.8" x2="472.1" y2="-0.8" transform="matrix(0 -1 -1 0 54.582 314.646)" stroke="#0F6062" stroke-width="1.6" stroke-dasharray="2.07 2.07"/>
<line y1="-0.8" x2="472.1" y2="-0.8" transform="matrix(0 -1 -1 0 60.582 312.574)" stroke="#0F6062" stroke-width="1.6" stroke-dasharray="2.07 2.07"/>
<line y1="-0.8" x2="472.1" y2="-0.8" transform="matrix(0 -1 -1 0 66.582 310.506)" stroke="#0F6062" stroke-width="1.6" stroke-dasharray="2.07 2.07"/>
<line y1="-0.8" x2="472.1" y2="-0.8" transform="matrix(0 -1 -1 0 72.582 314.646)" stroke="#0F6062" stroke-width="1.6" stroke-dasharray="2.07 2.07"/>
<line y1="-0.8" x2="472.1" y2="-0.8" transform="matrix(0 -1 -1 0 78.582 308.435)" stroke="#0F6062" stroke-width="1.6" stroke-dasharray="2.07 2.07"/>
<line y1="-0.8" x2="472.1" y2="-0.8" transform="matrix(0 -1 -1 0 84.582 318.788)" stroke="#0F6062" stroke-width="1.6" stroke-dasharray="2.07 2.07"/>
<line y1="-0.8" x2="472.1" y2="-0.8" transform="matrix(0 -1 -1 0 90.582 308.435)" stroke="#0F6062" stroke-width="1.6" stroke-dasharray="2.07 2.07"/>
<line y1="-0.8" x2="472.1" y2="-0.8" transform="matrix(0 -1 -1 0 96.582 308.435)" stroke="#0F6062" stroke-width="1.6" stroke-dasharray="2.07 2.07"/>
<line y1="-0.8" x2="472.1" y2="-0.8" transform="matrix(0 -1 -1 0 102.582 314.646)" stroke="#0F6062" stroke-width="1.6" stroke-dasharray="2.07 2.07"/>
<line y1="-0.8" x2="472.1" y2="-0.8" transform="matrix(0 -1 -1 0 108.582 316.718)" stroke="#0F6062" stroke-width="1.6" stroke-dasharray="2.07 2.07"/>
<line y1="-0.8" x2="472.1" y2="-0.8" transform="matrix(0 -1 -1 0 114.582 314.646)" stroke="#0F6062" stroke-width="1.6" stroke-dasharray="2.07 2.07"/>
<line y1="-0.8" x2="472.1" y2="-0.8" transform="matrix(0 -1 -1 0 120.582 308.435)" stroke="#0F6062" stroke-width="1.6" stroke-dasharray="2.07 2.07"/>
<line y1="-0.8" x2="472.1" y2="-0.8" transform="matrix(0 -1 -1 0 126.582 314.646)" stroke="#0F6062" stroke-width="1.6" stroke-dasharray="2.07 2.07"/>
<line y1="-0.8" x2="472.1" y2="-0.8" transform="matrix(0 -1 -1 0 132.582 308.435)" stroke="#0F6062" stroke-width="1.6" stroke-dasharray="2.07 2.07"/>
<line y1="-0.8" x2="472.1" y2="-0.8" transform="matrix(0 -1 -1 0 138.582 314.646)" stroke="#0F6062" stroke-width="1.6" stroke-dasharray="2.07 2.07"/>
<line y1="-0.8" x2="472.1" y2="-0.8" transform="matrix(0 -1 -1 0 144.582 308.435)" stroke="#0F6062" stroke-width="1.6" stroke-dasharray="2.07 2.07"/>
<line y1="-0.8" x2="472.1" y2="-0.8" transform="matrix(0 -1 -1 0 150.582 314.646)" stroke="#0F6062" stroke-width="1.6" stroke-dasharray="2.07 2.07"/>
<line y1="-0.8" x2="472.1" y2="-0.8" transform="matrix(0 -1 -1 0 156.582 308.435)" stroke="#0F6062" stroke-width="1.6" stroke-dasharray="2.07 2.07"/>
<line y1="-0.8" x2="472.1" y2="-0.8" transform="matrix(0 -1 -1 0 162.582 314.646)" stroke="#0F6062" stroke-width="1.6" stroke-dasharray="2.07 2.07"/>
<line y1="-0.8" x2="472.1" y2="-0.8" transform="matrix(0 -1 -1 0 168.582 308.435)" stroke="#0F6062" stroke-width="1.6" stroke-dasharray="2.07 2.07"/>
<line y1="-0.8" x2="472.1" y2="-0.8" transform="matrix(0 -1 -1 0 174.582 318.788)" stroke="#0F6062" stroke-width="1.6" stroke-dasharray="2.07 2.07"/>
<line y1="-0.8" x2="472.1" y2="-0.8" transform="matrix(0 -1 -1 0 186.582 314.646)" stroke="#0F6062" stroke-width="1.6" stroke-dasharray="2.07 2.07"/>
<line y1="-0.8" x2="472.1" y2="-0.8" transform="matrix(0 -1 -1 0 192.582 308.435)" stroke="#0F6062" stroke-width="1.6" stroke-dasharray="2.07 2.07"/>
<line y1="-0.8" x2="472.1" y2="-0.8" transform="matrix(0 -1 -1 0 198.582 302.223)" stroke="#0F6062" stroke-width="1.6" stroke-dasharray="2.07 2.07"/>
<line y1="-0.8" x2="472.1" y2="-0.8" transform="matrix(0 -1 -1 0 204.582 300.152)" stroke="#0F6062" stroke-width="1.6" stroke-dasharray="2.07 2.07"/>
<line y1="-0.8" x2="472.1" y2="-0.8" transform="matrix(0 -1 -1 0 210.582 302.223)" stroke="#0F6062" stroke-width="1.6" stroke-dasharray="2.07 2.07"/>
<line y1="-0.8" x2="472.1" y2="-0.8" transform="matrix(0 -1 -1 0 216.582 300.152)" stroke="#0F6062" stroke-width="1.6" stroke-dasharray="2.07 2.07"/>
<line y1="-0.8" x2="472.1" y2="-0.8" transform="matrix(0 -1 -1 0 222.582 302.223)" stroke="#0F6062" stroke-width="1.6" stroke-dasharray="2.07 2.07"/>
<line y1="-0.8" x2="472.1" y2="-0.8" transform="matrix(0 -1 -1 0 228.582 304.294)" stroke="#0F6062" stroke-width="1.6" stroke-dasharray="2.07 2.07"/>
<line y1="-0.8" x2="472.1" y2="-0.8" transform="matrix(0 -1 -1 0 234.582 302.223)" stroke="#0F6062" stroke-width="1.6" stroke-dasharray="2.07 2.07"/>
<line y1="-0.8" x2="472.1" y2="-0.8" transform="matrix(0 -1 -1 0 240.582 304.294)" stroke="#0F6062" stroke-width="1.6" stroke-dasharray="2.07 2.07"/>
<line y1="-0.8" x2="472.1" y2="-0.8" transform="matrix(0 -1 -1 0 246.582 302.223)" stroke="#0F6062" stroke-width="1.6" stroke-dasharray="2.07 2.07"/>
<line y1="-0.8" x2="472.1" y2="-0.8" transform="matrix(0 -1 -1 0 252.582 304.294)" stroke="#0F6062" stroke-width="1.6" stroke-dasharray="2.07 2.07"/>
<line y1="-0.8" x2="472.1" y2="-0.8" transform="matrix(0 -1 -1 0 258.582 302.223)" stroke="#0F6062" stroke-width="1.6" stroke-dasharray="2.07 2.07"/>
<line y1="-0.8" x2="472.1" y2="-0.8" transform="matrix(0 -1 -1 0 264.582 304.294)" stroke="#0F6062" stroke-width="1.6" stroke-dasharray="2.07 2.07"/>
<line y1="-0.8" x2="472.1" y2="-0.8" transform="matrix(0 -1 -1 0 270.582 302.223)" stroke="#0F6062" stroke-width="1.6" stroke-dasharray="2.07 2.07"/>
<line y1="-0.8" x2="472.1" y2="-0.8" transform="matrix(0 -1 -1 0 276.582 304.294)" stroke="#0F6062" stroke-width="1.6" stroke-dasharray="2.07 2.07"/>
<line y1="-0.8" x2="472.1" y2="-0.8" transform="matrix(0 -1 -1 0 282.582 305.294)" stroke="#0F6062" stroke-width="1.6" stroke-dasharray="2.07 2.07"/>
<line y1="-0.8" x2="472.1" y2="-0.8" transform="matrix(0 -1 -1 0 180.582 312.574)" stroke="#0F6062" stroke-width="1.6" stroke-dasharray="2.07 2.07"/>
<line y1="-0.8" x2="472.1" y2="-0.8" transform="matrix(0 -1 -1 0 0.582031 314.646)" stroke="#0F6062" stroke-width="1.6" stroke-dasharray="2.07 2.07"/>
<line y1="-0.8" x2="472.1" y2="-0.8" transform="matrix(0 -1 -1 0 6.58203 301.152)" stroke="#0F6062" stroke-width="1.6" stroke-dasharray="2.07 2.07"/>
<line y1="-0.8" x2="472.1" y2="-0.8" transform="matrix(0 -1 -1 0 12.582 300.152)" stroke="#0F6062" stroke-width="1.6" stroke-dasharray="2.07 2.07"/>
<line y1="-0.8" x2="472.1" y2="-0.8" transform="matrix(0 -1 -1 0 18.582 299.152)" stroke="#0F6062" stroke-width="1.6" stroke-dasharray="2.07 2.07"/>
</g>
</svg>
