<svg width="58" height="58" viewBox="0 0 58 58" fill="none" xmlns="http://www.w3.org/2000/svg">
<path d="M9.43856 20.7762C9.06539 20.7093 8.6934 20.7903 8.39022 21.0045C8.08727 21.2189 7.88954 21.5421 7.8339 21.9123L7.3007 25.441C7.2446 25.8124 7.33898 26.1772 7.56516 26.4693C7.79179 26.762 8.1234 26.9448 8.49885 26.9877L29.3227 28.5587L29.826 25.2302L9.43856 20.7762Z" fill="#0F6062"/>
<path d="M39.5141 39.8548L39.9815 36.7584C39.9852 36.7286 39.9801 36.6997 39.965 36.6739C39.9556 36.658 39.0163 35.0511 39.2225 33.6853C39.428 32.3248 41.0439 31.0947 41.0603 31.0826C41.0798 31.0683 41.0941 31.0489 41.1027 31.0271C41.4735 30.0702 41.7435 29.0396 41.9063 27.9619C42.4372 24.4535 41.199 16.3765 34.731 13.3366C34.4226 13.1918 34.2058 13.1563 34.0698 13.2284C33.871 13.3345 33.8943 13.6173 34.1991 14.0236C36.0966 16.5469 37.0979 19.6674 36.7498 21.9742C36.7006 22.3001 36.624 22.6012 36.5233 22.8689C35.8298 24.705 33.8908 25.6528 31.3498 25.4628L30.8479 28.7861C32.4416 29.1668 33.892 30.0042 34.7067 31.0545C35.2226 31.7212 35.4417 32.434 35.3387 33.1161C35.132 34.4831 33.7585 35.7509 33.7442 35.7633C33.7226 35.7829 33.7088 35.8098 33.7045 35.8387L33.2378 38.9374C33.1843 39.2846 33.4267 39.6091 33.7766 39.66L38.784 40.3918C39.1344 40.4433 39.4617 40.2035 39.5141 39.8548Z" fill="#0F6062"/>
<rect x="52.4419" y="47.9761" width="4.46509" height="47.8837" transform="rotate(90 52.4419 47.9761)" stroke="#0F6062" stroke-width="1.11627"/>
</svg>
