<svg width="47" height="47" viewBox="0 0 47 47" fill="none" xmlns="http://www.w3.org/2000/svg">
<circle cx="23.5" cy="23.5" r="23" stroke="#0F6062"/>
<g clip-path="url(#clip0_1645_27665)">
<path d="M22.5828 12.8408C22.5828 12.8408 14.8828 21.3996 14.8828 27.4552C14.8828 32.2325 17.858 35.2408 22.5828 35.2408C27.3076 35.2408 30.2828 32.2325 30.2828 27.4552C30.2828 21.3996 22.5828 12.8408 22.5828 12.8408ZM23.4384 32.4293V31.1317C24.289 31.1307 25.1044 30.7886 25.7059 30.1805C26.3074 29.5723 26.6457 28.7478 26.6467 27.8877H27.93C27.9288 29.0918 27.4551 30.2463 26.613 31.0977C25.771 31.9491 24.6292 32.428 23.4384 32.4293Z" fill="#0F6062"/>
</g>
<defs>
<clipPath id="clip0_1645_27665">
<rect width="21" height="22.4" fill="white" transform="translate(12 12.7998)"/>
</clipPath>
</defs>
</svg>
