<svg width="58" height="58" viewBox="0 0 58 58" fill="none" xmlns="http://www.w3.org/2000/svg">
<path d="M38.5 51C43.1943 51 47 47.06 47 42.2C47 39.8537 46.113 37.7221 44.6674 36.1445C43.5906 34.9695 43.0524 34.3819 42.9011 33.9894C42.75 33.5969 42.75 33.0777 42.75 32.0393V11.4C42.75 8.96995 40.8471 7 38.5 7C36.1527 7 34.25 8.96995 34.25 11.4V32.0393C34.25 33.0777 34.25 33.5969 34.0987 33.9894C33.9474 34.3819 33.4091 34.9695 32.3324 36.1445C30.8868 37.7221 30 39.8537 30 42.2C30 47.06 33.8054 51 38.5 51Z" fill="#0F6062"/>
<path d="M13.4673 25.0951C11.5173 27.9507 10.0236 31.1979 10.0236 34.4451C9.69253 39.0456 12.7152 47.9796 27.4543 46.9118C25.8166 43.6017 24.9977 37.1045 32.3673 30.2282C32.3673 29.6142 31.4523 27.6743 30.1485 26.6535C23.1822 21.1993 22.4081 15.7451 22.4081 15.7451C22.4081 15.7451 15.2221 22.7576 19.312 31.3285C15.5966 31.9518 13.8675 27.4326 13.4673 25.0951Z" stroke="#0F6062" stroke-linecap="round" stroke-linejoin="round"/>
<path d="M40.5581 42.5003C40.5581 43.6364 39.6368 44.5577 38.5 44.5577C37.3632 44.5577 36.4419 43.6364 36.4419 42.5003C36.4419 41.3641 37.3632 40.4428 38.5 40.4428C39.6368 40.4428 40.5581 41.3641 40.5581 42.5003Z" fill="white" stroke="white" stroke-width="0.883738"/>
<path d="M39 18C39 17.7239 38.7761 17.5 38.5 17.5C38.2239 17.5 38 17.7239 38 18H39ZM39 41V18H38V41H39Z" fill="white"/>
</svg>
