<svg width="58" height="58" viewBox="0 0 58 58" fill="none" xmlns="http://www.w3.org/2000/svg">
<path d="M13.1799 26.6289L3.78183 33.2732C3.40583 33.539 3.41478 34.0998 3.79906 34.3535L28.6613 50.767C28.8766 50.9091 29.1554 50.9115 29.3731 50.7729L55.171 34.3536C55.5651 34.1027 55.5769 33.5315 55.1934 33.2646L45.6585 26.6289" stroke="#0F6062"/>
<path d="M53.4146 35.0264L55.1934 36.2643C55.5769 36.5312 55.5651 37.1024 55.171 37.3533L29.3731 53.7726C29.1554 53.9112 28.8766 53.9088 28.6613 53.7667L3.79906 37.3531C3.41478 37.0994 3.40583 36.5387 3.78183 36.2729L5.54497 35.0264" stroke="#0F6062"/>
<path d="M36.1228 21.0664L37.4048 25.33L41.6167 26.6277L37.4048 27.9255L36.1228 32.1891L34.8408 27.9255L30.6289 26.6277L34.8408 25.33L36.1228 21.0664Z" fill="#0F6062"/>
<path d="M34.8286 10.9258L35.3565 12.6814L37.0908 13.2157L35.3565 13.7501L34.8286 15.5057L34.3007 13.7501L32.5664 13.2157L34.3007 12.6814L34.8286 10.9258Z" fill="#0F6062"/>
<path d="M20.9341 29.8994L21.4619 31.655L23.1963 32.1894L21.4619 32.7237L20.9341 34.4793L20.4062 32.7237L18.6719 32.1894L20.4062 31.655L20.9341 29.8994Z" fill="#0F6062"/>
<path d="M17.2207 7L17.7862 8.88101L19.6444 9.45353L17.7862 10.0261L17.2207 11.9071L16.6551 10.0261L14.7969 9.45353L16.6551 8.88101L17.2207 7Z" fill="#0F6062"/>
<path d="M23.5 9L24.8824 16.1176L32 17.5L24.8824 18.8824L23.5 26L22.1176 18.8824L15 17.5L22.1176 16.1176L23.5 9Z" fill="#0F6062"/>
</svg>
