<svg width="58" height="58" viewBox="0 0 58 58" fill="none" xmlns="http://www.w3.org/2000/svg">
<circle cx="29.5" cy="28.5" r="23" stroke="#0F6062"/>
<path fill-rule="evenodd" clip-rule="evenodd" d="M30.1823 15.7484C29.9858 14.1432 27.6385 14.2036 27.5247 15.8167L27.2694 19.4376C27.1888 20.5793 25.8032 21.0973 24.9935 20.2883L24.3616 19.6571C23.3053 18.6018 21.5771 19.8117 22.2072 21.1653L22.3845 21.5462C22.8885 22.6291 21.8261 23.7784 20.707 23.3609L17.6401 22.2165C16.1289 21.6526 15.0989 23.7538 16.4702 24.6029L19.8511 26.6965C20.7878 27.2765 20.6588 28.6773 19.632 29.0765L18.6697 29.4506C17.2925 29.986 17.6759 32.0306 19.1536 32.0306H19.3449C20.5508 32.0306 21.139 33.5025 20.2652 34.3336L17.9412 36.544C16.7705 37.6574 18.2145 39.5053 19.5779 38.6385L22.8647 36.5489C23.8181 35.9428 25.0466 36.7207 24.9062 37.8418L24.7645 38.9731C24.5768 40.4721 26.6314 41.0812 27.2909 39.7221L27.6699 38.9411C28.1821 37.8857 29.7086 37.9562 30.1213 39.0542L31.247 42.049C31.8137 43.5567 34.0711 42.9574 33.8154 41.3671L33.2297 37.7248C33.0533 36.6273 34.2167 35.8072 35.191 36.3423L35.4969 36.5103C36.75 37.1985 38.0621 35.7026 37.2165 34.5499L37.0202 34.2824C36.3563 33.3776 37.037 32.1071 38.1581 32.1585L42.327 32.3497C43.946 32.424 44.2739 30.0917 42.6972 29.7166L39.044 28.8476C37.8893 28.573 37.64 27.0412 38.6479 26.4145L40.4144 25.3161C41.7491 24.4862 40.8032 22.4337 39.3052 22.9093L37.1707 23.5869C36.066 23.9376 35.0697 22.8111 35.5528 21.7576L35.7476 21.3326C36.3638 19.9888 34.6634 18.7881 33.6032 19.8183L32.9204 20.4817C32.1287 21.251 30.7985 20.782 30.6643 19.6863L30.1823 15.7484ZM31.5002 26.9997C32.3286 26.9997 33.0002 26.3281 33.0002 25.4997C33.0002 24.6713 32.3286 23.9997 31.5002 23.9997C30.6718 23.9997 30.0002 24.6713 30.0002 25.4997C30.0002 26.3281 30.6718 26.9997 31.5002 26.9997ZM28.4056 32.5441C28.4056 33.5217 27.6206 34.3141 26.6521 34.3141C25.6837 34.3141 24.8986 33.5217 24.8986 32.5441C24.8986 31.5666 25.6837 30.7741 26.6521 30.7741C27.6206 30.7741 28.4056 31.5666 28.4056 32.5441ZM26.5182 28.0409C26.8031 28.0409 27.034 27.8078 27.034 27.5203C27.034 27.2328 26.8031 26.9997 26.5182 26.9997C26.2334 26.9997 26.0025 27.2328 26.0025 27.5203C26.0025 27.8078 26.2334 28.0409 26.5182 28.0409ZM32.3249 34.834C32.3249 35.2365 32.0017 35.5628 31.6029 35.5628C31.2042 35.5628 30.8809 35.2365 30.8809 34.834C30.8809 34.4315 31.2042 34.1052 31.6029 34.1052C32.0017 34.1052 32.3249 34.4315 32.3249 34.834ZM35.1104 29.9398C35.5092 29.9398 35.8325 29.6135 35.8325 29.211C35.8325 28.8084 35.5092 28.4821 35.1104 28.4821C34.7117 28.4821 34.3884 28.8084 34.3884 29.211C34.3884 29.6135 34.7117 29.9398 35.1104 29.9398Z" fill="#0F6062"/>
<line x1="13.3536" y1="11.6464" x2="46.3536" y2="44.6464" stroke="#0F6062"/>
</svg>
