<svg width="58" height="58" viewBox="0 0 58 58" fill="none" xmlns="http://www.w3.org/2000/svg">
<path d="M12 36.6213C12 23.1045 29.2297 4 29.2297 4C29.2297 4 32.1532 23.7394 32 34.5C31.8746 43.3131 29.2297 54 29.2297 54C18.6574 54 12 47.2851 12 36.6213Z" fill="#0F6062"/>
<path d="M28.986 4.32617C28.986 4.32617 46.7969 23.1049 46.7969 36.6217C46.7969 47.2855 39.5724 53.4999 29 53.4999" stroke="#0F6062"/>
<path d="M29.7953 4.32617C29.7953 4.32617 11.9844 23.1049 11.9844 36.6217C11.9844 47.2855 19.2089 53.4999 29.7812 53.4999" stroke="#0F6062"/>
<path d="M27.0972 39.9998L35.4772 25.9998H36.3372L27.9572 39.9998H27.0972ZM27.8772 32.1198C27.2772 32.1198 26.7305 31.9931 26.2372 31.7398C25.7439 31.4864 25.3505 31.1198 25.0572 30.6398C24.7639 30.1598 24.6172 29.5931 24.6172 28.9398C24.6172 28.2864 24.7639 27.7198 25.0572 27.2398C25.3505 26.7598 25.7439 26.3931 26.2372 26.1398C26.7305 25.8864 27.2772 25.7598 27.8772 25.7598C28.4639 25.7598 29.0039 25.8864 29.4972 26.1398C29.9905 26.3931 30.3839 26.7598 30.6772 27.2398C30.9705 27.7198 31.1172 28.2864 31.1172 28.9398C31.1172 29.5931 30.9705 30.1598 30.6772 30.6398C30.3839 31.1198 29.9905 31.4864 29.4972 31.7398C29.0039 31.9931 28.4639 32.1198 27.8772 32.1198ZM35.5772 40.2398C34.9905 40.2398 34.4439 40.1131 33.9372 39.8598C33.4439 39.6064 33.0505 39.2398 32.7572 38.7598C32.4639 38.2798 32.3172 37.7131 32.3172 37.0598C32.3172 36.4064 32.4639 35.8398 32.7572 35.3598C33.0505 34.8798 33.4439 34.5131 33.9372 34.2598C34.4439 34.0064 34.9905 33.8798 35.5772 33.8798C36.1639 33.8798 36.7039 34.0064 37.1972 34.2598C37.6905 34.5131 38.0839 34.8798 38.3772 35.3598C38.6705 35.8398 38.8172 36.4064 38.8172 37.0598C38.8172 37.7131 38.6705 38.2798 38.3772 38.7598C38.0839 39.2398 37.6905 39.6064 37.1972 39.8598C36.7039 40.1131 36.1639 40.2398 35.5772 40.2398ZM35.5772 39.8998C36.0439 39.8998 36.4305 39.6531 36.7372 39.1598C37.0572 38.6531 37.2172 37.9531 37.2172 37.0598C37.2172 36.1664 37.0572 35.4731 36.7372 34.9798C36.4305 34.4731 36.0439 34.2198 35.5772 34.2198C35.0972 34.2198 34.6972 34.4664 34.3772 34.9598C34.0705 35.4531 33.9172 36.1531 33.9172 37.0598C33.9172 37.9664 34.0705 38.6664 34.3772 39.1598C34.6972 39.6531 35.0972 39.8998 35.5772 39.8998ZM27.8772 31.7798C28.3439 31.7798 28.7305 31.5331 29.0372 31.0398C29.3572 30.5331 29.5172 29.8331 29.5172 28.9398C29.5172 28.0064 29.3572 27.2998 29.0372 26.8198C28.7305 26.3398 28.3439 26.0998 27.8772 26.0998C27.3972 26.0998 26.9972 26.3464 26.6772 26.8398C26.3705 27.3331 26.2172 28.0331 26.2172 28.9398C26.2172 29.8464 26.3705 30.5464 26.6772 31.0398C26.9972 31.5331 27.3972 31.7798 27.8772 31.7798Z" fill="#0F6062"/>
<path d="M27.0972 39.9998L31.9785 31.8516L31.9995 33.2608L27.9572 39.9998H27.0972ZM27.8772 32.1198C27.2772 32.1198 26.7305 31.9931 26.2372 31.7398C25.7439 31.4864 25.3505 31.1198 25.0572 30.6398C24.7639 30.1598 24.6172 29.5931 24.6172 28.9398C24.6172 28.2864 24.7639 27.7198 25.0572 27.2398C25.3505 26.7598 25.7439 26.3931 26.2372 26.1398C26.7305 25.8864 27.2772 25.7598 27.8772 25.7598C28.4639 25.7598 29.0039 25.8864 29.4972 26.1398C29.9905 26.3931 30.3839 26.7598 30.6772 27.2398C30.9705 27.7198 31.1172 28.2864 31.1172 28.9398C31.1172 29.5931 30.9705 30.1598 30.6772 30.6398C30.3839 31.1198 29.9905 31.4864 29.4972 31.7398C29.0039 31.9931 28.4639 32.1198 27.8772 32.1198ZM27.8772 31.7798C28.3439 31.7798 28.7305 31.5331 29.0372 31.0398C29.3572 30.5331 29.5172 29.8331 29.5172 28.9398C29.5172 28.0064 29.3572 27.2998 29.0372 26.8198C28.7305 26.3398 28.3439 26.0998 27.8772 26.0998C27.3972 26.0998 26.9972 26.3464 26.6772 26.8398C26.3705 27.3331 26.2172 28.0331 26.2172 28.9398C26.2172 29.8464 26.3705 30.5464 26.6772 31.0398C26.9972 31.5331 27.3972 31.7798 27.8772 31.7798Z" fill="white"/>
</svg>
