<svg width="58" height="58" viewBox="0 0 58 58" fill="none" xmlns="http://www.w3.org/2000/svg">
<path d="M44.5701 41.0275C46.9813 33.4312 46.8302 18.3792 47.5 11.4862C47.5 11.4862 43.6076 12.0223 39.1064 10.7917C35.0172 9.67371 29.2991 6 29.2991 6C29.2991 6 23.2646 9.71003 18.9787 10.7917C14.8029 11.8455 11 11.4862 11 11.4862C11.6698 18.3792 12.0187 33.4312 14.4299 41.0275C16.0374 44.4037 18.0467 45.9229 29.2991 52C40.5514 45.9229 42.9626 44.4037 44.5701 41.0275Z" stroke="#0F6062"/>
<path d="M36.955 20.348C37.1199 20.5093 37.3844 20.5064 37.5457 20.3414C37.7071 20.1765 37.7041 19.912 37.5392 19.7507C37.5149 19.7269 29.1407 11.3523 20.3326 19.7076C20.1659 19.8663 20.1593 20.13 20.3179 20.2968C20.4765 20.4635 20.7403 20.4701 20.907 20.3114C29.1239 12.5169 36.9323 20.3258 36.955 20.348Z" fill="#0F6062"/>
<path d="M30.9879 19.7796C31.2114 19.8337 31.4364 19.6963 31.4905 19.4728C31.5446 19.2493 31.4072 19.0243 31.1837 18.9702C31.1541 18.963 20.8736 16.325 19.005 28.3725C18.9698 28.5997 19.1254 28.8123 19.3525 28.8474C19.5797 28.8826 19.7923 28.727 19.8274 28.4998C21.5555 17.3583 30.9608 19.773 30.9879 19.7796Z" fill="#0F6062"/>
<path d="M33.2831 19.7218C33.065 19.6488 32.829 19.7665 32.756 19.9846C32.683 20.2027 32.8007 20.4387 33.0188 20.5117C33.0313 20.5159 37.3983 21.9283 37.9482 28.3358C37.9671 28.5656 38.1688 28.7365 38.3986 28.7176C38.6284 28.6987 38.7994 28.497 38.7805 28.2672C38.1834 21.3089 33.2972 19.7266 33.2831 19.7218Z" fill="#0F6062"/>
<path d="M37.4298 34.1196C37.6064 34.2674 37.8695 34.244 38.0173 34.0674C38.1651 33.8907 38.1417 33.6277 37.9651 33.4799C37.5071 33.0967 37.1576 32.2669 36.8911 31.304C36.6125 30.2971 36.4318 29.1474 36.312 28.1856C36.0968 26.457 35.3987 24.8543 34.3555 23.6023C33.6045 22.701 32.6759 21.9815 31.6204 21.5266C30.5588 21.0689 29.3706 20.8773 28.1068 21.0347C26.5635 21.2269 24.9102 21.9407 23.2438 23.3293C23.0671 23.4762 23.043 23.7385 23.1899 23.9152C23.3368 24.0918 23.5991 24.1159 23.7758 23.969C25.3084 22.6919 26.8137 22.0374 28.208 21.8637C29.3189 21.7253 30.3613 21.8929 31.2908 22.2936C32.2264 22.6968 33.0496 23.3349 33.7157 24.1343C34.6569 25.2638 35.2874 26.7158 35.483 28.2869C35.6059 29.2734 35.7934 30.4606 36.0882 31.5259C36.3951 32.6351 36.8243 33.613 37.4298 34.1196Z" fill="#0F6062"/>
<path d="M35.8917 37.0281C36.0683 37.1759 36.3314 37.1525 36.4792 36.9759C36.627 36.7992 36.6036 36.5362 36.427 36.3884C35.9914 36.0239 35.4952 34.8768 35.061 33.4829C34.559 31.8714 34.1609 29.9604 34.0364 28.5213L34.0365 28.5211C34.0346 28.4993 34.031 28.4779 34.0259 28.4572C33.7628 26.8932 33.1943 25.7283 32.4568 24.9027C31.8372 24.2092 31.0998 23.7571 30.3229 23.51C29.5485 23.2637 28.738 23.2223 27.9681 23.3493C26.9968 23.5094 26.0844 23.9384 25.3857 24.5627C24.1467 25.6696 23.9953 27.0278 23.833 28.4835C23.82 28.6004 23.8068 28.719 23.7842 28.9082C23.7279 29.3813 23.6703 29.9318 23.6125 30.4845C23.3526 32.9699 23.0874 35.5052 22.0291 37.8425C21.9345 38.0524 22.028 38.2994 22.238 38.394C22.448 38.4887 22.6949 38.3951 22.7896 38.1852C23.902 35.7285 24.1744 33.1233 24.4415 30.5694C24.4937 30.0699 24.5458 29.5724 24.6133 29.0061C24.6249 28.9084 24.6435 28.7415 24.6621 28.575C24.8061 27.2823 24.9406 26.0762 25.9405 25.1828C26.5213 24.6639 27.2849 24.3065 28.1019 24.1718C28.75 24.0649 29.4283 24.0985 30.0716 24.3031C30.7124 24.5069 31.322 24.8816 31.8367 25.4576C32.4749 26.172 32.9698 27.1987 33.2045 28.5972C33.334 30.0884 33.7457 32.0651 34.2646 33.731C34.7415 35.2618 35.3246 36.5536 35.8917 37.0281Z" fill="#0F6062"/>
<path d="M34.6639 38.7795C34.8098 38.9579 35.0729 38.9842 35.2513 38.8383C35.4298 38.6923 35.4561 38.4292 35.3101 38.2508C34.9995 37.8714 34.3384 36.8701 33.6784 35.6291C33.2154 34.7583 32.7583 33.7806 32.4316 32.8348C32.1325 31.9691 32.0463 31.3279 31.9507 30.6173C31.8987 30.2304 31.844 29.824 31.7552 29.3609C31.6372 28.7459 31.4941 28.2227 31.3307 27.7817C31.1525 27.3009 30.947 26.911 30.7208 26.6009C30.3314 26.0673 29.7911 25.7478 29.2158 25.6413C28.7647 25.5577 28.293 25.6061 27.8566 25.7856C27.4235 25.9637 27.0267 26.2699 26.7219 26.7029C26.2851 27.3233 26.0376 28.2042 26.1535 29.3373C26.329 31.0535 27.0216 33.3561 27.8524 35.5287C28.8843 38.2273 30.1415 40.7509 30.8886 41.7078C31.0301 41.889 31.2916 41.9211 31.4728 41.7796C31.654 41.6381 31.6861 41.3765 31.5446 41.1954C30.8437 40.2977 29.6389 37.8637 28.6325 35.2317C27.8229 33.1146 27.1495 30.886 26.9825 29.2524C26.8892 28.3401 27.0739 27.6515 27.404 27.1827C27.614 26.8844 27.8827 26.6753 28.1732 26.5559C28.4604 26.4377 28.7701 26.4058 29.0656 26.4605C29.4396 26.5297 29.7923 26.7394 30.0484 27.0905C30.2274 27.3358 30.3952 27.6582 30.5473 28.069C30.6962 28.4706 30.8271 28.9504 30.9359 29.5176C31.0235 29.9738 31.0755 30.3603 31.1249 30.7282C31.2259 31.4789 31.317 32.1562 31.645 33.1057C31.9926 34.112 32.4658 35.1276 32.9408 36.0207C33.6274 37.3119 34.3291 38.3706 34.6639 38.7795Z" fill="#0F6062"/>
<path d="M22.7065 26.1341C22.8003 25.9241 22.706 25.6778 22.496 25.5841C22.286 25.4904 22.0398 25.5846 21.9461 25.7946C21.3332 27.1679 21.2106 29.0149 21.0917 30.8074C20.9763 32.5461 20.8645 34.2311 20.3164 35.2372C20.2064 35.439 20.281 35.6919 20.4828 35.8018C20.6847 35.9118 20.9375 35.8372 21.0475 35.6354C21.6847 34.4658 21.8024 32.691 21.9239 30.8596C22.038 29.1401 22.1556 27.3684 22.7065 26.1341Z" fill="#0F6062"/>
<path d="M29.325 28.3994C29.3133 28.1696 29.1175 27.9928 28.8877 28.0045C28.6579 28.0162 28.481 28.212 28.4927 28.4418C28.6018 30.5588 29.0444 32.9343 29.91 35.2156C30.6559 37.1812 31.7154 39.0787 33.1459 40.6851C33.2991 40.8572 33.5629 40.8725 33.735 40.7193C33.9071 40.5661 33.9225 40.3024 33.7693 40.1302C32.4098 38.6036 31.4013 36.7963 30.6901 34.9219C29.8562 32.7244 29.43 30.4371 29.325 28.3994Z" fill="#0F6062"/>
<path d="M28.5038 42.5664C28.6327 42.7575 28.8921 42.8079 29.0832 42.679C29.2742 42.5502 29.3246 42.2907 29.1958 42.0997C28.4155 40.9446 27.8116 39.7814 27.3015 38.6192C26.7861 37.4448 26.3639 36.2679 25.9533 35.1011L25.954 35.0995C25.8775 34.8819 25.6389 34.7675 25.4213 34.8441C25.2705 34.8972 25.1693 35.0281 25.1468 35.1759L25.0837 35.4733C24.7495 37.0521 24.444 38.4946 23.5299 40.127C23.4173 40.3279 23.4889 40.5822 23.6898 40.6949C23.8908 40.8075 24.1451 40.7359 24.2578 40.535C25.0118 39.1884 25.3731 37.9853 25.659 36.7494C25.9285 37.4814 26.2149 38.2163 26.5378 38.9521C27.0686 40.1616 27.6958 41.3703 28.5038 42.5664Z" fill="#0F6062"/>
</svg>
