<svg width="58" height="58" viewBox="0 0 58 58" fill="none" xmlns="http://www.w3.org/2000/svg">
<path d="M26.3165 2.09311C27.9814 1.15091 30.0186 1.15091 31.6835 2.09311L31.8819 2.20536C33.1286 2.91086 34.5747 3.18119 35.9921 2.97369L36.2176 2.94067C38.1105 2.66355 40.01 3.39945 41.2222 4.87948L41.3666 5.0558L41.7534 4.73899L41.3666 5.0558C42.2743 6.16402 43.5251 6.93849 44.9217 7.25701L45.1439 7.30769C47.0091 7.73307 48.5145 9.10548 49.1102 10.9235L49.1812 11.14C49.6272 12.5013 50.5138 13.6753 51.701 14.4768L51.8899 14.6044C53.4755 15.6748 54.3835 17.4984 54.2822 19.4088L54.2701 19.6364C54.1943 21.0668 54.5969 22.4818 55.4144 23.6581L55.5445 23.8453C56.6363 25.4162 56.8243 27.4446 56.0397 29.1894L55.9462 29.3973C55.3588 30.7038 55.223 32.1686 55.5604 33.5608L55.6141 33.7823C56.0647 35.6416 55.5072 37.6009 54.1454 38.9445L53.9831 39.1046C52.9634 40.1106 52.3076 41.4275 52.1193 42.8476L52.0893 43.0735C51.8379 44.97 50.6102 46.5957 48.855 47.3565L48.6459 47.4472C47.3316 48.0169 46.2444 49.008 45.5558 50.2641L45.4462 50.464C44.5267 52.1416 42.7947 53.214 40.8831 53.2894L40.6553 53.2984C39.224 53.3548 37.8522 53.8863 36.7563 54.8089L36.582 54.9557C35.1185 56.1877 33.116 56.5621 31.3063 55.9418L31.0907 55.868C29.7356 55.4035 28.2644 55.4035 26.9093 55.868L26.6937 55.9418C24.884 56.5621 22.8815 56.1877 21.418 54.9557L21.2437 54.8089C20.1478 53.8863 18.776 53.3548 17.3447 53.2984L17.1169 53.2894C15.2053 53.214 13.4733 52.1416 12.5538 50.464L12.4442 50.2641C11.7556 49.008 10.6684 48.0169 9.35414 47.4472L9.14503 47.3565C7.38977 46.5957 6.16213 44.97 5.91065 43.0735L5.88069 42.8476C5.69239 41.4275 5.03664 40.1106 4.0169 39.1046L3.85465 38.9445C2.49277 37.6009 1.93529 35.6416 2.38588 33.7823L2.43956 33.5608C2.77696 32.1687 2.64122 30.7038 2.05376 29.3973L1.96029 29.1894C1.17573 27.4446 1.36369 25.4162 2.45549 23.8453L2.58557 23.6581C3.40309 22.4818 3.8057 21.0668 3.72986 19.6364L3.71779 19.4088C3.61651 17.4984 4.52453 15.6748 6.11009 14.6044L6.29899 14.4768C7.48623 13.6753 8.3728 12.5013 8.81883 11.14L8.8898 10.9234C9.48546 9.10548 10.9909 7.73307 12.8561 7.30769L13.0783 7.25701C14.4749 6.93849 15.7257 6.16402 16.6334 5.0558L16.7778 4.87948L16.391 4.56266L16.7778 4.87947C17.99 3.39945 19.8895 2.66355 21.7824 2.94067L22.0079 2.97369C23.4253 3.18119 24.8714 2.91086 26.1181 2.20536L26.3165 2.09311Z" stroke="#0F6062"/>
<path d="M26.2804 3.82628C27.9677 2.87141 30.0323 2.87141 31.7196 3.82628C32.8838 4.4851 34.2342 4.73754 35.5578 4.54377C37.4762 4.26292 39.4013 5.00871 40.6298 6.50865C41.4774 7.54354 42.6454 8.26676 43.9496 8.5642C45.8399 8.99531 47.3656 10.3862 47.9693 12.2286C48.3858 13.4998 49.2137 14.5961 50.3223 15.3446C51.9292 16.4294 52.8495 18.2775 52.7468 20.2136C52.676 21.5494 53.052 22.8708 53.8154 23.9692C54.9219 25.5613 55.1124 27.617 54.3173 29.3853C53.7687 30.6053 53.6419 31.9733 53.957 33.2733C54.4136 35.1576 53.8487 37.1433 52.4685 38.5049C51.5162 39.4444 50.9038 40.6742 50.728 42.0002C50.4731 43.9222 49.229 45.5698 47.4501 46.3409C46.2228 46.8729 45.2075 47.7984 44.5645 48.9714C43.6326 50.6716 41.8773 51.7584 39.94 51.8348C38.6033 51.8876 37.3223 52.3838 36.299 53.2454C34.8158 54.494 32.7864 54.8734 30.9523 54.2448C29.6869 53.8111 28.3131 53.8111 27.0477 54.2448C25.2136 54.8734 23.1842 54.494 21.701 53.2454C20.6777 52.3838 19.3967 51.8876 18.06 51.8348C16.1227 51.7584 14.3674 50.6716 13.4355 48.9714C12.7925 47.7984 11.7772 46.8729 10.5499 46.3409C8.77101 45.5698 7.52686 43.9222 7.272 42.0002C7.09616 40.6742 6.4838 39.4444 5.53153 38.5049C4.15134 37.1433 3.58636 35.1576 4.04301 33.2733C4.35808 31.9733 4.23132 30.6053 3.68273 29.3853C2.88762 27.617 3.07812 25.5613 4.1846 23.9692C4.94803 22.8708 5.32399 21.5494 5.25317 20.2136C5.15053 18.2775 6.07077 16.4294 7.67765 15.3446C8.78633 14.5961 9.61424 13.4998 10.0308 12.2286C10.6344 10.3862 12.1601 8.99531 14.0504 8.5642C15.3546 8.26676 16.5226 7.54354 17.3702 6.50865C18.5987 5.00871 20.5238 4.26292 22.4422 4.54377C23.7658 4.73754 25.1162 4.4851 26.2804 3.82628Z" stroke="#0F6062" stroke-width="0.5"/>
<path d="M16.4176 17.3602C16.531 17.2068 16.6176 17.0235 16.6776 16.8102C16.7376 16.5902 16.7676 16.3535 16.7676 16.1002V11.7202C16.7676 11.4668 16.7376 11.2335 16.6776 11.0202C16.6176 10.8002 16.531 10.6135 16.4176 10.4602V10.4102H19.3876C20.0943 10.4102 20.681 10.5435 21.1476 10.8102C21.6143 11.0768 21.8476 11.4968 21.8476 12.0702C21.8476 12.5102 21.6943 12.8635 21.3876 13.1302C21.081 13.3968 20.7143 13.5635 20.2876 13.6302V13.6702C20.6076 13.7102 20.9076 13.8068 21.1876 13.9602C21.4676 14.1068 21.691 14.3102 21.8576 14.5702C22.031 14.8302 22.1176 15.1368 22.1176 15.4902C22.1176 16.1568 21.8543 16.6435 21.3276 16.9502C20.801 17.2568 20.1543 17.4102 19.3876 17.4102H16.4176V17.3602ZM19.0276 17.1702C19.3343 17.1702 19.6076 17.1035 19.8476 16.9702C20.0876 16.8302 20.271 16.6335 20.3976 16.3802C20.531 16.1268 20.5976 15.8302 20.5976 15.4902C20.5976 15.1368 20.531 14.8335 20.3976 14.5802C20.2643 14.3202 20.0743 14.1235 19.8276 13.9902C19.5876 13.8568 19.3043 13.7902 18.9776 13.7902H18.2176V16.9902C18.331 17.0502 18.4576 17.0968 18.5976 17.1302C18.7443 17.1568 18.8876 17.1702 19.0276 17.1702ZM18.9476 13.5402C19.3876 13.5402 19.731 13.4068 19.9776 13.1402C20.2243 12.8735 20.3476 12.5235 20.3476 12.0902C20.3476 11.8168 20.291 11.5702 20.1776 11.3502C20.071 11.1302 19.911 10.9602 19.6976 10.8402C19.491 10.7135 19.2443 10.6502 18.9576 10.6502C18.711 10.6502 18.4643 10.6968 18.2176 10.7902V13.5402H18.9476ZM23.1641 17.3602C23.2507 17.2335 23.3174 17.0735 23.3641 16.8802C23.4174 16.6802 23.4441 16.4635 23.4441 16.2302V13.9902C23.4441 13.7168 23.4141 13.4968 23.3541 13.3302C23.2941 13.1568 23.2041 13.0102 23.0841 12.8902V12.8402L24.7441 12.2802H24.7941V13.6502H24.8441C24.9574 13.2102 25.1507 12.8735 25.4241 12.6402C25.7041 12.4002 26.0941 12.2802 26.5941 12.2802V13.5302H26.0141C25.5941 13.5302 25.2841 13.6168 25.0841 13.7902C24.8907 13.9635 24.7941 14.2568 24.7941 14.6702V16.2302C24.7941 16.4635 24.8174 16.6802 24.8641 16.8802C24.9174 17.0735 24.9874 17.2335 25.0741 17.3602V17.4102H23.1641V17.3602ZM28.4044 17.5402C27.9978 17.5402 27.6778 17.4435 27.4444 17.2502C27.2178 17.0568 27.1044 16.7935 27.1044 16.4602C27.1044 16.0935 27.2344 15.7868 27.4944 15.5402C27.7611 15.2868 28.1044 15.1002 28.5244 14.9802C28.9444 14.8602 29.3878 14.8002 29.8544 14.8002V14.1802C29.8544 13.8068 29.7411 13.5068 29.5144 13.2802C29.2878 13.0468 28.9778 12.9302 28.5844 12.9302C28.2978 12.9302 28.0411 12.9968 27.8144 13.1302C27.5944 13.2635 27.4211 13.4502 27.2944 13.6902H27.1944C27.3078 13.2568 27.5444 12.9135 27.9044 12.6602C28.2711 12.4068 28.7011 12.2802 29.1944 12.2802C29.8211 12.2802 30.3111 12.4568 30.6644 12.8102C31.0244 13.1568 31.2044 13.6135 31.2044 14.1802V16.6902C31.2044 16.8302 31.2344 16.9335 31.2944 17.0002C31.3544 17.0602 31.4278 17.0902 31.5144 17.0902C31.5744 17.0902 31.6278 17.0835 31.6744 17.0702C31.7211 17.0502 31.7511 17.0302 31.7644 17.0102L31.8144 17.0602C31.7344 17.2068 31.6044 17.3235 31.4244 17.4102C31.2511 17.4968 31.0544 17.5402 30.8344 17.5402C30.5544 17.5402 30.3278 17.4768 30.1544 17.3502C29.9878 17.2168 29.8878 17.0368 29.8544 16.8102L29.8244 16.6202L29.9844 16.7702H29.8144C29.6811 17.0035 29.4978 17.1902 29.2644 17.3302C29.0378 17.4702 28.7511 17.5402 28.4044 17.5402ZM29.1344 16.8902C29.2678 16.8902 29.3878 16.8602 29.4944 16.8002C29.6078 16.7335 29.6944 16.6468 29.7544 16.5402C29.8211 16.4268 29.8544 16.3068 29.8544 16.1802V15.0302C29.4411 15.0435 29.1111 15.1468 28.8644 15.3402C28.6244 15.5335 28.5044 15.8002 28.5044 16.1402C28.5044 16.3935 28.5644 16.5835 28.6844 16.7102C28.8044 16.8302 28.9544 16.8902 29.1344 16.8902ZM34.2781 17.5402C33.9781 17.5402 33.6748 17.5102 33.3681 17.4502C33.0614 17.3902 32.7781 17.2968 32.5181 17.1702V15.6802H32.6181C32.7314 16.0068 32.8881 16.2935 33.0881 16.5402C33.2881 16.7868 33.5081 16.9735 33.7481 17.1002C33.9881 17.2268 34.2181 17.2902 34.4381 17.2902C34.7048 17.2902 34.9214 17.2102 35.0881 17.0502C35.2548 16.8902 35.3381 16.6868 35.3381 16.4402C35.3381 16.2002 35.2481 16.0135 35.0681 15.8802C34.8948 15.7468 34.6048 15.6302 34.1981 15.5302C33.8381 15.4435 33.5314 15.3368 33.2781 15.2102C33.0314 15.0768 32.8314 14.9035 32.6781 14.6902C32.5314 14.4702 32.4581 14.1968 32.4581 13.8702C32.4581 13.5502 32.5414 13.2702 32.7081 13.0302C32.8748 12.7902 33.1048 12.6068 33.3981 12.4802C33.6914 12.3468 34.0214 12.2802 34.3881 12.2802C34.6348 12.2802 34.8948 12.3135 35.1681 12.3802C35.4414 12.4468 35.7114 12.5368 35.9781 12.6502V14.0502H35.8781C35.7781 13.7635 35.6381 13.5068 35.4581 13.2802C35.2781 13.0468 35.0781 12.8635 34.8581 12.7302C34.6381 12.5968 34.4181 12.5302 34.1981 12.5302C33.9581 12.5302 33.7614 12.6002 33.6081 12.7402C33.4614 12.8802 33.3881 13.0602 33.3881 13.2802C33.3881 13.4335 33.4281 13.5668 33.5081 13.6802C33.5948 13.7868 33.7181 13.8768 33.8781 13.9502C34.0448 14.0235 34.2614 14.0968 34.5281 14.1702C34.9014 14.2702 35.2148 14.3902 35.4681 14.5302C35.7214 14.6635 35.9214 14.8435 36.0681 15.0702C36.2214 15.2902 36.2981 15.5702 36.2981 15.9102C36.2981 16.2835 36.2014 16.5935 36.0081 16.8402C35.8214 17.0802 35.5748 17.2568 35.2681 17.3702C34.9614 17.4835 34.6314 17.5402 34.2781 17.5402ZM39.073 17.5402C38.773 17.5402 38.4697 17.5102 38.163 17.4502C37.8564 17.3902 37.573 17.2968 37.313 17.1702V15.6802H37.413C37.5264 16.0068 37.683 16.2935 37.883 16.5402C38.083 16.7868 38.303 16.9735 38.543 17.1002C38.783 17.2268 39.013 17.2902 39.233 17.2902C39.4997 17.2902 39.7164 17.2102 39.883 17.0502C40.0497 16.8902 40.133 16.6868 40.133 16.4402C40.133 16.2002 40.043 16.0135 39.863 15.8802C39.6897 15.7468 39.3997 15.6302 38.993 15.5302C38.633 15.4435 38.3264 15.3368 38.073 15.2102C37.8264 15.0768 37.6264 14.9035 37.473 14.6902C37.3264 14.4702 37.253 14.1968 37.253 13.8702C37.253 13.5502 37.3364 13.2702 37.503 13.0302C37.6697 12.7902 37.8997 12.6068 38.193 12.4802C38.4864 12.3468 38.8164 12.2802 39.183 12.2802C39.4297 12.2802 39.6897 12.3135 39.963 12.3802C40.2364 12.4468 40.5064 12.5368 40.773 12.6502V14.0502H40.673C40.573 13.7635 40.433 13.5068 40.253 13.2802C40.073 13.0468 39.873 12.8635 39.653 12.7302C39.433 12.5968 39.213 12.5302 38.993 12.5302C38.753 12.5302 38.5564 12.6002 38.403 12.7402C38.2564 12.8802 38.183 13.0602 38.183 13.2802C38.183 13.4335 38.223 13.5668 38.303 13.6802C38.3897 13.7868 38.513 13.8768 38.673 13.9502C38.8397 14.0235 39.0564 14.0968 39.323 14.1702C39.6964 14.2702 40.0097 14.3902 40.263 14.5302C40.5164 14.6635 40.7164 14.8435 40.863 15.0702C41.0164 15.2902 41.093 15.5702 41.093 15.9102C41.093 16.2835 40.9964 16.5935 40.803 16.8402C40.6164 17.0802 40.3697 17.2568 40.063 17.3702C39.7564 17.4835 39.4264 17.5402 39.073 17.5402Z" fill="#0F6062"/>
<circle cx="12.9336" cy="29.6152" r="1.5" fill="#0F6062"/>
<path d="M21.6916 36.6152L27.4716 22.6152H29.7516L35.5316 36.6152H32.6316L28.2716 25.6352H28.1316L23.6916 36.6152H21.6916ZM23.8916 33.2752L24.4716 31.6952H32.3516L32.9316 33.2752H23.8916Z" fill="#0F6062"/>
<circle cx="44.3203" cy="29.6152" r="1.5" fill="#0F6062"/>
<path d="M19.5706 48.9503C18.9239 48.9503 18.3473 48.797 17.8406 48.4903C17.3339 48.1836 16.9406 47.7636 16.6606 47.2303C16.3806 46.6903 16.2406 46.0803 16.2406 45.4003C16.2406 44.687 16.3973 44.0503 16.7106 43.4903C17.0306 42.9236 17.4706 42.4836 18.0306 42.1703C18.5906 41.8503 19.2206 41.6903 19.9206 41.6903C20.3406 41.6903 20.7373 41.737 21.1106 41.8303C21.4906 41.9236 21.7973 42.027 22.0306 42.1403V44.0103H21.9306C21.7373 43.4303 21.4306 42.9503 21.0106 42.5703C20.5906 42.1836 20.1106 41.9903 19.5706 41.9903C19.1706 41.9903 18.8173 42.1003 18.5106 42.3203C18.2106 42.5336 17.9739 42.847 17.8006 43.2603C17.6339 43.667 17.5506 44.1536 17.5506 44.7203C17.5506 45.3203 17.6639 45.8603 17.8906 46.3403C18.1173 46.8203 18.4306 47.2003 18.8306 47.4803C19.2373 47.7536 19.6973 47.8903 20.2106 47.8903C20.6773 47.8903 21.0839 47.7736 21.4306 47.5403C21.7839 47.3003 22.0673 46.9536 22.2806 46.5003H22.3806C22.3073 46.967 22.1439 47.387 21.8906 47.7603C21.6439 48.127 21.3206 48.417 20.9206 48.6303C20.5273 48.8436 20.0773 48.9503 19.5706 48.9503ZM24.9298 48.9503C24.6165 48.9503 24.3398 48.8803 24.0998 48.7403C23.8598 48.5936 23.6731 48.3936 23.5398 48.1403C23.4131 47.8803 23.3498 47.587 23.3498 47.2603V45.4003C23.3498 45.127 23.3198 44.907 23.2598 44.7403C23.2065 44.567 23.1198 44.4203 22.9998 44.3003V44.2503L24.6498 43.6903H24.6998V47.2303C24.6998 47.5036 24.7798 47.7303 24.9398 47.9103C25.1065 48.0836 25.3198 48.1703 25.5798 48.1703C25.7531 48.1703 25.9131 48.1336 26.0598 48.0603C26.2131 47.9803 26.3331 47.8703 26.4198 47.7303C26.5065 47.5836 26.5498 47.417 26.5498 47.2303V45.4003C26.5498 45.127 26.5198 44.907 26.4598 44.7403C26.4065 44.567 26.3198 44.4203 26.1998 44.3003V44.2503L27.8498 43.6903H27.8998V47.4703C27.8998 47.7436 27.9298 47.9636 27.9898 48.1303C28.0498 48.297 28.1398 48.437 28.2598 48.5503V48.6003L26.5998 48.9503H26.5498V47.9703H26.4998C26.3665 48.257 26.1631 48.4936 25.8898 48.6803C25.6165 48.8603 25.2965 48.9503 24.9298 48.9503ZM29.1812 48.8203V48.6103L32.9912 42.0703H31.8812C31.4279 42.0703 31.0445 42.1403 30.7312 42.2803C30.4179 42.4136 30.1579 42.607 29.9512 42.8603C29.7445 43.1136 29.5679 43.4336 29.4212 43.8203H29.3212L29.5612 41.8203H34.6912V42.0303L30.8812 48.5703H32.1212C32.5679 48.5703 32.9479 48.5036 33.2612 48.3703C33.5745 48.2303 33.8345 48.0336 34.0412 47.7803C34.2479 47.5203 34.4279 47.2003 34.5812 46.8203H34.6812L34.4312 48.8203H29.1812ZM35.7579 48.7703C35.8446 48.6436 35.9113 48.4836 35.9579 48.2903C36.0113 48.0903 36.0379 47.8736 36.0379 47.6403V45.4003C36.0379 45.127 36.0079 44.907 35.9479 44.7403C35.8879 44.567 35.7979 44.4203 35.6779 44.3003V44.2503L37.3379 43.6903H37.3879V44.6703H37.4379C37.5713 44.3836 37.7746 44.1503 38.0479 43.9703C38.3213 43.7836 38.6413 43.6903 39.0079 43.6903C39.4946 43.6903 39.8846 43.847 40.1779 44.1603C40.4713 44.4736 40.6179 44.8803 40.6179 45.3803V47.6403C40.6179 47.8736 40.6413 48.0903 40.6879 48.2903C40.7413 48.4836 40.8113 48.6436 40.8979 48.7703V48.8203H38.9879V48.7703C39.0746 48.6436 39.1413 48.4836 39.1879 48.2903C39.2413 48.0903 39.2679 47.8736 39.2679 47.6403V45.4103C39.2679 45.137 39.1846 44.9136 39.0179 44.7403C38.8513 44.5603 38.6313 44.4703 38.3579 44.4703C38.1846 44.4703 38.0213 44.5103 37.8679 44.5903C37.7213 44.6636 37.6046 44.7736 37.5179 44.9203C37.4313 45.0603 37.3879 45.2236 37.3879 45.4103V47.6403C37.3879 47.8736 37.4113 48.0903 37.4579 48.2903C37.5113 48.4836 37.5813 48.6436 37.6679 48.7703V48.8203H35.7579V48.7703Z" fill="#0F6062"/>
</svg>
