<svg width="35" height="35" viewBox="0 0 35 35" fill="none" xmlns="http://www.w3.org/2000/svg">
<g clip-path="url(#clip0_207_4304)">
<path d="M34.0402 2.27845L32.5262 3.14358L32.5254 2.96758L34.0474 3.81844L33.7966 4.28162L32.2965 3.41966L32.4173 3.36409L32.4252 5.04707L31.9192 5.04945L31.9223 3.36642L32.0325 3.4209L30.5516 4.29687L30.2855 3.83612L31.8104 2.97094L31.8112 3.14694L30.2782 2.29613L30.54 1.8329L32.0291 2.69491L31.9194 2.75042L31.9005 1.0675L32.4065 1.06512L32.4144 2.7481L32.2931 2.69367L33.785 1.81765L34.0402 2.27845Z" fill="#F8F4E8"/>
<path d="M4.64803 12.0601C2.24051 13.5411 0.591741 16.8558 1.25737 18.8277C1.56631 19.7218 2.60257 20.7504 3.2829 20.862C3.79892 20.9285 3.79882 20.9055 3.25277 19.4383C2.61166 17.696 3.3243 14.7073 4.67794 13.4378L5.23815 12.93L5.26718 19.1074C5.27072 24.8485 5.12001 27.6969 4.72605 28.6632C4.44789 29.3305 5.36133 29.1655 6.08455 28.4272C7.29754 27.1584 7.41119 26.4001 7.37665 19.0515C7.34525 12.3689 7.34504 12.323 6.82771 11.981C6.12222 11.502 5.51286 11.5278 4.64803 12.0601Z" fill="#F8F4E8"/>
<path d="M27.6648 11.6753C27.5714 11.7446 27.5045 12.4798 27.5083 13.2836L27.5151 14.7303L26.2493 14.7363C25.1007 14.7417 24.9837 14.7881 24.8455 15.317C24.6152 16.1907 24.8504 16.3504 26.1396 16.3443L27.3351 16.3387L27.2551 19.2556C27.1977 22.0116 27.152 22.2644 26.524 23.3238L25.8495 24.4522L25.4692 23.3287C25.1839 22.4804 24.7595 21.9542 23.677 21.0636L22.265 19.8991L22.7765 19.0011C23.0789 18.4944 23.2867 17.8275 23.2618 17.5061C23.1892 17.0241 23.0481 16.9329 22.2977 16.8676C20.6562 16.7375 19.4928 18.6031 20.2968 20.0691C20.486 20.4356 20.3474 20.8726 19.4873 22.4153C18.1391 24.8329 17.8361 25.2018 17.3665 25.0432C17.0612 24.9298 17.0115 24.333 16.9975 21.3476L16.9809 17.8112L16.346 17.4008C14.7238 16.375 13.322 17.392 12.0943 20.521L11.3993 22.2696L11.3878 19.8124L11.3529 17.3783L10.625 17.1291C10.2259 16.9932 9.80374 16.9493 9.68686 17.0187C9.35954 17.204 9.47411 26.619 9.8038 26.9389C10.1806 27.3046 11.3994 27.2759 11.4914 26.908C11.5377 26.77 11.7906 25.7124 12.0665 24.5629C12.5953 22.3788 13.5457 20.1008 14.3618 19.1554L14.8513 18.579L14.8913 22.0924C14.9109 26.2719 15.1731 27.1893 16.2982 27.184C17.3531 27.179 18.4964 26.0484 19.9615 23.5613C20.6593 22.3868 21.3345 21.4191 21.4283 21.4187C21.6627 21.4176 23.0054 22.8121 23.313 23.4078C23.715 24.1637 23.625 24.9679 23.0881 25.4527C22.6213 25.8682 22.5978 25.8683 21.6577 25.3446C20.7646 24.8435 20.7177 24.8438 20.2741 25.2363C19.1771 26.2289 20.2598 27.1654 22.4867 27.1549C24.4323 27.1457 25.6009 26.4054 26.8338 24.4017C27.1361 23.8721 27.3463 23.7103 27.3943 23.9397C27.4655 24.1231 27.6322 24.6964 27.7754 25.224C28.0853 26.3248 28.9798 27.1244 29.9409 27.1199C30.7379 27.1161 31.7041 26.404 32.2538 25.4442C32.4347 25.1282 32.5156 25.0409 32.6893 24.5809C32.8629 24.1209 33.0344 23.2014 33.1302 22.3971C33.1146 21.5648 33.0259 21.393 32.8501 21.3938C32.7622 21.3942 32.4977 21.4816 32.4942 21.7341C32.459 24.2374 30.7115 26.4962 29.9077 25.0532C29.7424 24.7784 29.6875 23.0793 29.699 20.5301L29.7501 16.4422L31.2031 16.3664C32.3984 16.3149 32.6792 16.2217 32.7947 15.8537C33.0257 15.1178 32.7201 14.9355 31.2433 14.9424L29.8603 14.9489L29.8534 13.4792C29.8466 12.0325 29.823 12.0096 29.1186 11.7603C28.2499 11.4659 27.8747 11.4447 27.6648 11.6753Z" fill="#F8F4E8"/>
</g>
<defs>
<clipPath id="clip0_207_4304">
<rect width="34" height="34" fill="white" transform="translate(0.0268555 0.378906) rotate(-0.269245)"/>
</clipPath>
</defs>
</svg>
