<svg width="35" height="35" fill="none" xmlns="http://www.w3.org/2000/svg"><g clip-path="url(#clip0_207_4304)" fill="#F8F4E8"><path d="M34.04 2.278l-1.514.866v-.176l1.521.85-.25.464-1.5-.862.12-.056.008 1.683-.506.002.003-1.683.11.055-1.48.876-.267-.46 1.525-.866.001.176-1.533-.85.262-.464 1.49.862-.11.055-.02-1.683.507-.002.007 1.683-.12-.054 1.491-.876.255.46zM4.648 12.06c-2.407 1.481-4.056 4.796-3.39 6.768.308.894 1.345 1.922 2.025 2.034.516.067.516.044-.03-1.424-.641-1.742.071-4.73 1.425-6l.56-.508.03 6.177c.003 5.742-.148 8.59-.542 9.556-.278.668.635.503 1.359-.236 1.213-1.269 1.326-2.027 1.292-9.375-.032-6.683-.032-6.729-.55-7.071-.705-.479-1.314-.453-2.179.08zm23.017-.385c-.094.07-.16.805-.157 1.609l.007 1.446-1.266.006c-1.148.006-1.265.052-1.403.581-.23.874.004 1.033 1.294 1.027l1.195-.005-.08 2.917c-.057 2.756-.103 3.008-.731 4.068l-.675 1.128-.38-1.123c-.285-.849-.71-1.375-1.792-2.265l-1.412-1.165.511-.898c.303-.507.51-1.174.486-1.495-.073-.482-.214-.573-.964-.638-1.642-.13-2.805 1.735-2.001 3.201.189.367.05.804-.81 2.346-1.348 2.418-1.65 2.787-2.12 2.628-.306-.113-.355-.71-.37-3.695l-.016-3.537-.635-.41c-1.622-1.026-3.024-.009-4.252 3.12L11.4 22.27l-.011-2.458-.035-2.434-.728-.249c-.4-.136-.821-.18-.938-.11-.327.185-.213 9.6.117 9.92.377.366 1.595.337 1.687-.031.047-.138.3-1.196.575-2.345.53-2.184 1.48-4.462 2.296-5.408l.49-.576.04 3.513c.019 4.18.281 5.097 1.406 5.092 1.055-.005 2.198-1.136 3.664-3.623.697-1.174 1.372-2.142 1.466-2.142.235-.001 1.577 1.393 1.885 1.989.402.756.312 1.56-.225 2.045-.467.415-.49.415-1.43-.108-.893-.502-.94-.501-1.384-.109-1.097.993-.014 1.93 2.213 1.919 1.945-.01 3.114-.75 4.347-2.753.302-.53.512-.692.56-.462.072.183.238.756.381 1.284.31 1.1 1.205 1.9 2.166 1.896.797-.004 1.763-.716 2.313-1.676.18-.316.262-.403.435-.863.174-.46.345-1.38.441-2.184-.015-.832-.104-1.004-.28-1.003-.088 0-.352.088-.356.34-.035 2.503-1.782 4.762-2.586 3.32-.166-.276-.22-1.975-.209-4.524l.051-4.088 1.453-.076c1.195-.051 1.476-.144 1.592-.512.23-.736-.075-.918-1.552-.912l-1.383.007-.007-1.47c-.006-1.446-.03-1.47-.734-1.719-.87-.294-1.244-.315-1.454-.085z"/></g><defs><clipPath id="clip0_207_4304"><path fill="#fff" transform="rotate(-.269 80.645 -5.525)" d="M0 0h34v34H0z"/></clipPath></defs></svg>