<svg width="16" height="19" viewBox="0 0 16 19" fill="none" xmlns="http://www.w3.org/2000/svg">
<g id="profile">
<path id="Vector" d="M8.14198 8.87196C8.05323 8.86308 7.94674 8.86308 7.84911 8.87196C5.73691 8.80096 4.05957 7.07037 4.05957 4.94042C4.05957 2.76609 5.81678 1 7.99999 1C10.1743 1 11.9404 2.76609 11.9404 4.94042C11.9315 7.07037 10.2542 8.80096 8.14198 8.87196Z" stroke="#F8F4E8" stroke-width="1.5" stroke-linecap="round" stroke-linejoin="round"/>
<path id="Vector_2" d="M3.11513 12.6383C0.753289 13.8055 0.753289 15.7075 3.11513 16.8675C5.79905 18.1932 10.2007 18.1932 12.8846 16.8675C15.2464 15.7003 15.2464 13.7983 12.8846 12.6383C10.2104 11.3198 5.80881 11.3198 3.11513 12.6383Z" stroke="#F8F4E8" stroke-width="1.5" stroke-linecap="round" stroke-linejoin="round"/>
</g>
</svg>
