<svg width="146" height="27" fill="none" xmlns="http://www.w3.org/2000/svg"><g fill-rule="evenodd" clip-rule="evenodd" fill="#F8F4E8" clip-path="url(#clip0_1032_1227)"><path d="M144.732 9.366c-4.748-1.181-8.584 1.115-8.584 6.587v9.144h3.105l.088-9.11c.037-3.817 3.33-4.32 5.904-3.374L146 9.79l-1.268-.424zM53.13 16.563v8.534h3.251v-8.471c0-3.095 1.983-4.752 4.648-4.752 2.665 0 4.648 1.657 4.648 4.752v8.471h3.25v-8.534c0-4.908-3.348-7.721-7.898-7.721s-7.898 2.814-7.898 7.721zm70.815-7.443c4.382 0 7.935 3.577 7.935 7.989s-3.553 7.988-7.935 7.988-7.934-3.576-7.934-7.988c0-4.412 3.552-7.989 7.934-7.989zm0 2.47c3.027 0 5.481 2.471 5.481 5.519 0 3.047-2.454 5.518-5.481 5.518-3.027 0-5.48-2.47-5.48-5.518 0-3.048 2.453-5.518 5.48-5.518zM81.03 9.12c4.382 0 7.935 3.577 7.935 7.989s-3.553 7.988-7.935 7.988-7.934-3.576-7.934-7.988c0-4.412 3.552-7.989 7.934-7.989zm0 2.47c3.027 0 5.48 2.471 5.48 5.519 0 3.047-2.453 5.518-5.48 5.518-3.027 0-5.48-2.47-5.48-5.518 0-3.048 2.453-5.518 5.48-5.518zM35.148 25.055h3.105v-6.888h1.993c.117.204.284.44.522.73l5.097 6.2 3.804-.042-6.483-7.245c-.264-.295-.403-.5-.403-.719 0-.25.133-.491.403-.781l6.71-7.198-3.712.042-5.061 5.667c-.383.429-.645.742-.82 1.007h-2.05V1.715h-3.105v23.34zm68.304-.659l-.007-2.82c-1.087.604-2.154.921-2.93.921-2.298 0-3.209-1.586-3.208-3.649l.002-7.315 6.046-.038v-2.47h-6.121V1.763h-3.032v7.262h-3.184v2.47h3.184v7.603c0 3.97 2.472 6 6.105 6 1.056 0 1.885-.252 3.145-.702zm4.912-22.639v23.34h3.104V1.757h-3.104zM13.409 27c7.405 0 13.408-6.044 13.408-13.5S20.814 0 13.408 0C6.003 0 0 6.044 0 13.5c0 3.862 1.61 7.344 4.192 9.805C3.374 10.629 14.706 3.738 24.811 8.43l-2.446 4.743C17 10.647 9.44 13.086 9.706 23.564l.001 2.915a13.33 13.33 0 003.701.521zM4.287 6.425h7.831c-3.39 1.48-6.07 3.879-7.83 7.462V6.425z"/></g><defs><clipPath id="clip0_1032_1227"><path fill="#fff" d="M0 0h146v27H0z"/></clipPath></defs></svg>