<svg width="326" height="347" viewBox="0 0 326 347" fill="none" xmlns="http://www.w3.org/2000/svg">
<path d="M0.999243 246.512C16.776 262.3 35.6502 274.646 56.4321 282.771C77.2139 290.896 99.4526 294.624 121.746 293.72C144.039 292.817 165.904 287.301 185.961 277.521C206.018 267.74 223.833 253.907 238.282 236.894C252.731 219.881 263.501 200.057 269.913 178.672C276.325 157.286 278.24 134.803 275.537 112.64C272.834 90.4774 265.572 69.1152 254.208 49.9007C242.844 30.6861 227.626 14.036 209.512 1" stroke="#D4D4D4"/>
<path d="M184.471 345.999C175.989 322.498 173.068 297.349 175.936 272.528C178.804 247.706 187.384 223.889 201.001 202.945C214.619 182.001 232.903 164.502 254.418 151.822C275.933 139.142 300.093 131.626 325 129.865" stroke="#D4D4D4"/>
</svg>
