<svg width="21" height="20" fill="none" xmlns="http://www.w3.org/2000/svg"><g stroke="#202929" stroke-linecap="round" stroke-linejoin="round"><path d="M9.538 2.065c.47-.265.704-.398.962-.398s.493.133.962.398l5.576 3.152c.47.265.704.398.833.617.129.218.129.484.129 1.015v6.303c0 .53 0 .796-.129 1.015-.129.219-.364.351-.833.617l-5.576 3.152c-.47.265-.704.398-.962.398s-.493-.133-.962-.398l-5.576-3.152c-.47-.266-.704-.398-.833-.617C3 13.948 3 13.683 3 13.152V6.849c0-.531 0-.797.129-1.015.129-.219.364-.352.833-.617l5.576-3.152z"/><path d="M13.417 3.559l-1.972 1.066c-.461.25-.692.375-.945.375s-.483-.125-.945-.375L7.584 3.56M10.5 9.68v8.653m0-8.654l7.083-3.846M10.5 9.679L3.417 5.833M3 10l2.412 1.299c.448.241.672.362.797.579.124.217.124.486.124 1.026v2.93M18 10l-2.412 1.299c-.448.241-.673.362-.797.579-.125.217-.125.486-.125 1.026v2.93"/></g></svg>