<svg width="21" height="20" fill="none" xmlns="http://www.w3.org/2000/svg"><g stroke="#202929"><path d="M3 9.155v3.756c0 2.36 0 3.54.732 4.274.732.733 1.911.733 4.268.733h5c2.357 0 3.535 0 4.268-.733C18 16.45 18 15.27 18 12.91V9.155"/><path d="M6.333 14.979h3.334" stroke-linecap="round"/><path d="M15.33 2.083l-9.705.024c-1.449-.074-1.82 1.041-1.82 1.587 0 .487-.063 1.198-.95 2.534-.889 1.337-.822 1.734-.321 2.659.415.767 1.472 1.067 2.023 1.118 1.75.04 2.602-1.472 2.602-2.535.868 2.67 3.337 2.67 4.437 2.365 1.103-.306 2.047-1.401 2.27-2.365.13 1.198.524 1.897 1.69 2.377 1.206.498 2.244-.263 2.764-.75.521-.487.855-1.57-.073-2.759-.64-.82-.907-1.592-.994-2.393-.051-.464-.096-.962-.422-1.28-.477-.463-1.162-.604-1.501-.582z" stroke-linecap="round" stroke-linejoin="round"/></g></svg>