<svg width="21" height="20" fill="none" xmlns="http://www.w3.org/2000/svg"><g stroke="#202929"><path d="M8.9 1.667a8.418 8.418 0 109.933 9.933" stroke-linecap="round"/><path d="M16.281 15c.32-.07.617-.18.886-.331m-4.427-.219c.496.218.975.379 1.43.485m-4.624-2.479c.344.242.712.532 1.07.782M3 11.521c.269-.132.559-.282.885-.411m1.99-.277c.47.052.994.185 1.59.436" stroke-linecap="round" stroke-linejoin="round"/><path d="M15.5 6.25a1.25 1.25 0 10-2.5 0 1.25 1.25 0 002.5 0z"/><path d="M15.073 11.35c-.22.204-.516.317-.823.317-.307 0-.602-.114-.823-.316-2.023-1.871-4.733-3.96-3.411-6.994.715-1.64 2.43-2.69 4.234-2.69 1.804 0 3.52 1.05 4.234 2.69 1.32 3.03-1.384 5.13-3.41 6.994z"/></g></svg>