<svg width="21" height="20" fill="none" xmlns="http://www.w3.org/2000/svg"><g stroke="#202929" stroke-linecap="round"><path d="M13 8.333L3.834 17.5M15.5 2.501l-2.5 2.5c-.455.454-.682.682-.803.927a1.667 1.667 0 000 1.48c.121.245.348.472.803.926.454.455.681.682.926.803a1.667 1.667 0 001.48 0c.246-.121.473-.348.927-.803l2.5-2.5m-1.667-1.668l-2.5 2.5" stroke-linejoin="round"/><path d="M7.87 8.205c-1.137 1.137-2.697 1.422-4.119 0-1.422-1.422-2.167-4.012-1.03-5.15 1.138-1.137 3.728-.391 5.15 1.03 1.421 1.422 1.137 2.982 0 4.12zm0 0l9.296 9.296"/></g></svg>