<svg width="58" height="58" fill="none" xmlns="http://www.w3.org/2000/svg"><path d="M27.954 17.128c-.926 2.149-5.942 14.376-5.942 14.376-.564.088-2.357-.164-5.012-1.878l5.103-12.498c3.115-8.478 8.45-9.5 10.946-9.035 5.36 1.31 6.675 6.68 6.662 9.201l-.084 11.703-.121 16.962c.28 0 1.874.448 1.952 1.144a.603.603 0 010 .13l.011 1.795c-.296.38-1.509 1.288-4.492 1.288-2.982 0-4.216-1.042-4.397-1.49v-1.723c.027-.657 1.345-1.047 2.104-1.145v-9.06l-3.634.974-.706-.243v-2.092l4.34-1.155V17.294c-.012-1.033-.454-3.266-2.127-3.929-1.672-.663-3.676 1.615-4.603 3.763z" fill="#DFD5BC"/></svg>