<svg width="58" height="58" fill="none" xmlns="http://www.w3.org/2000/svg"><path d="M29.902 36c-6.848 0-12.549 3.563-13.693 8.261-.23.942.577 1.739 1.546 1.739H29.5" stroke="#DFD5BC" stroke-width="1.5" stroke-linecap="round" stroke-linejoin="round"/><path d="M39.484 25.089c.052.854-.838 1.468-1.29 1.668-.694 2.37-1.754 3.938-2.845 4.936-1.242 1.137-2.524 1.535-3.348 1.535-1.475 0-2.658-.634-3.59-1.535-1.52-1.467-2.373-3.641-2.733-4.936-.3-.245-.955-.921-1.161-1.668-.207-.747.43-1.601.774-1.935-.193-2.668-.774-5.203 1.032-7.805 1.445-2.081 3.226-2.668 4.387-2.802 2.065-.16 3.86.03 5.613 1.468 1.575 1.29 2.258 3.202 2.516 4.603.246 1.334-.086 3.58-.258 4.803.28.2.852.814.903 1.668z" stroke="#DFD5BC" stroke-width="1.5" stroke-linecap="round"/><path fill-rule="evenodd" clip-rule="evenodd" d="M48.397 45.575A8.136 8.136 0 0049.6 41.3c0-4.586-3.714-8.3-8.3-8.3a8.31 8.31 0 00-5.188 1.826A8.239 8.239 0 0033 41.3c0 1.556.436 3.03 1.203 4.275A8.237 8.237 0 0041.3 49.6a8.103 8.103 0 005.457-2.075 7.456 7.456 0 001.64-1.95zm-3.47-5.885a.576.576 0 10-.782-.845l-4.013 3.711-1.662-1.662a.576.576 0 10-.815.814l2.054 2.055a.576.576 0 00.799.015l4.42-4.088z" fill="#DFD5BC"/></svg>