<svg width="190" height="36" fill="none" xmlns="http://www.w3.org/2000/svg"><g clip-path="url(#clip0_2497_51019)"><mask id="a" style="mask-type:luminance" maskUnits="userSpaceOnUse" x="1" y="0" width="188" height="36"><path d="M188.837.5H1.162v35h187.675V.5z" fill="#fff"/></mask><g fill="#276EF1" mask="url(#a)"><path d="M36.304 17.544c-.05-1.896-1.385-7.115-2.279-7.95l.003-.003c-.611-.615-2.406-.434-2.328 1.271.363 4.87-4.015 11.87-11.395 12.009-3.524 0-5.305-.956-6.538-1.954.102-.149 1.57-2.545 5.62-3.38 4.016-.61 10.915-1.621 10.453-10.65 0 0 0-2.449-2.034-3.878A17.571 17.571 0 0018.278.506 17.482 17.482 0 005.99 5.953a17.343 17.343 0 00-4.822 12.503C1.417 27.947 9.25 35.5 18.73 35.5s17.93-8.308 17.574-17.956zM3.298 18.4A15.246 15.246 0 017.535 7.414a15.372 15.372 0 0110.799-4.787c2.238 0 9.39.804 9.39 4.502.043 3.36-.407 7.255-8.61 8.302-2.468.303-5.036 1.737-6.698 3.726-1.718 2.057-2.418 4.716-2.11 7.374a9.742 9.742 0 002.825 5.796C7.517 30.14 3.467 24.767 3.3 18.401h-.002zm18.035 14.74c-4.417.49-8.412-2.573-8.91-6.853a7.832 7.832 0 01.37-3.438c1.461 1.087 3.658 2.142 7.536 2.142h.001a13.422 13.422 0 005.893-1.537c3.726-1.934 6.375-5.462 7.273-9.462.347 1.243.652 2.618.677 3.605.2 7.595-5.319 14.271-12.841 15.541l.001.002zm43.237-7.402v-9.705c0-.58.183-1.07.556-1.472.371-.405.848-.605 1.434-.605s1.037.2 1.416.607c.375.404.564.894.564 1.47v9.705c0 .57-.19 1.052-.564 1.439-.371.388-.848.587-1.416.587-.569 0-1.067-.195-1.434-.584-.37-.387-.556-.869-.556-1.442zm1.99-12.92a2.268 2.268 0 01-1.678-.701 2.31 2.31 0 01-.685-1.678c0-.652.226-1.21.681-1.667.46-.46 1.02-.69 1.682-.69.662 0 1.209.233 1.681.694.473.461.71 1.015.71 1.663 0 .647-.237 1.205-.71 1.674-.472.47-1.033.706-1.681.706zm3.56 3.394c0-.66.197-1.17.59-1.532a1.97 1.97 0 011.394-.545c.449 0 .851.105 1.215.32.357.213.617.518.767.923.826-1.029 1.79-1.546 2.9-1.546a1.79 1.79 0 011.353.67 2.2 2.2 0 01.534 1.457c0 .58-.2 1.008-.6 1.28-.394.268-.976.525-1.748.76-.767.24-1.29.453-1.564.646-.582.39-.873 1.079-.873 2.072v4.992c0 .748-.207 1.297-.625 1.649-.416.355-.943.534-1.586.534-.517-.09-.94-.31-1.27-.672-.323-.36-.487-.848-.487-1.457V16.21v.002zM93.241 26.25l-3.209-8.007a54.42 54.42 0 01-.375-.943 5.573 5.573 0 01-.203-.636 2.87 2.87 0 01-.084-.646c.034-.532.24-.993.617-1.388a1.833 1.833 0 011.37-.593c.458 0 .847.109 1.163.319.32.21.575.6.768 1.18l2.085 5.981h.051l2.138-5.957c.336-1.015.979-1.523 1.914-1.523a1.89 1.89 0 011.397.601c.39.393.586.855.586 1.379 0 .523-.203 1.27-.612 2.224l-3.228 8.007c-.437 1.062-1.166 1.595-2.191 1.595s-1.783-.533-2.183-1.595m10.187-9.448a6.657 6.657 0 012.112-2.313 5.442 5.442 0 012.854-.957c.869 0 1.587.134 2.153.405a4.38 4.38 0 011.484 1.141c.16-.408.41-.713.739-.924.331-.213.695-.32 1.087-.32.551 0 1.019.184 1.406.55.385.373.578.877.578 1.528v9.649c0 .492-.156.939-.47 1.343-.313.403-.752.634-1.313.685-.561 0-1.017-.14-1.357-.42-.346-.278-.568-.555-.67-.823-.797.998-1.922 1.497-3.384 1.497-1.235 0-2.315-.336-3.239-1.01-.927-.674-1.64-1.562-2.146-2.657a9.211 9.211 0 01-.826-3.478c.055-1.474.387-2.771.99-3.895m5.705.554c-.832 0-1.48.323-1.959.964-.476.642-.734 1.435-.767 2.377 0 .917.248 1.699.741 2.348.495.646 1.155.97 1.987.97.578 0 1.074-.145 1.492-.435a2.67 2.67 0 00.939-1.192c.208-.505.311-1.07.311-1.691 0-.957-.24-1.75-.721-2.388-.48-.634-1.154-.953-2.023-.953zm37.137-.555a6.637 6.637 0 012.115-2.313 5.431 5.431 0 012.849-.957c.869 0 1.588.134 2.158.405.568.266 1.064.65 1.48 1.141a1.91 1.91 0 01.743-.927c.327-.21.69-.317 1.087-.317.547 0 1.016.184 1.404.55.389.37.582.877.582 1.528v9.649c0 .492-.156.939-.472 1.343-.317.403-.75.634-1.311.685-.56 0-1.017-.14-1.357-.42-.346-.278-.568-.555-.673-.823-.794.998-1.922 1.497-3.381 1.497-1.235 0-2.314-.336-3.242-1.01-.924-.675-1.64-1.562-2.142-2.657a9.16 9.16 0 01-.83-3.478c.058-1.474.392-2.771.993-3.895m5.703.554c-.826 0-1.48.323-1.957.964-.481.642-.732 1.435-.768 2.377 0 .917.245 1.703.743 2.348.494.646 1.156.97 1.982.97.582 0 1.08-.145 1.496-.435.418-.29.729-.688.935-1.192a4.37 4.37 0 00.317-1.691c0-.957-.241-1.75-.721-2.388-.481-.634-1.154-.953-2.027-.953zm-88.994 8.461v-6.742c0-1.14-.273-2.106-.822-2.899-.55-.793-1.295-1.38-2.23-1.768-.936-.38-1.977-.573-3.123-.573-1.758 0-3.22.45-4.396 1.342-1.178.896-1.767 2.195-1.767 3.898v6.742c0 .575.189 1.065.574 1.468.379.408.851.61 1.417.61.567 0 1.063-.202 1.43-.604.367-.403.55-.893.55-1.472v-6.13c0-.717.22-1.26.66-1.629a2.3 2.3 0 011.534-.552c.586 0 1.111.183 1.56.552.451.373.674.916.674 1.63v6.129c0 .575.182 1.065.543 1.468.361.408.826.61 1.386.61.594 0 1.075-.202 1.45-.605.374-.402.56-.892.56-1.471m66.784-.05v-6.74c0-1.141-.274-2.108-.827-2.9a4.953 4.953 0 00-2.228-1.766c-.936-.383-1.979-.576-3.127-.576-1.751 0-3.218.45-4.395 1.342-1.177.898-1.762 2.195-1.762 3.9v6.74c0 .575.187 1.065.568 1.468.383.406.854.608 1.416.608.59 0 1.066-.202 1.434-.604.363-.399.548-.895.548-1.474V19.64c0-.72.219-1.26.658-1.628.438-.37.953-.554 1.533-.554s1.116.185 1.567.554c.445.374.669.914.669 1.628v6.127c0 .575.182 1.065.545 1.468.363.406.826.608 1.39.608.565 0 1.075-.202 1.452-.604.37-.399.56-.895.56-1.474m13.923.005v-6.74c0-1.141-.279-2.108-.827-2.9a4.964 4.964 0 00-2.23-1.766c-.935-.383-1.977-.576-3.123-.576-1.753 0-3.22.45-4.396 1.342-1.175.898-1.762 2.195-1.762 3.9v6.74c0 .575.19 1.065.569 1.468.379.406.852.608 1.416.608s1.066-.202 1.43-.604c.366-.399.552-.895.552-1.474V19.64c0-.72.219-1.26.659-1.628a2.3 2.3 0 011.535-.554 2.39 2.39 0 011.559.554c.452.374.674.914.674 1.628v6.127c0 .575.182 1.065.543 1.468.363.406.826.608 1.387.608.593 0 1.08-.202 1.453-.604.371-.399.561-.895.561-1.474m-57.767-5.268c.586 0 1.04.158 1.365.482.328.321.494.718.494 1.196 0 .444-.166.826-.494 1.138-.33.309-.79.468-1.365.468H82.45c-.601 0-1.08-.16-1.43-.468a1.6 1.6 0 01-.561-1.138c.025-.453.218-.848.581-1.18.36-.33.83-.498 1.41-.498h3.475zm76.51 7.347a2.082 2.082 0 01-1.52-.638 2.066 2.066 0 01-.642-1.518c0-.592.216-1.13.637-1.558a2.063 2.063 0 011.525-.646c.594 0 1.143.214 1.573.642.43.428.644.949.644 1.561 0 .613-.214 1.105-.648 1.523a2.15 2.15 0 01-1.569.634zm3.804-11.934c0-.659.199-1.17.589-1.532a1.987 1.987 0 011.399-.546c.447 0 .847.11 1.211.319.356.213.614.519.771.923.822-1.028 1.786-1.544 2.9-1.544.548.026 1 .247 1.353.671.35.424.527.908.527 1.457 0 .579-.198 1.009-.595 1.279-.401.272-.983.525-1.75.764-.768.235-1.289.453-1.568.646-.582.387-.869 1.079-.869 2.069v4.99c0 .748-.211 1.296-.625 1.65-.416.354-.947.533-1.59.533-.518-.088-.939-.31-1.263-.671-.329-.36-.495-.844-.495-1.457v-9.55h.005zm22.682-.301v6.74c0 1.14-.272 2.107-.825 2.895-.553.791-1.295 1.38-2.23 1.767-.936.385-1.977.58-3.123.58-1.754 0-3.221-.45-4.398-1.348-1.176-.892-1.762-2.193-1.762-3.895v-6.74c0-.579.19-1.065.568-1.473a1.884 1.884 0 011.418-.605c.588 0 1.067.203 1.432.601.367.403.549.895.549 1.478v6.127c0 .72.218 1.26.658 1.63.437.369.953.553 1.535.553s1.113-.184 1.564-.558c.447-.37.674-.91.674-1.625v-6.127c0-.58.181-1.066.538-1.474.363-.402.826-.605 1.391-.605.565 0 1.074.203 1.449.601.375.403.561.895.561 1.478"/></g></g><defs><clipPath id="clip0_2497_51019"><path fill="#fff" transform="translate(.5 .5)" d="M0 0h189v35H0z"/></clipPath></defs></svg>