<svg width="350" height="310" fill="none" xmlns="http://www.w3.org/2000/svg"><path d="M349.002 107.41a173.544 173.544 0 00-59.539-38.781 174.03 174.03 0 00-139.123 5.615 173.4 173.4 0 00-56.196 43.452 172.698 172.698 0 00-33.974 62.273 172.296 172.296 0 00-6.04 70.625 172.474 172.474 0 0022.908 67.104A173.108 173.108 0 00125.044 370" stroke="#8F7E65" stroke-opacity=".35"/><path d="M151.938 1a172.305 172.305 0 019.167 78.582 172.499 172.499 0 01-26.922 74.423 173.221 173.221 0 01-57.373 54.679A173.922 173.922 0 011 232.168" stroke="#8F7E65" stroke-opacity=".35"/></svg>