<svg width="237" height="296" fill="none" xmlns="http://www.w3.org/2000/svg"><path d="M-112.002 188.59a173.543 173.543 0 0059.54 38.781 174.04 174.04 0 00139.122-5.615 173.404 173.404 0 0056.196-43.452 172.69 172.69 0 0033.974-62.273 172.3 172.3 0 006.041-70.625 172.487 172.487 0 00-22.909-67.104A173.101 173.101 0 00111.956-74" stroke="#8F7E65" stroke-opacity=".35"/><path d="M85.062 295a172.313 172.313 0 01-9.167-78.582 172.493 172.493 0 0126.922-74.423 173.222 173.222 0 0157.373-54.679A173.917 173.917 0 01236 63.832" stroke="#8F7E65" stroke-opacity=".35"/></svg>