<svg width="69" height="69" fill="none" xmlns="http://www.w3.org/2000/svg"><path d="M35.233 31.527c-.079 0-.161-.007-.247-.021a2.124 2.124 0 01-.235-.033v-1.295h.16a.957.957 0 00.471-.107.773.773 0 00.322-.322c.078-.15.132-.331.16-.546.05-.45.09-.895.118-1.338.036-.45.071-1.081.107-1.895h4.454v5.418h-1.67v-4.454H37.01a43.56 43.56 0 01-.193 2.74c-.071.614-.242 1.078-.514 1.393-.264.306-.62.46-1.07.46zm9.424.021a3.2 3.2 0 01-1.542-.374 2.827 2.827 0 01-1.082-1.028 2.809 2.809 0 01-.396-1.467c0-.55.129-1.042.386-1.478.257-.435.61-.774 1.06-1.017a3.1 3.1 0 011.53-.375 2.92 2.92 0 011.435.354c.429.228.764.546 1.007.953.25.4.375.853.375 1.36 0 .1-.011.2-.032.3-.015.1-.033.195-.054.288h-4.818v-.867h3.822l-.503.621v-.086c0-.456-.046-.831-.14-1.124-.085-.3-.22-.52-.406-.664a1.013 1.013 0 00-.675-.224 1.1 1.1 0 00-.696.224c-.192.15-.342.372-.45.664-.1.293-.149.65-.149 1.07 0 .393.068.74.203 1.04.143.292.343.52.6.685.264.157.571.235.92.235.322 0 .629-.075.922-.225.292-.157.52-.364.685-.62l.492.47c-.214.379-.553.69-1.017.932-.457.235-.95.353-1.477.353zm4.85-.16v-4.454h-1.895v-.964h5.471l-.171.964h-1.734v4.454h-1.67zM6.464 62.746v-6.662h4.94l-.153.99H8.08v5.672H6.465zm5.668 0l2.722-6.662h1.39l2.722 6.662h-1.733l-1.893-4.91h-.077l-1.95 4.91h-1.18zm1.057-1.418l.333-.933h3.816l.333.933H13.19zm7.8 1.418v-6.662h2.73c.578 0 1.082.095 1.514.285.438.184.774.448 1.009.79.24.337.361.73.361 1.18 0 .451-.12.848-.361 1.19-.235.336-.571.6-1.01.79-.43.184-.935.276-1.512.276h-1.856v-.875h1.665c.273 0 .514-.057.724-.172.209-.114.37-.276.485-.485.114-.21.171-.45.171-.723 0-.273-.057-.514-.171-.724a1.192 1.192 0 00-.485-.485 1.486 1.486 0 00-.724-.171h-.923v5.786h-1.618zm6.662 0l2.722-6.662h1.39l2.722 6.662h-1.732l-1.894-4.91h-.077l-1.95 4.91h-1.18zm1.057-1.418l.333-.933h3.816l.333.933h-4.482zm12.33 1.418v-6.662h1.617v6.662h-1.617zm-4.53 0v-6.662h1.617v6.662h-1.618zm.837-2.855v-.99h4.473v.99h-4.473zm9.615 2.855v-5.672h-2.227v-.99h6.072l-.152.99h-2.075v5.672H46.96zm5.921 0v-6.662h1.542v4.644h.076l3.189-4.644h1.465v6.662h-1.541v-4.644h-.077l-3.188 4.644h-1.466zm12.944 0V56.96h-1.009c-.254 0-.479.053-.676.161-.19.102-.34.248-.447.438a1.31 1.31 0 00-.162.657c0 .247.054.466.162.657.108.19.257.339.447.447.197.101.422.152.676.152h1.846v.876H64.76c-.603 0-1.123-.083-1.56-.248-.439-.171-.775-.415-1.01-.733a1.91 1.91 0 01-.352-1.151c0-.444.118-.825.352-1.142.235-.324.571-.568 1.01-.733.437-.171.957-.257 1.56-.257h2.684v6.662h-1.618zm-4.502 0l2.151-3.131 1.4.476-1.79 2.655h-1.76zM10.847 49.037c.507-.718.95-1.583 1.33-2.596a8.77 8.77 0 00.57-3.102V13.583c0-1.182-.233-2.047-.697-2.596-.464-.591-1.118-.886-1.963-.886-.633 0-1.435.21-2.405.633v-.95l9.18-4.748h.633v38.303c0 1.055.19 2.09.57 3.102.38 1.013.823 1.878 1.33 2.596v.316h-8.548v-.316z" fill="#0F6062"/><path d="M64.55 27.38c0 12.165-9.144 22.027-20.425 22.027-11.28 0-20.426-9.861-20.426-22.027 0-12.165 9.145-22.026 20.426-22.026 11.28 0 20.425 9.861 20.425 22.026zm-36.337 0c0 9.478 7.124 17.16 15.912 17.16s15.912-7.682 15.912-17.16c0-9.477-7.124-17.16-15.912-17.16s-15.913 7.683-15.913 17.16z" fill="#0F6062"/></svg>