<svg width="105" height="74" fill="none" xmlns="http://www.w3.org/2000/svg"><g clip-path="url(#clip0_1645_27769)" stroke="#0F6062" stroke-width="2" stroke-miterlimit="10"><path d="M44.438 6.188h18.14v37.124H36.375V14.439l8.063-8.25z"/><path d="M47.125 4.125l3.36-3.438h18.14v37.126h-4.703M36.375 14.438h8.063v-8.25"/></g><path d="M17.052 61.18a3.535 3.535 0 01-1.737-.432 3.3 3.3 0 01-1.224-1.197 3.344 3.344 0 01-.441-1.701c0-.624.146-1.188.44-1.692.3-.51.709-.909 1.225-1.197a3.478 3.478 0 011.737-.441c.558 0 1.073.12 1.547.36.474.234.843.558 1.107.972l-.485.468c-.24-.3-.523-.531-.846-.693a2.173 2.173 0 00-1-.243 1.92 1.92 0 00-1.088.324 2.16 2.16 0 00-.765.882c-.18.372-.27.792-.27 1.26 0 .474.092.9.278 1.278.187.372.445.663.775.873.33.21.701.315 1.116.315.372 0 .723-.09 1.053-.27.335-.18.62-.432.854-.756l.486.468c-.335.48-.735.837-1.197 1.071-.456.234-.977.351-1.566.351zm4.885-.18v-6.3h4.878l-.144.936h-3.204v4.428h3.456V61h-4.986zm.837-2.727v-.936h3.069l-.135.936h-2.934zM29.046 61v-6.3h2.583c.546 0 1.023.09 1.43.27.415.174.733.423.955.747.228.318.342.69.342 1.116 0 .426-.114.801-.342 1.125-.222.318-.54.567-.954.747-.408.174-.885.261-1.431.261h-1.755v-.828h1.575c.258 0 .486-.054.684-.162.198-.108.35-.261.459-.459.108-.198.162-.426.162-.684 0-.258-.054-.486-.162-.684a1.127 1.127 0 00-.46-.459 1.406 1.406 0 00-.683-.162h-.873V61h-1.53zm8.892 0v-5.364h-2.106V54.7h5.742l-.144.936h-1.962V61h-1.53zm5.599 0v-6.3h1.458v4.392h.072l3.015-4.392h1.386V61H48.01v-4.392h-.072L44.923 61h-1.386zm12.6-.414v-.81h.495c.372 0 .7-.078.981-.234.282-.162.498-.387.648-.675.156-.294.234-.633.234-1.017 0-.384-.078-.72-.234-1.008a1.62 1.62 0 00-.657-.675 1.885 1.885 0 00-.972-.243h-.495v-.81h.495c.666 0 1.263.117 1.791.351.528.234.94.558 1.233.972.294.414.441.885.441 1.413a2.42 2.42 0 01-.44 1.422c-.295.414-.706.738-1.234.972-.522.228-1.119.342-1.79.342h-.496zm-.98 0c-.673 0-1.273-.114-1.8-.342-.523-.234-.93-.558-1.225-.972a2.42 2.42 0 01-.44-1.422c0-.528.146-.999.44-1.413.294-.414.705-.738 1.233-.972.528-.234 1.125-.351 1.791-.351h.495v.81h-.495c-.372 0-.699.081-.98.243a1.636 1.636 0 00-.649.675 2.084 2.084 0 00-.234 1.008c0 .384.075.723.225 1.017.156.288.375.513.657.675.282.156.61.234.981.234h.495v.81h-.495zm0 .819v-7.11h1.475v7.11h-1.476zm7.16-.405v-6.3h1.458v4.392h.072l3.015-4.392h1.386V61H66.79v-4.392h-.072L63.703 61h-1.386zm12.79 0l-1.837-2.7h-1.593v-.936h1.746l1.755-2.664h1.233l-2.223 3.393.108-.756L76.78 61h-1.674zm-4.213 0v-6.3h1.53V61h-1.53zm6.96 0l2.574-6.3h1.314l2.574 6.3h-1.638l-1.79-4.644h-.073L78.97 61h-1.116zm1-1.341l.314-.882h3.61l.314.882h-4.239zM87.113 61v-5.364H85.01V54.7h5.742l-.144.936h-1.962V61h-1.53zM10.439 73.18a3.535 3.535 0 01-1.737-.432 3.3 3.3 0 01-1.224-1.197 3.344 3.344 0 01-.44-1.701c0-.624.146-1.188.44-1.692.3-.51.708-.909 1.224-1.197a3.478 3.478 0 011.737-.441c.558 0 1.074.12 1.548.36.474.234.843.558 1.107.972l-.486.468c-.24-.3-.522-.531-.846-.693a2.173 2.173 0 00-.999-.243 1.92 1.92 0 00-1.089.324 2.16 2.16 0 00-.765.882c-.18.372-.27.792-.27 1.26 0 .474.093.9.28 1.278.185.372.443.663.773.873.33.21.702.315 1.116.315.372 0 .723-.09 1.053-.27.336-.18.621-.432.855-.756l.486.468c-.336.48-.735.837-1.197 1.071-.456.234-.978.351-1.566.351zm7.859 0a3.693 3.693 0 01-1.782-.432 3.243 3.243 0 01-1.71-2.898c0-.63.15-1.197.45-1.701.3-.51.717-.909 1.25-1.197a3.712 3.712 0 011.792-.432c.66 0 1.257.144 1.79.432.535.288.952.687 1.252 1.197.3.504.45 1.071.45 1.701 0 .63-.15 1.2-.45 1.71-.3.504-.717.9-1.251 1.188a3.712 3.712 0 01-1.791.432zm0-.81c.372 0 .699-.102.98-.306.283-.21.499-.504.649-.882.156-.384.234-.828.234-1.332 0-.504-.078-.945-.234-1.323-.15-.384-.366-.678-.648-.882a1.598 1.598 0 00-.981-.315c-.366 0-.69.105-.972.315-.282.21-.501.507-.657.891-.156.378-.234.816-.234 1.314 0 .498.078.939.234 1.323.156.378.375.672.657.882.282.21.606.315.972.315zm8.876.81a3.693 3.693 0 01-1.782-.432 3.243 3.243 0 01-1.71-2.898c0-.63.15-1.197.45-1.701.3-.51.717-.909 1.25-1.197a3.712 3.712 0 011.792-.432c.66 0 1.257.144 1.79.432.535.288.952.687 1.252 1.197.3.504.45 1.071.45 1.701 0 .63-.15 1.2-.45 1.71-.3.504-.717.9-1.251 1.188a3.712 3.712 0 01-1.791.432zm0-.81c.372 0 .699-.102.98-.306.283-.21.499-.504.649-.882.156-.384.234-.828.234-1.332 0-.504-.078-.945-.234-1.323-.15-.384-.366-.678-.648-.882a1.598 1.598 0 00-.981-.315c-.366 0-.69.105-.972.315-.282.21-.501.507-.657.891-.156.378-.234.816-.234 1.314 0 .498.078.939.234 1.323.156.378.375.672.657.882.282.21.606.315.972.315zm7.008.63v-5.364h-2.106V66.7h5.742l-.144.936H35.71V73h-1.53zm5.6 0v-6.3h2.69c.474 0 .885.063 1.233.189.354.12.624.297.81.531.192.228.288.498.288.81 0 .21-.054.408-.162.594-.108.18-.258.336-.45.468a1.65 1.65 0 01-.648.27v.072c.336.042.63.138.882.288.252.144.444.333.576.567.138.234.207.495.207.783 0 .336-.102.636-.306.9-.204.258-.492.462-.864.612A3.522 3.522 0 0142.76 73h-2.98zm2.618-.828c.246 0 .46-.042.64-.126a.957.957 0 00.413-.351.964.964 0 00.153-.54c0-.312-.102-.558-.306-.738-.204-.186-.486-.279-.846-.279h-1.836v-.828h1.692c.186 0 .351-.039.495-.117a.873.873 0 00.477-.792.787.787 0 00-.279-.621c-.186-.168-.429-.252-.729-.252h-.963v4.644h1.09zm4.956.828v-6.3h4.878l-.144.936h-3.204v4.428h3.456V73h-4.986zm.837-2.727v-.936h3.07l-.136.936h-2.934zM55.887 73v-5.364H53.78V66.7h5.742l-.144.936h-1.962V73h-1.53zm8.447.18a3.535 3.535 0 01-1.737-.432 3.3 3.3 0 01-1.224-1.197 3.344 3.344 0 01-.44-1.701c0-.624.146-1.188.44-1.692.3-.51.708-.909 1.224-1.197a3.478 3.478 0 011.737-.441c.558 0 1.074.12 1.548.36.474.234.843.558 1.107.972l-.486.468c-.24-.3-.522-.531-.846-.693a2.173 2.173 0 00-.999-.243 1.92 1.92 0 00-1.089.324 2.16 2.16 0 00-.765.882c-.18.372-.27.792-.27 1.26 0 .474.093.9.28 1.278.185.372.443.663.773.873.33.21.702.315 1.116.315.372 0 .723-.09 1.053-.27.336-.18.621-.432.855-.756l.486.468c-.336.48-.735.837-1.197 1.071-.456.234-.978.351-1.566.351zm6.307-.18v-5.364h-2.106V66.7h5.742l-.144.936h-1.962V73h-1.53zm5.6 0v-6.3h2.69c.475 0 .886.063 1.234.189.354.12.624.297.81.531.192.228.288.498.288.81 0 .21-.054.408-.162.594-.108.18-.258.336-.45.468a1.65 1.65 0 01-.648.27v.072c.336.042.63.138.882.288.252.144.444.333.576.567.138.234.207.495.207.783 0 .336-.102.636-.306.9-.204.258-.492.462-.864.612A3.522 3.522 0 0179.22 73h-2.98zm2.619-.828c.246 0 .459-.042.639-.126a.957.957 0 00.414-.351.964.964 0 00.153-.54c0-.312-.102-.558-.306-.738-.204-.186-.486-.279-.846-.279h-1.836v-.828h1.692c.186 0 .35-.039.495-.117a.873.873 0 00.477-.792.787.787 0 00-.28-.621c-.185-.168-.428-.252-.728-.252h-.963v4.644h1.089zm4.956.828v-6.3h1.458v4.392h.072L88.36 66.7h1.386V73h-1.458v-4.392h-.072L85.202 73h-1.386zm12.24 0v-5.472h-.954c-.24 0-.453.051-.64.153a1.04 1.04 0 00-.422.414c-.102.18-.153.387-.153.621 0 .234.05.441.153.621.102.18.243.321.423.423.186.096.399.144.639.144h1.746v.828h-1.8c-.57 0-1.062-.078-1.476-.234-.414-.162-.732-.393-.954-.693a1.804 1.804 0 01-.333-1.089c0-.42.11-.78.333-1.08.222-.306.54-.537.954-.693.414-.162.906-.243 1.476-.243h2.538V73h-1.53zm-4.257 0l2.034-2.961 1.323.45L93.464 73h-1.665z" fill="#0F6062"/><defs><clipPath id="clip0_1645_27769"><path fill="#fff" transform="translate(31)" d="M0 0h43v44H0z"/></clipPath></defs></svg>