<svg width="105" height="73" fill="none" xmlns="http://www.w3.org/2000/svg"><path d="M16.358 15.525h13.887v2.535H19.2V37h-2.842V15.525zm13.653 11.016c0-3.564.957-6.352 2.87-8.364 1.915-2.022 4.386-3.032 7.413-3.032 1.982 0 3.77.473 5.361 1.42 1.592.948 2.803 2.27 3.633 3.97.84 1.69 1.26 3.609 1.26 5.757 0 2.178-.44 4.126-1.319 5.845-.878 1.718-2.123 3.022-3.735 3.91a10.719 10.719 0 01-5.215 1.32c-2.021 0-3.828-.49-5.42-1.466a9.427 9.427 0 01-3.618-3.999 12.12 12.12 0 01-1.23-5.361zm2.93.044c0 2.588.693 4.629 2.08 6.123 1.396 1.484 3.144 2.227 5.244 2.227 2.138 0 3.896-.752 5.273-2.256 1.387-1.504 2.08-3.638 2.08-6.402 0-1.748-.298-3.271-.893-4.57-.586-1.309-1.45-2.32-2.593-3.032-1.133-.723-2.407-1.084-3.823-1.084-2.012 0-3.745.693-5.2 2.08-1.446 1.377-2.169 3.681-2.169 6.914zm36.606 2.886l2.842.718c-.596 2.334-1.67 4.116-3.223 5.346-1.543 1.22-3.433 1.831-5.669 1.831-2.314 0-4.2-.468-5.654-1.406-1.446-.947-2.55-2.315-3.31-4.102-.753-1.787-1.129-3.706-1.129-5.756 0-2.237.425-4.185 1.275-5.845.86-1.67 2.075-2.935 3.647-3.794 1.582-.87 3.32-1.304 5.215-1.304 2.148 0 3.955.547 5.42 1.64 1.465 1.095 2.485 2.633 3.061 4.615l-2.797.66c-.498-1.563-1.221-2.701-2.168-3.414-.948-.713-2.139-1.07-3.575-1.07-1.65 0-3.032.396-4.145 1.187-1.104.791-1.88 1.856-2.33 3.194a12.792 12.792 0 00-.673 4.116c0 1.826.264 3.423.791 4.79.537 1.357 1.367 2.373 2.49 3.047a6.963 6.963 0 003.648 1.01c1.592 0 2.94-.458 4.043-1.376 1.103-.918 1.85-2.28 2.24-4.087zM80.372 37V18.06h-7.075v-2.535h17.021v2.535h-7.104V37h-2.842zM22.343 58h-1.142v-7.28a5.862 5.862 0 01-1.086.786 7.56 7.56 0 01-1.2.59v-1.104a6.902 6.902 0 001.676-1.092c.479-.427.817-.842 1.016-1.244h.736V58zm3.104-2.152l1.098-.101c.093.516.271.89.534 1.123.262.233.598.35 1.009.35.351 0 .658-.081.92-.242.267-.16.485-.375.654-.641.17-.27.311-.635.425-1.092a5.734 5.734 0 00.165-1.625c-.228.364-.541.66-.939.889a2.546 2.546 0 01-1.282.336 2.6 2.6 0 01-1.955-.838c-.534-.558-.8-1.295-.8-2.209 0-.943.277-1.703.831-2.279.559-.575 1.257-.863 2.095-.863a2.97 2.97 0 011.657.489c.503.326.884.791 1.142 1.396.263.601.394 1.473.394 2.616 0 1.189-.129 2.137-.387 2.844-.258.702-.643 1.237-1.155 1.605-.508.369-1.105.553-1.79.553-.728 0-1.323-.201-1.784-.603-.462-.407-.739-.976-.832-1.708zm4.678-4.107c0-.656-.175-1.176-.526-1.561-.347-.385-.766-.578-1.257-.578-.508 0-.95.207-1.327.622-.377.415-.565.952-.565 1.612 0 .593.178 1.075.533 1.448.36.368.802.552 1.327.552.529 0 .963-.184 1.301-.552.343-.373.514-.887.514-1.543zm8.316-.768l-1.136.089c-.102-.449-.246-.774-.432-.977a1.512 1.512 0 00-1.142-.49 1.57 1.57 0 00-.959.305c-.36.263-.643.646-.85 1.15-.208.503-.316 1.22-.324 2.151a2.646 2.646 0 012.26-1.238c.761 0 1.409.282 1.942.845.537.558.806 1.282.806 2.17 0 .584-.127 1.128-.38 1.632-.25.5-.596.882-1.036 1.149-.44.266-.939.4-1.498.4-.952 0-1.728-.35-2.33-1.048-.6-.702-.9-1.857-.9-3.465 0-1.799.332-3.107.996-3.923.58-.711 1.36-1.067 2.342-1.067.732 0 1.331.206 1.797.616.47.41.75.977.844 1.701zm-4.666 4.012c0 .393.083.77.248 1.13.17.36.404.634.704.825.301.186.616.28.946.28.483 0 .898-.195 1.244-.585.347-.39.521-.918.521-1.587 0-.643-.171-1.149-.514-1.517a1.685 1.685 0 00-1.295-.558 1.76 1.76 0 00-1.314.558c-.36.368-.54.853-.54 1.454zm7.732-2.031c-.474-.174-.825-.421-1.054-.743-.228-.322-.343-.707-.343-1.155 0-.677.244-1.247.73-1.708.487-.461 1.134-.692 1.943-.692.812 0 1.466.237 1.961.711a2.28 2.28 0 01.743 1.72 1.9 1.9 0 01-.343 1.13c-.224.318-.567.563-1.028.737.571.186 1.005.486 1.301.901.3.415.45.91.45 1.485 0 .796-.28 1.464-.844 2.006-.562.542-1.303.813-2.221.813-.919 0-1.66-.271-2.222-.813-.563-.546-.844-1.225-.844-2.037 0-.605.152-1.111.457-1.517.309-.411.747-.69 1.314-.838zm-.229-1.936c0 .44.142.8.426 1.079.283.279.651.419 1.104.419.44 0 .8-.138 1.08-.413.283-.28.425-.62.425-1.022 0-.419-.147-.77-.439-1.054a1.464 1.464 0 00-1.079-.431c-.436 0-.797.14-1.085.419a1.347 1.347 0 00-.432 1.003zm-.368 4.297c0 .326.076.641.229.946.156.304.387.541.692.71.304.166.632.248.983.248.546 0 .997-.175 1.352-.527.356-.35.534-.797.534-1.339 0-.55-.184-1.005-.553-1.365-.364-.36-.82-.54-1.37-.54-.538 0-.985.178-1.34.534-.351.355-.527.8-.527 1.333zM51.29 58h-1.143v-7.28a5.862 5.862 0 01-1.086.786 7.56 7.56 0 01-1.2.59v-1.104a6.902 6.902 0 001.677-1.092c.478-.427.816-.842 1.015-1.244h.737V58zm2.805-2.793v-1.149h3.51v1.149h-3.51zm10.461 1.695V58h-6.15c-.01-.275.035-.54.133-.794.156-.418.406-.831.749-1.237.347-.407.846-.876 1.498-1.41 1.011-.829 1.695-1.485 2.05-1.967.355-.487.533-.946.533-1.378 0-.452-.163-.833-.489-1.142-.321-.313-.742-.47-1.263-.47-.55 0-.99.165-1.32.495-.33.33-.497.787-.502 1.371l-1.174-.12c.08-.876.383-1.543.908-2 .525-.461 1.23-.692 2.114-.692.892 0 1.6.248 2.12.743s.78 1.109.78 1.84c0 .373-.076.74-.228 1.099-.152.36-.406.738-.762 1.136-.351.398-.937.944-1.758 1.638-.686.575-1.126.967-1.32 1.174a3.66 3.66 0 00-.483.616h4.564zm1.232-3.491c0-1.1.112-1.985.336-2.654.229-.672.565-1.19 1.01-1.555.448-.364 1.01-.546 1.688-.546.5 0 .937.102 1.314.305.376.199.687.489.933.87.245.376.438.837.578 1.383.14.542.209 1.274.209 2.197 0 1.091-.112 1.974-.336 2.647-.225.668-.561 1.187-1.01 1.555-.444.364-1.007.546-1.688.546-.897 0-1.602-.322-2.114-.965-.614-.775-.92-2.036-.92-3.783zm1.174 0c0 1.527.178 2.545.533 3.053.36.503.802.755 1.327.755.525 0 .965-.254 1.32-.761.36-.508.54-1.524.54-3.047 0-1.532-.18-2.55-.54-3.054-.355-.503-.8-.755-1.333-.755-.525 0-.944.222-1.257.667-.393.567-.59 1.614-.59 3.142zM77.327 58h-1.143v-7.28a5.862 5.862 0 01-1.085.786 7.56 7.56 0 01-1.2.59v-1.104a6.902 6.902 0 001.676-1.092c.478-.427.816-.842 1.015-1.244h.737V58zm8.861-7.027l-1.136.089c-.102-.449-.246-.774-.432-.977a1.512 1.512 0 00-1.142-.49 1.57 1.57 0 00-.959.305c-.36.263-.643.646-.85 1.15-.208.503-.316 1.22-.324 2.151a2.647 2.647 0 012.26-1.238c.761 0 1.409.282 1.942.845.537.558.806 1.282.806 2.17 0 .584-.127 1.128-.38 1.632-.25.5-.595.882-1.035 1.149-.44.266-.94.4-1.499.4-.952 0-1.728-.35-2.33-1.048-.6-.702-.9-1.857-.9-3.465 0-1.799.332-3.107.996-3.923.58-.711 1.36-1.067 2.342-1.067.733 0 1.331.206 1.797.616.47.41.75.977.844 1.701zm-4.666 4.012c0 .393.083.77.248 1.13.17.36.404.634.705.825.3.186.615.28.945.28.483 0 .897-.195 1.245-.585.347-.39.52-.918.52-1.587 0-.643-.171-1.149-.514-1.517a1.685 1.685 0 00-1.295-.558 1.76 1.76 0 00-1.314.558c-.36.368-.54.853-.54 1.454z" fill="#0F6062"/></svg>