<svg width="284" height="209" fill="none" xmlns="http://www.w3.org/2000/svg"><mask id="a" style="mask-type:alpha" maskUnits="userSpaceOnUse" x="0" y="0" width="284" height="209"><path d="M.5 208.5h283V.5H.5v208z" fill="#fff" stroke="#0F6062"/></mask><g mask="url(#a)" stroke="#0F6062" stroke-width="1.5" stroke-linecap="round" stroke-linejoin="round" stroke-dasharray="3 3"><path d="M-1.434-40.082c-4.228 5.125-8.457 10.25-8.457 21.354 0 21.354 16.914 21.354 16.914 42.709 0 22.208-16.914 20.5-16.914 42.708 0 21.354 16.914 21.354 16.914 42.708 0 11.104-4.228 16.229-8.457 21.354m0 .167c-4.228 5.125-8.457 10.25-8.457 21.354 0 21.354 16.914 21.354 16.914 42.708 0 22.209-16.914 20.5-16.914 42.709 0 21.354 16.914 21.354 16.914 42.708 0 11.104-4.228 16.229-8.457 21.354"/><path d="M9.746-40.082c-4.229 5.125-8.457 10.25-8.457 21.354 0 21.354 16.914 21.354 16.914 42.709 0 22.208-16.914 20.5-16.914 42.708 0 21.354 16.914 21.354 16.914 42.708 0 11.104-4.228 16.229-8.457 21.354m0 .167c-4.229 5.125-8.457 10.25-8.457 21.354 0 21.354 16.914 21.354 16.914 42.708 0 22.209-16.914 20.5-16.914 42.709 0 21.354 16.914 21.354 16.914 42.708 0 11.104-4.228 16.229-8.457 21.354"/><path d="M20.926-40.082c-4.229 5.125-8.457 10.25-8.457 21.354 0 21.354 16.914 21.354 16.914 42.709 0 22.208-16.914 20.5-16.914 42.708 0 21.354 16.914 21.354 16.914 42.708 0 11.104-4.229 16.229-8.457 21.354m0 .167c-4.229 5.125-8.457 10.25-8.457 21.354 0 21.354 16.914 21.354 16.914 42.708 0 22.209-16.914 20.5-16.914 42.709 0 21.354 16.914 21.354 16.914 42.708 0 11.104-4.229 16.229-8.457 21.354"/><path d="M32.105-40.082c-4.228 5.125-8.457 10.25-8.457 21.354 0 21.354 16.915 21.354 16.915 42.709 0 22.208-16.915 20.5-16.915 42.708 0 21.354 16.915 21.354 16.915 42.708 0 11.104-4.229 16.229-8.458 21.354m0 .167c-4.228 5.125-8.457 10.25-8.457 21.354 0 21.354 16.915 21.354 16.915 42.708 0 22.209-16.915 20.5-16.915 42.709 0 21.354 16.915 21.354 16.915 42.708 0 11.104-4.229 16.229-8.458 21.354"/><path d="M43.285-40.082c-4.228 5.125-8.457 10.25-8.457 21.354 0 21.354 16.914 21.354 16.914 42.709 0 22.208-16.914 20.5-16.914 42.708 0 21.354 16.914 21.354 16.914 42.708 0 11.104-4.228 16.229-8.457 21.354m0 .167c-4.228 5.125-8.457 10.25-8.457 21.354 0 21.354 16.914 21.354 16.914 42.708 0 22.209-16.914 20.5-16.914 42.709 0 21.354 16.914 21.354 16.914 42.708 0 11.104-4.228 16.229-8.457 21.354"/><path d="M54.465-40.082c-4.229 5.125-8.457 10.25-8.457 21.354 0 21.354 16.914 21.354 16.914 42.709 0 22.208-16.914 20.5-16.914 42.708 0 21.354 16.914 21.354 16.914 42.708 0 11.104-4.229 16.229-8.457 21.354m0 .167c-4.229 5.125-8.457 10.25-8.457 21.354 0 21.354 16.914 21.354 16.914 42.708 0 22.209-16.914 20.5-16.914 42.709 0 21.354 16.914 21.354 16.914 42.708 0 11.104-4.229 16.229-8.457 21.354"/><path d="M65.644-40.082c-4.228 5.125-8.457 10.25-8.457 21.354 0 21.354 16.915 21.354 16.915 42.709 0 22.208-16.915 20.5-16.915 42.708 0 21.354 16.915 21.354 16.915 42.708 0 11.104-4.229 16.229-8.458 21.354m0 .167c-4.228 5.125-8.457 10.25-8.457 21.354 0 21.354 16.915 21.354 16.915 42.708 0 22.209-16.915 20.5-16.915 42.709 0 21.354 16.915 21.354 16.915 42.708 0 11.104-4.229 16.229-8.458 21.354"/><path d="M76.82-40.082c-4.228 5.125-8.457 10.25-8.457 21.354 0 21.354 16.914 21.354 16.914 42.709 0 22.208-16.914 20.5-16.914 42.708 0 21.354 16.914 21.354 16.914 42.708 0 11.104-4.228 16.229-8.457 21.354m0 .167c-4.228 5.125-8.457 10.25-8.457 21.354 0 21.354 16.914 21.354 16.914 42.708 0 22.209-16.914 20.5-16.914 42.709 0 21.354 16.914 21.354 16.914 42.708 0 11.104-4.228 16.229-8.457 21.354"/><path d="M88-40.082c-4.229 5.125-8.457 10.25-8.457 21.354 0 21.354 16.914 21.354 16.914 42.709 0 22.208-16.914 20.5-16.914 42.708 0 21.354 16.914 21.354 16.914 42.708 0 11.104-4.228 16.229-8.457 21.354m0 .167c-4.229 5.125-8.457 10.25-8.457 21.354 0 21.354 16.914 21.354 16.914 42.708 0 22.209-16.914 20.5-16.914 42.709 0 21.354 16.914 21.354 16.914 42.708 0 11.104-4.228 16.229-8.457 21.354"/><path d="M99.18-40.082c-4.229 5.125-8.458 10.25-8.458 21.354 0 21.354 16.915 21.354 16.915 42.709 0 22.208-16.915 20.5-16.915 42.708 0 21.354 16.915 21.354 16.915 42.708 0 11.104-4.229 16.229-8.457 21.354m0 .167c-4.229 5.125-8.458 10.25-8.458 21.354 0 21.354 16.915 21.354 16.915 42.708 0 22.209-16.915 20.5-16.915 42.709 0 21.354 16.915 21.354 16.915 42.708 0 11.104-4.229 16.229-8.457 21.354"/><path d="M110.359-40.082c-4.228 5.125-8.457 10.25-8.457 21.354 0 21.354 16.914 21.354 16.914 42.709 0 22.208-16.914 20.5-16.914 42.708 0 21.354 16.914 21.354 16.914 42.708 0 11.104-4.228 16.229-8.457 21.354m0 .167c-4.228 5.125-8.457 10.25-8.457 21.354 0 21.354 16.914 21.354 16.914 42.708 0 22.209-16.914 20.5-16.914 42.709 0 21.354 16.914 21.354 16.914 42.708 0 11.104-4.228 16.229-8.457 21.354"/><path d="M121.539-40.082c-4.229 5.125-8.457 10.25-8.457 21.354 0 21.354 16.914 21.354 16.914 42.709 0 22.208-16.914 20.5-16.914 42.708 0 21.354 16.914 21.354 16.914 42.708 0 11.104-4.228 16.229-8.457 21.354m0 .167c-4.229 5.125-8.457 10.25-8.457 21.354 0 21.354 16.914 21.354 16.914 42.708 0 22.209-16.914 20.5-16.914 42.709 0 21.354 16.914 21.354 16.914 42.708 0 11.104-4.228 16.229-8.457 21.354"/><path d="M132.719-40.082c-4.229 5.125-8.457 10.25-8.457 21.354 0 21.354 16.914 21.354 16.914 42.709 0 22.208-16.914 20.5-16.914 42.708 0 21.354 16.914 21.354 16.914 42.708 0 11.104-4.229 16.229-8.457 21.354m0 .167c-4.229 5.125-8.457 10.25-8.457 21.354 0 21.354 16.914 21.354 16.914 42.708 0 22.209-16.914 20.5-16.914 42.709 0 21.354 16.914 21.354 16.914 42.708 0 11.104-4.229 16.229-8.457 21.354"/><path d="M143.898-40.082c-4.228 5.125-8.457 10.25-8.457 21.354 0 21.354 16.914 21.354 16.914 42.709 0 22.208-16.914 20.5-16.914 42.708 0 21.354 16.914 21.354 16.914 42.708 0 11.104-4.228 16.229-8.457 21.354m0 .167c-4.228 5.125-8.457 10.25-8.457 21.354 0 21.354 16.914 21.354 16.914 42.708 0 22.209-16.914 20.5-16.914 42.709 0 21.354 16.914 21.354 16.914 42.708 0 11.104-4.228 16.229-8.457 21.354"/><path d="M155.078-40.082c-4.228 5.125-8.457 10.25-8.457 21.354 0 21.354 16.914 21.354 16.914 42.709 0 22.208-16.914 20.5-16.914 42.708 0 21.354 16.914 21.354 16.914 42.708 0 11.104-4.228 16.229-8.457 21.354m0 .167c-4.228 5.125-8.457 10.25-8.457 21.354 0 21.354 16.914 21.354 16.914 42.708 0 22.209-16.914 20.5-16.914 42.709 0 21.354 16.914 21.354 16.914 42.708 0 11.104-4.228 16.229-8.457 21.354"/><path d="M166.254-40.082c-4.229 5.125-8.457 10.25-8.457 21.354 0 21.354 16.914 21.354 16.914 42.709 0 22.208-16.914 20.5-16.914 42.708 0 21.354 16.914 21.354 16.914 42.708 0 11.104-4.229 16.229-8.457 21.354m0 .167c-4.229 5.125-8.457 10.25-8.457 21.354 0 21.354 16.914 21.354 16.914 42.708 0 22.209-16.914 20.5-16.914 42.709 0 21.354 16.914 21.354 16.914 42.708 0 11.104-4.229 16.229-8.457 21.354"/><path d="M177.434-40.082c-4.229 5.125-8.458 10.25-8.458 21.354 0 21.354 16.915 21.354 16.915 42.709 0 22.208-16.915 20.5-16.915 42.708 0 21.354 16.915 21.354 16.915 42.708 0 11.104-4.229 16.229-8.457 21.354m0 .167c-4.229 5.125-8.458 10.25-8.458 21.354 0 21.354 16.915 21.354 16.915 42.708 0 22.209-16.915 20.5-16.915 42.709 0 21.354 16.915 21.354 16.915 42.708 0 11.104-4.229 16.229-8.457 21.354"/><path d="M188.613-40.082c-4.228 5.125-8.457 10.25-8.457 21.354 0 21.354 16.914 21.354 16.914 42.709 0 22.208-16.914 20.5-16.914 42.708 0 21.354 16.914 21.354 16.914 42.708 0 11.104-4.228 16.229-8.457 21.354m0 .167c-4.228 5.125-8.457 10.25-8.457 21.354 0 21.354 16.914 21.354 16.914 42.708 0 22.209-16.914 20.5-16.914 42.709 0 21.354 16.914 21.354 16.914 42.708 0 11.104-4.228 16.229-8.457 21.354"/><path d="M199.793-40.082c-4.229 5.125-8.457 10.25-8.457 21.354 0 21.354 16.914 21.354 16.914 42.709 0 22.208-16.914 20.5-16.914 42.708 0 21.354 16.914 21.354 16.914 42.708 0 11.104-4.229 16.229-8.457 21.354m0 .167c-4.229 5.125-8.457 10.25-8.457 21.354 0 21.354 16.914 21.354 16.914 42.708 0 22.209-16.914 20.5-16.914 42.709 0 21.354 16.914 21.354 16.914 42.708 0 11.104-4.229 16.229-8.457 21.354"/><path d="M210.973-40.082c-4.229 5.125-8.458 10.25-8.458 21.354 0 21.354 16.915 21.354 16.915 42.709 0 22.208-16.915 20.5-16.915 42.708 0 21.354 16.915 21.354 16.915 42.708 0 11.104-4.229 16.229-8.457 21.354m0 .167c-4.229 5.125-8.458 10.25-8.458 21.354 0 21.354 16.915 21.354 16.915 42.708 0 22.209-16.915 20.5-16.915 42.709 0 21.354 16.915 21.354 16.915 42.708 0 11.104-4.229 16.229-8.457 21.354"/><path d="M222.152-40.082c-4.228 5.125-8.457 10.25-8.457 21.354 0 21.354 16.914 21.354 16.914 42.709 0 22.208-16.914 20.5-16.914 42.708 0 21.354 16.914 21.354 16.914 42.708 0 11.104-4.228 16.229-8.457 21.354m0 .167c-4.228 5.125-8.457 10.25-8.457 21.354 0 21.354 16.914 21.354 16.914 42.708 0 22.209-16.914 20.5-16.914 42.709 0 21.354 16.914 21.354 16.914 42.708 0 11.104-4.228 16.229-8.457 21.354"/><path d="M233.332-40.082c-4.229 5.125-8.457 10.25-8.457 21.354 0 21.354 16.914 21.354 16.914 42.709 0 22.208-16.914 20.5-16.914 42.708 0 21.354 16.914 21.354 16.914 42.708 0 11.104-4.228 16.229-8.457 21.354m0 .167c-4.229 5.125-8.457 10.25-8.457 21.354 0 21.354 16.914 21.354 16.914 42.708 0 22.209-16.914 20.5-16.914 42.709 0 21.354 16.914 21.354 16.914 42.708 0 11.104-4.228 16.229-8.457 21.354"/><path d="M244.512-40.082c-4.229 5.125-8.457 10.25-8.457 21.354 0 21.354 16.914 21.354 16.914 42.709 0 22.208-16.914 20.5-16.914 42.708 0 21.354 16.914 21.354 16.914 42.708 0 11.104-4.229 16.229-8.457 21.354m0 .167c-4.229 5.125-8.457 10.25-8.457 21.354 0 21.354 16.914 21.354 16.914 42.708 0 22.209-16.914 20.5-16.914 42.709 0 21.354 16.914 21.354 16.914 42.708 0 11.104-4.229 16.229-8.457 21.354"/><path d="M255.691-40.082c-4.228 5.125-8.457 10.25-8.457 21.354 0 21.354 16.914 21.354 16.914 42.709 0 22.208-16.914 20.5-16.914 42.708 0 21.354 16.914 21.354 16.914 42.708 0 11.104-4.228 16.229-8.457 21.354m0 .167c-4.228 5.125-8.457 10.25-8.457 21.354 0 21.354 16.914 21.354 16.914 42.708 0 22.209-16.914 20.5-16.914 42.709 0 21.354 16.914 21.354 16.914 42.708 0 11.104-4.228 16.229-8.457 21.354"/><path d="M266.867-40.082c-4.228 5.125-8.457 10.25-8.457 21.354 0 21.354 16.914 21.354 16.914 42.709 0 22.208-16.914 20.5-16.914 42.708 0 21.354 16.914 21.354 16.914 42.708 0 11.104-4.228 16.229-8.457 21.354m0 .167c-4.228 5.125-8.457 10.25-8.457 21.354 0 21.354 16.914 21.354 16.914 42.708 0 22.209-16.914 20.5-16.914 42.709 0 21.354 16.914 21.354 16.914 42.708 0 11.104-4.228 16.229-8.457 21.354"/><path d="M278.047-40.082c-4.229 5.125-8.457 10.25-8.457 21.354 0 21.354 16.914 21.354 16.914 42.709 0 22.208-16.914 20.5-16.914 42.708 0 21.354 16.914 21.354 16.914 42.708 0 11.104-4.229 16.229-8.457 21.354m0 .167c-4.229 5.125-8.457 10.25-8.457 21.354 0 21.354 16.914 21.354 16.914 42.708 0 22.209-16.914 20.5-16.914 42.709 0 21.354 16.914 21.354 16.914 42.708 0 11.104-4.229 16.229-8.457 21.354"/><path d="M289.226-40.082c-4.228 5.125-8.457 10.25-8.457 21.354 0 21.354 16.915 21.354 16.915 42.709 0 22.208-16.915 20.5-16.915 42.708 0 21.354 16.915 21.354 16.915 42.708 0 11.104-4.229 16.229-8.458 21.354m0 .167c-4.228 5.125-8.457 10.25-8.457 21.354 0 21.354 16.915 21.354 16.915 42.708 0 22.209-16.915 20.5-16.915 42.709 0 21.354 16.915 21.354 16.915 42.708 0 11.104-4.229 16.229-8.458 21.354"/></g></svg>