<svg width="284" height="209" fill="none" xmlns="http://www.w3.org/2000/svg"><mask id="a" style="mask-type:alpha" maskUnits="userSpaceOnUse" x="0" y="0" width="284" height="209"><path d="M0 209h284V0H0v209z" fill="#fff"/></mask><g mask="url(#a)" stroke="#0F6062" stroke-width="1.6" stroke-dasharray="2.07 2.07"><path d="M25.382 314.646v-472.1m6 473.099v-472.1m6 471.101v-472.1m6 465.889v-472.1m6 476.239v-472.1m6 474.172v-472.1m6 470.028v-472.1m6 470.032v-472.1m6 476.24v-472.1m6 465.889v-472.1m6 482.453v-472.1m6 461.747v-472.1m6 472.1v-472.1m6 478.311v-472.1m6 474.172v-472.1m6 470.028v-472.1m6 465.889v-472.1m6 478.311v-472.1m6 465.889v-472.1m6 478.311v-472.1m6 465.889v-472.1m6 478.311v-472.1m6 465.889v-472.1m6 478.311v-472.1m6 465.889v-472.1m6 482.453v-472.1m12 467.958v-472.1m6 465.889v-472.1m6 465.888v-472.1m6 470.029v-472.1m6 474.171v-472.1m6 470.029v-472.1m6 474.171v-472.1m6 474.171v-472.1m6 470.029v-472.1m6 474.171v-472.1m6 470.029v-472.1m6 474.171v-472.1m6 470.029v-472.1m6 474.171v-472.1m6 470.029v-472.1m6 474.171v-472.1m6 473.1v-472.1m-102 479.38v-472.1m-180 474.172v-472.1m6 458.606v-472.1m6 471.1v-472.1m6 471.1v-472.1"/></g></svg>