<svg width="284" height="209" fill="none" xmlns="http://www.w3.org/2000/svg"><mask id="a" style="mask-type:alpha" maskUnits="userSpaceOnUse" x="0" y="0" width="284" height="209"><path d="M.8 208.2h282.4V.8H.8v207.4z" fill="#fff" stroke="#0F6062" stroke-width="1.6"/></mask><g mask="url(#a)" stroke="#0F6062" stroke-width="1.6" stroke-dasharray="1.64 1.64"><path d="M39.8-75v327.932M116.8-74v327.932M127.8-73v327.932M61.8-73v327.932M6.8-63.932V264m11-326.932V265m11-328.932V264m55-326.932V265m11-328.932V264m11-328.932V263m33-326.932V264m11-328.932V263m11-326.932V264m11-326.932V265m11-328.932V264m11-328.932V263m11-328.37v327.932m11-326.933v327.932m11-330.37v327.932m11-327.494v327.932m11-325.493V264m11-329.37v327.932m11-329.371v327.932m11-326.493v327.932M50.8-63.932V264m22-327.932V264"/></g></svg>