<svg width="284" height="209" fill="none" xmlns="http://www.w3.org/2000/svg"><mask id="a" style="mask-type:alpha" maskUnits="userSpaceOnUse" x="0" y="0" width="284" height="209"><path d="M.8 208.2h282.4V.8H.8v207.4z" fill="#fff" stroke="#0F6062" stroke-width="1.6"/></mask><g mask="url(#a)" stroke="#0F6062" stroke-width="1.6" stroke-dasharray="1.64 1.64"><path d="M69.46-145.325l-173.778 278.102M279.776-13.905L105.999 264.197M89.811-132.607L-83.966 145.495M300.128-1.187L126.35 276.915m-7.386-380.693L-54.814 174.324M165.925-73.255L-7.853 204.847M172.182-68.167L-1.595 209.935m133.07-303.538L-42.302 184.499M96.596-128.368L-77.181 149.734M306.913 3.052L133.135 281.154M70.909-132.548l-173.778 278.102M281.225-1.127L107.448 276.975M77.694-128.308L-96.083 149.795M288.01 3.112L114.233 281.215M98.046-115.59L-75.732 162.512M308.362 15.83L134.585 293.932M104.3-110.503L-69.478 167.599m384.625-147.53L141.37 298.172M321.401 25.157L147.624 303.259m181.09-274.711L154.936 306.65M334.971 33.636L161.194 311.738m181.09-274.712L168.506 315.129M349.069 41.267L175.292 319.369m181.09-274.712L182.604 322.759M362.635 49.745L188.858 327.847M369.952 53.136L196.174 331.238M376.206 58.224L202.428 336.326m-90.812-443.437L-62.161 170.991M145.007-85.066L-28.771 193.036M152.323-81.675L-21.454 196.427M159.635-78.284L-14.142 199.818M179.46-64.718L5.682 213.384m181.09-274.71L12.995 216.776M193.026-56.239L19.249 221.863M199.284-51.151L25.506 226.951m181.09-274.712L32.819 230.341m181.09-274.71L40.131 233.733M220.928-40.502L47.151 237.6M227.182-35.415L53.405 242.687m181.852-275.93L61.479 244.859M241.811-28.632L68.034 249.47M247.303-22.324L73.526 255.778M254.85-19.305L81.073 258.798M262.397-16.285L88.62 261.817M268.417-10.826L94.639 267.276m30.543-365.909L-48.595 179.469M138.753-90.154L-35.025 187.948"/></g></svg>