<svg width="58" height="58" fill="none" xmlns="http://www.w3.org/2000/svg"><path d="M9.439 20.776a1.38 1.38 0 00-1.049.229c-.303.214-.5.537-.556.907L7.3 25.441c-.056.371.038.736.264 1.028.227.293.558.476.934.519l20.824 1.57.503-3.328-20.387-4.454zm30.075 19.079l.467-3.097a.132.132 0 00-.016-.084c-.01-.016-.949-1.623-.743-2.989.206-1.36 1.822-2.59 1.838-2.602a.126.126 0 00.043-.056c.37-.957.64-1.987.803-3.065.531-3.509-.707-11.585-7.175-14.625-.308-.145-.525-.18-.661-.109-.199.107-.176.39.13.796 1.897 2.523 2.898 5.643 2.55 7.95-.05.326-.126.627-.227.895-.693 1.836-2.632 2.784-5.173 2.594l-.502 3.323c1.594.38 3.044 1.218 3.859 2.268.516.667.735 1.38.632 2.062-.207 1.367-1.58 2.635-1.595 2.647a.127.127 0 00-.04.076l-.466 3.098a.635.635 0 00.539.723l5.007.732a.642.642 0 00.73-.537z" fill="#0F6062"/><path stroke="#0F6062" stroke-width="1.116" d="M52.442 47.976v4.465H4.558v-4.465z"/></svg>