<svg width="47" height="47" fill="none" xmlns="http://www.w3.org/2000/svg"><circle cx="23.5" cy="23.5" r="23" stroke="#0F6062"/><g clip-path="url(#clip0_1645_27665)"><path d="M22.583 12.84s-7.7 8.56-7.7 14.615c0 4.778 2.975 7.786 7.7 7.786s7.7-3.008 7.7-7.786c0-6.055-7.7-14.614-7.7-14.614zm.855 19.59v-1.298a3.194 3.194 0 002.268-.952c.601-.608.94-1.432.94-2.292h1.284a4.572 4.572 0 01-1.317 3.21 4.472 4.472 0 01-3.175 1.331z" fill="#0F6062"/></g><defs><clipPath id="clip0_1645_27665"><path fill="#fff" transform="translate(12 12.8)" d="M0 0h21v22.4H0z"/></clipPath></defs></svg>