<svg width="58" height="58" fill="none" xmlns="http://www.w3.org/2000/svg"><path d="M38.5 51c4.694 0 8.5-3.94 8.5-8.8a8.937 8.937 0 00-2.333-6.056c-1.076-1.175-1.615-1.762-1.766-2.155-.151-.392-.151-.911-.151-1.95V11.4c0-2.43-1.903-4.4-4.25-4.4s-4.25 1.97-4.25 4.4v20.64c0 1.038 0 1.557-.151 1.95-.152.392-.69.98-1.767 2.154A8.937 8.937 0 0030 42.2c0 4.86 3.805 8.8 8.5 8.8z" fill="#0F6062"/><path d="M13.467 25.095c-1.95 2.856-3.443 6.103-3.443 9.35-.331 4.6 2.691 13.535 17.43 12.467-1.637-3.31-2.456-9.807 4.913-16.684 0-.614-.915-2.554-2.218-3.575-6.967-5.454-7.74-10.908-7.74-10.908s-7.187 7.013-3.097 15.583c-3.715.624-5.445-3.895-5.845-6.233z" stroke="#0F6062" stroke-linecap="round" stroke-linejoin="round"/><path d="M40.558 42.5a2.058 2.058 0 11-4.115 0 2.058 2.058 0 014.115 0z" fill="#fff" stroke="#fff" stroke-width=".884"/><path d="M39 18a.5.5 0 00-1 0h1zm0 23V18h-1v23h1z" fill="#fff"/></svg>