<svg width="58" height="58" fill="none" xmlns="http://www.w3.org/2000/svg"><path d="M13.18 26.629l-9.398 6.644a.654.654 0 00.017 1.08l24.862 16.414a.654.654 0 00.712.006l25.798-16.42a.654.654 0 00.022-1.088l-9.535-6.636" stroke="#0F6062"/><path d="M53.415 35.026l1.778 1.238a.654.654 0 01-.022 1.09L29.373 53.772a.654.654 0 01-.712-.006L3.8 37.353a.654.654 0 01-.017-1.08l1.763-1.247" stroke="#0F6062"/><path d="M36.123 21.066l1.282 4.264 4.212 1.298-4.212 1.297-1.282 4.264-1.282-4.264-4.212-1.297 4.212-1.298 1.282-4.264zm-1.294-10.14l.527 1.755 1.735.535-1.735.534-.527 1.756-.528-1.756-1.735-.534 1.735-.535.528-1.755zM20.934 29.9l.528 1.755 1.734.534-1.734.535-.528 1.755-.528-1.755-1.734-.535 1.734-.534.528-1.756zM17.22 7l.566 1.881 1.858.573-1.858.572-.565 1.881-.566-1.88-1.858-.573 1.858-.573L17.221 7zm6.28 2l1.382 7.118L32 17.5l-7.118 1.382L23.5 26l-1.382-7.118L15 17.5l7.118-1.382L23.5 9z" fill="#0F6062"/></svg>