<svg width="58" height="58" fill="none" xmlns="http://www.w3.org/2000/svg"><path d="M44.57 41.028c2.411-7.597 2.26-22.649 2.93-29.542 0 0-3.892.536-8.394-.694C35.017 9.674 29.3 6 29.3 6s-6.034 3.71-10.32 4.792c-4.176 1.053-7.979.694-7.979.694.67 6.893 1.019 21.945 3.43 29.542C16.037 44.404 18.047 45.922 29.3 52c11.251-6.077 13.663-7.596 15.27-10.972z" stroke="#0F6062"/><path d="M36.955 20.348a.418.418 0 10.584-.597c-.024-.024-8.398-8.399-17.206-.043a.417.417 0 00.574.603c8.217-7.794 16.025.015 16.048.037z" fill="#0F6062"/><path d="M30.988 19.78a.416.416 0 00.196-.81c-.03-.007-10.31-2.645-12.179 9.402a.416.416 0 10.822.128c1.728-11.142 11.134-8.727 11.16-8.72zm2.295-.058a.416.416 0 00-.264.79c.012.004 4.38 1.416 4.93 7.824a.418.418 0 00.832-.069c-.598-6.958-5.484-8.54-5.498-8.545z" fill="#0F6062"/><path d="M37.43 34.12a.417.417 0 00.535-.64c-.458-.383-.807-1.213-1.074-2.176-.279-1.007-.46-2.157-.579-3.118-.215-1.729-.913-3.332-1.956-4.584-.752-.901-1.68-1.62-2.736-2.075a6.7 6.7 0 00-3.513-.492c-1.543.192-3.197.906-4.863 2.294a.416.416 0 10.532.64c1.532-1.277 3.038-1.932 4.432-2.105a5.879 5.879 0 013.083.43 6.546 6.546 0 012.425 1.84c.94 1.13 1.571 2.582 1.767 4.153.123.986.31 2.174.605 3.239.307 1.11.736 2.087 1.342 2.594z" fill="#0F6062"/><path d="M35.892 37.028a.417.417 0 00.535-.64c-.436-.364-.932-1.511-1.366-2.905-.502-1.612-.9-3.523-1.025-4.962a.42.42 0 00-.01-.064c-.263-1.564-.832-2.729-1.57-3.554a4.788 4.788 0 00-2.133-1.393 5.06 5.06 0 00-2.355-.16 5.152 5.152 0 00-2.582 1.213c-1.24 1.107-1.39 2.465-1.553 3.92-.013.117-.026.236-.049.425-.056.473-.114 1.024-.171 1.576-.26 2.486-.526 5.021-1.584 7.358a.417.417 0 00.76.343c1.113-2.457 1.385-5.062 1.652-7.616.053-.5.105-.997.172-1.563l.05-.431c.143-1.293.278-2.499 1.277-3.392a4.319 4.319 0 012.162-1.011 4.233 4.233 0 011.97.131c.64.204 1.25.579 1.765 1.155.638.714 1.133 1.74 1.368 3.14.129 1.49.54 3.467 1.06 5.133.477 1.53 1.06 2.823 1.627 3.297z" fill="#0F6062"/><path d="M34.664 38.78a.418.418 0 00.646-.53c-.31-.379-.972-1.38-1.632-2.62-.463-.872-.92-1.85-1.246-2.795-.3-.866-.386-1.507-.481-2.218a21.82 21.82 0 00-.196-1.256 9.98 9.98 0 00-.424-1.58 4.863 4.863 0 00-.61-1.18 2.393 2.393 0 00-2.864-.815c-.433.178-.83.484-1.135.917-.437.62-.684 1.501-.569 2.634.176 1.716.869 4.02 1.7 6.192 1.031 2.698 2.288 5.222 3.036 6.179a.416.416 0 10.656-.513c-.701-.897-1.906-3.331-2.913-5.963-.81-2.117-1.483-4.346-1.65-5.98-.093-.912.092-1.6.422-2.07.21-.298.479-.507.77-.626.286-.118.596-.15.892-.096.374.07.726.28.982.63.18.246.347.568.5.979.148.402.28.881.388 1.449.087.456.14.842.189 1.21.1.75.192 1.428.52 2.378.348 1.006.82 2.022 1.296 2.915.686 1.29 1.388 2.35 1.723 2.758zM22.706 26.134a.416.416 0 10-.76-.34c-.613 1.374-.735 3.22-.854 5.013-.116 1.74-.227 3.424-.776 4.43a.416.416 0 10.732.398c.637-1.17.754-2.944.876-4.775.114-1.72.232-3.492.782-4.726z" fill="#0F6062"/><path d="M29.325 28.4a.417.417 0 00-.832.042 22.682 22.682 0 001.417 6.774c.746 1.965 1.805 3.863 3.236 5.47a.417.417 0 00.623-.556c-1.36-1.526-2.368-3.334-3.079-5.208a21.847 21.847 0 01-1.365-6.523zm-.821 14.166a.417.417 0 00.692-.466 21.777 21.777 0 01-1.895-3.48c-.515-1.175-.937-2.352-1.348-3.519l.001-.002a.418.418 0 00-.807.077l-.063.297c-.334 1.58-.64 3.022-1.554 4.654a.417.417 0 00.728.408c.754-1.347 1.115-2.55 1.401-3.786.27.732.556 1.467.879 2.203a22.615 22.615 0 001.966 3.614z" fill="#0F6062"/></svg>