<svg width="58" height="58" fill="none" xmlns="http://www.w3.org/2000/svg"><circle cx="29.5" cy="28.5" r="23" stroke="#0F6062"/><path fill-rule="evenodd" clip-rule="evenodd" d="M30.182 15.748c-.196-1.605-2.543-1.544-2.657.069l-.256 3.62c-.08 1.142-1.466 1.66-2.275.851l-.632-.63c-1.057-1.056-2.785.154-2.155 1.507l.177.381c.505 1.083-.558 2.232-1.677 1.815l-3.067-1.145c-1.511-.563-2.541 1.538-1.17 2.387l3.381 2.093c.937.58.808 1.981-.219 2.38l-.962.375c-1.378.535-.994 2.58.484 2.58h.19c1.207 0 1.795 1.471.921 2.303l-2.324 2.21c-1.17 1.113.274 2.961 1.637 2.095l3.287-2.09c.953-.606 2.182.172 2.041 1.293l-.141 1.131c-.188 1.5 1.866 2.108 2.526.75l.379-.782c.512-1.055 2.039-.985 2.451.113l1.126 2.995c.567 1.508 2.824.908 2.568-.682l-.585-3.642c-.177-1.098.987-1.918 1.961-1.383l.306.168c1.253.689 2.565-.807 1.72-1.96l-.197-.268c-.664-.904.017-2.175 1.138-2.123l4.169.19c1.619.075 1.947-2.257.37-2.632l-3.653-.87c-1.155-.274-1.404-1.806-.396-2.433l1.766-1.098c1.335-.83.39-2.882-1.109-2.407l-2.134.678c-1.105.35-2.101-.776-1.618-1.83l.195-.424c.616-1.344-1.085-2.545-2.145-1.515l-.683.664c-.791.769-2.122.3-2.256-.796l-.482-3.938zM31.5 27a1.5 1.5 0 100-3 1.5 1.5 0 000 3zm-3.094 5.544c0 .978-.785 1.77-1.754 1.77a1.762 1.762 0 01-1.753-1.77c0-.977.785-1.77 1.753-1.77.969 0 1.754.793 1.754 1.77zm-1.888-4.503a.518.518 0 00.516-.52.518.518 0 00-.516-.521.518.518 0 00-.515.52c0 .288.23.52.515.52zm5.807 6.793a.725.725 0 01-.722.729.725.725 0 01-.722-.729c0-.403.323-.729.722-.729.399 0 .722.327.722.729zm2.785-4.894a.725.725 0 00.723-.729.726.726 0 00-.723-.729.725.725 0 00-.722.729c0 .402.324.729.722.729z" fill="#0F6062"/><path stroke="#0F6062" d="M13.354 11.646l33 33"/></svg>