<svg width="58" height="58" fill="none" xmlns="http://www.w3.org/2000/svg"><path d="M26.317 2.093a5.449 5.449 0 015.366 0l.199.112a6.449 6.449 0 004.11.769l.226-.033a5.449 5.449 0 015.004 1.938l.145.177.386-.317-.386.317a6.449 6.449 0 003.555 2.201l.222.05a5.449 5.449 0 013.966 3.617l.071.216a6.448 6.448 0 002.52 3.337l.189.127a5.449 5.449 0 012.392 4.805l-.012.227a6.45 6.45 0 001.144 4.022l.13.187a5.449 5.449 0 01.496 5.344l-.094.208a6.449 6.449 0 00-.386 4.164l.054.221a5.449 5.449 0 01-1.469 5.163l-.162.16a6.449 6.449 0 00-1.864 3.743l-.03.226a5.448 5.448 0 01-3.234 4.282l-.21.091a6.449 6.449 0 00-3.09 2.817l-.109.2a5.448 5.448 0 01-4.563 2.825l-.228.01a6.448 6.448 0 00-3.899 1.51l-.174.147a5.449 5.449 0 01-5.276.986l-.215-.074a6.448 6.448 0 00-4.182 0l-.215.074a5.449 5.449 0 01-5.276-.986l-.174-.147a6.448 6.448 0 00-3.9-1.51l-.227-.01a5.448 5.448 0 01-4.563-2.825l-.11-.2a6.449 6.449 0 00-3.09-2.817l-.209-.09a5.449 5.449 0 01-3.234-4.283l-.03-.226a6.448 6.448 0 00-1.864-3.743l-.162-.16a5.449 5.449 0 01-1.47-5.163l.055-.221a6.449 6.449 0 00-.386-4.164l-.094-.208a5.449 5.449 0 01.495-5.344l.13-.187a6.449 6.449 0 001.145-4.022l-.012-.227a5.449 5.449 0 012.392-4.805l.189-.127a6.449 6.449 0 002.52-3.337l.07-.217a5.449 5.449 0 013.967-3.615l.222-.051a6.449 6.449 0 003.555-2.201l.145-.177-.387-.316.387.316a5.449 5.449 0 015.004-1.938l.226.033a6.449 6.449 0 004.11-.769l.199-.112z" stroke="#0F6062"/><path d="M26.28 3.826a5.522 5.522 0 015.44 0 6.022 6.022 0 003.838.718 5.522 5.522 0 015.072 1.965 6.022 6.022 0 003.32 2.055 5.522 5.522 0 014.02 3.665 6.022 6.022 0 002.352 3.116 5.522 5.522 0 012.425 4.869 6.022 6.022 0 001.068 3.755 5.522 5.522 0 01.502 5.416 6.022 6.022 0 00-.36 3.888 5.522 5.522 0 01-1.489 5.232A6.022 6.022 0 0050.728 42a5.522 5.522 0 01-3.278 4.34 6.022 6.022 0 00-2.886 2.631 5.522 5.522 0 01-4.624 2.864 6.022 6.022 0 00-3.641 1.41 5.522 5.522 0 01-5.347 1 6.021 6.021 0 00-3.904 0 5.522 5.522 0 01-5.347-1 6.022 6.022 0 00-3.641-1.41 5.522 5.522 0 01-4.624-2.864 6.022 6.022 0 00-2.886-2.63A5.522 5.522 0 017.272 42a6.022 6.022 0 00-1.74-3.496 5.522 5.522 0 01-1.489-5.232 6.022 6.022 0 00-.36-3.888 5.522 5.522 0 01.502-5.416 6.022 6.022 0 001.068-3.755 5.522 5.522 0 012.425-4.87 6.022 6.022 0 002.353-3.115 5.522 5.522 0 014.02-3.665 6.022 6.022 0 003.32-2.055 5.522 5.522 0 015.071-1.965 6.022 6.022 0 003.838-.718z" stroke="#0F6062" stroke-width=".5"/><path d="M16.418 17.36c.113-.153.2-.337.26-.55.06-.22.09-.456.09-.71v-4.38c0-.253-.03-.487-.09-.7a1.671 1.671 0 00-.26-.56v-.05h2.97c.706 0 1.293.133 1.76.4.466.267.7.687.7 1.26 0 .44-.154.793-.46 1.06a2.143 2.143 0 01-1.1.5v.04c.32.04.62.137.9.29.28.147.503.35.67.61.173.26.26.567.26.92 0 .667-.264 1.153-.79 1.46-.527.307-1.174.46-1.94.46h-2.97v-.05zm2.61-.19c.306 0 .58-.067.82-.2.24-.14.423-.336.55-.59.133-.253.2-.55.2-.89 0-.353-.067-.656-.2-.91a1.354 1.354 0 00-.57-.59c-.24-.133-.524-.2-.85-.2h-.76v3.2c.113.06.24.107.38.14.146.027.29.04.43.04zm-.08-3.63c.44 0 .783-.133 1.03-.4.246-.267.37-.617.37-1.05 0-.273-.057-.52-.17-.74a1.145 1.145 0 00-.48-.51 1.388 1.388 0 00-.74-.19c-.247 0-.494.047-.74.14v2.75h.73zm4.216 3.82c.087-.127.153-.287.2-.48.053-.2.08-.416.08-.65v-2.24c0-.273-.03-.493-.09-.66a1.14 1.14 0 00-.27-.44v-.05l1.66-.56h.05v1.37h.05c.113-.44.307-.777.58-1.01.28-.24.67-.36 1.17-.36v1.25h-.58c-.42 0-.73.087-.93.26-.193.174-.29.467-.29.88v1.56c0 .233.023.45.07.65a1.6 1.6 0 00.21.48v.05h-1.91v-.05zm5.24.18c-.406 0-.726-.096-.96-.29-.226-.193-.34-.456-.34-.79 0-.367.13-.673.39-.92.267-.253.61-.44 1.03-.56.42-.12.864-.18 1.33-.18v-.62c0-.373-.113-.673-.34-.9-.226-.233-.536-.35-.93-.35a1.49 1.49 0 00-.77.2c-.22.133-.393.32-.52.56h-.1c.114-.433.35-.776.71-1.03.367-.253.797-.38 1.29-.38.627 0 1.117.177 1.47.53.36.347.54.803.54 1.37v2.51c0 .14.03.243.09.31a.3.3 0 00.22.09c.06 0 .114-.006.16-.02.047-.02.077-.04.09-.06l.05.05a.84.84 0 01-.39.35c-.173.087-.37.13-.59.13-.28 0-.506-.063-.68-.19a.817.817 0 01-.3-.54l-.03-.19.16.15h-.17c-.133.233-.316.42-.55.56-.226.14-.513.21-.86.21zm.73-.65a.695.695 0 00.62-.35.699.699 0 00.1-.36v-1.15c-.413.014-.743.117-.99.31-.24.194-.36.46-.36.8 0 .253.06.444.18.57.12.12.27.18.45.18zm5.144.65c-.3 0-.603-.03-.91-.09a3.442 3.442 0 01-.85-.28v-1.49h.1a2.8 2.8 0 00.47.86c.2.247.42.434.66.56.24.127.47.19.69.19.267 0 .483-.08.65-.24a.81.81 0 00.25-.61c0-.24-.09-.427-.27-.56-.173-.133-.463-.25-.87-.35a4.342 4.342 0 01-.92-.32 1.751 1.751 0 01-.6-.52c-.147-.22-.22-.493-.22-.82 0-.32.083-.6.25-.84a1.58 1.58 0 01.69-.55c.293-.133.623-.2.99-.2.247 0 .507.034.78.1.273.067.543.157.81.27v1.4h-.1a2.61 2.61 0 00-.42-.77 2.207 2.207 0 00-.6-.55c-.22-.133-.44-.2-.66-.2a.84.84 0 00-.59.21.713.713 0 00-.22.54c0 .154.04.287.12.4.087.107.21.197.37.27.167.074.383.147.65.22.373.1.687.22.94.36.253.134.453.314.6.54.153.22.23.5.23.84 0 .373-.097.683-.29.93a1.63 1.63 0 01-.74.53c-.307.113-.637.17-.99.17zm4.795 0c-.3 0-.603-.03-.91-.09a3.443 3.443 0 01-.85-.28v-1.49h.1a2.8 2.8 0 00.47.86c.2.247.42.434.66.56.24.127.47.19.69.19.267 0 .483-.08.65-.24a.81.81 0 00.25-.61c0-.24-.09-.427-.27-.56-.173-.133-.463-.25-.87-.35a4.344 4.344 0 01-.92-.32 1.753 1.753 0 01-.6-.52c-.147-.22-.22-.493-.22-.82 0-.32.083-.6.25-.84a1.58 1.58 0 01.69-.55c.293-.133.623-.2.99-.2.247 0 .507.034.78.1.273.067.543.157.81.27v1.4h-.1a2.61 2.61 0 00-.42-.77 2.207 2.207 0 00-.6-.55c-.22-.133-.44-.2-.66-.2a.84.84 0 00-.59.21.714.714 0 00-.22.54c0 .154.04.287.12.4.087.107.21.197.37.27.167.074.383.147.65.22.373.1.687.22.94.36.253.134.453.314.6.54.153.22.23.5.23.84 0 .373-.097.683-.29.93a1.63 1.63 0 01-.74.53c-.307.113-.637.17-.99.17z" fill="#0F6062"/><circle cx="12.934" cy="29.615" r="1.5" fill="#0F6062"/><path d="M21.692 36.615l5.78-14h2.28l5.78 14h-2.9l-4.36-10.98h-.14l-4.44 10.98h-2zm2.2-3.34l.58-1.58h7.88l.58 1.58h-9.04z" fill="#0F6062"/><circle cx="44.32" cy="29.615" r="1.5" fill="#0F6062"/><path d="M19.57 48.95c-.646 0-1.223-.153-1.73-.46a3.16 3.16 0 01-1.18-1.26c-.28-.54-.42-1.15-.42-1.83 0-.713.157-1.35.47-1.91.32-.566.76-1.006 1.32-1.32.56-.32 1.19-.48 1.89-.48.42 0 .817.047 1.19.14.38.094.687.197.92.31v1.87h-.1a3.31 3.31 0 00-.92-1.44c-.42-.386-.9-.58-1.44-.58-.4 0-.753.11-1.06.33-.3.214-.536.527-.71.94-.166.407-.25.894-.25 1.46 0 .6.114 1.14.34 1.62.227.48.54.86.94 1.14.407.274.867.41 1.38.41.467 0 .874-.116 1.22-.35.354-.24.637-.586.85-1.04h.1a3.06 3.06 0 01-.49 1.26c-.246.367-.57.657-.97.87-.393.214-.843.32-1.35.32zm5.36 0c-.314 0-.59-.07-.83-.21a1.518 1.518 0 01-.56-.6 1.983 1.983 0 01-.19-.88V45.4c0-.273-.03-.493-.09-.66a1.045 1.045 0 00-.26-.44v-.05l1.65-.56h.05v3.54c0 .274.08.5.24.68a.85.85 0 00.64.26c.173 0 .333-.036.48-.11a.908.908 0 00.36-.33.964.964 0 00.13-.5V45.4c0-.273-.03-.493-.09-.66a1.045 1.045 0 00-.26-.44v-.05l1.65-.56h.05v3.78c0 .274.03.494.09.66.06.167.15.307.27.42v.05l-1.66.35h-.05v-.98h-.05a1.736 1.736 0 01-.61.71c-.274.18-.593.27-.96.27zm4.251-.13v-.21l3.81-6.54h-1.11c-.453 0-.837.07-1.15.21a2 2 0 00-.78.58 3.436 3.436 0 00-.53.96h-.1l.24-2h5.13v.21l-3.81 6.54h1.24c.447 0 .827-.066 1.14-.2a2.09 2.09 0 00.78-.59c.207-.26.387-.58.54-.96h.1l-.25 2h-5.25zm6.577-.05c.087-.126.153-.286.2-.48.053-.2.08-.416.08-.65V45.4c0-.273-.03-.493-.09-.66a1.14 1.14 0 00-.27-.44v-.05l1.66-.56h.05v.98h.05a1.67 1.67 0 01.61-.7 1.66 1.66 0 01.96-.28c.487 0 .877.157 1.17.47.293.314.44.72.44 1.22v2.26c0 .234.023.45.07.65.053.194.123.354.21.48v.05h-1.91v-.05c.087-.126.153-.286.2-.48.053-.2.08-.416.08-.65v-2.23a.927.927 0 00-.25-.67.857.857 0 00-.66-.27c-.173 0-.337.04-.49.12a.834.834 0 00-.35.33.912.912 0 00-.13.49v2.23c0 .234.023.45.07.65.053.194.123.354.21.48v.05h-1.91v-.05z" fill="#0F6062"/></svg>