<svg width="58" height="58" fill="none" xmlns="http://www.w3.org/2000/svg"><path d="M12 36.621C12 23.104 29.23 4 29.23 4S32.153 23.74 32 34.5c-.125 8.813-2.77 19.5-2.77 19.5C18.657 54 12 47.285 12 36.621z" fill="#0F6062"/><path d="M28.986 4.326s17.81 18.779 17.81 32.296C46.797 47.285 39.573 53.5 29 53.5" stroke="#0F6062"/><path d="M29.795 4.326s-17.81 18.779-17.81 32.296c0 10.663 7.224 16.878 17.796 16.878" stroke="#0F6062"/><path d="M27.097 40l8.38-14h.86l-8.38 14h-.86zm.78-7.88c-.6 0-1.146-.127-1.64-.38a2.928 2.928 0 01-1.18-1.1c-.293-.48-.44-1.047-.44-1.7 0-.654.147-1.22.44-1.7.294-.48.687-.847 1.18-1.1a3.536 3.536 0 011.64-.38c.587 0 1.127.126 1.62.38.494.253.887.62 1.18 1.1.294.48.44 1.046.44 1.7 0 .653-.146 1.22-.44 1.7-.293.48-.686.846-1.18 1.1a3.494 3.494 0 01-1.62.38zm7.7 8.12a3.617 3.617 0 01-1.64-.38 2.928 2.928 0 01-1.18-1.1c-.293-.48-.44-1.047-.44-1.7 0-.654.147-1.22.44-1.7.294-.48.687-.847 1.18-1.1a3.615 3.615 0 011.64-.38c.587 0 1.127.126 1.62.38.493.253.887.62 1.18 1.1.293.48.44 1.046.44 1.7 0 .653-.147 1.22-.44 1.7-.293.48-.687.846-1.18 1.1a3.494 3.494 0 01-1.62.38zm0-.34c.467 0 .854-.247 1.16-.74.32-.507.48-1.207.48-2.1 0-.894-.16-1.587-.48-2.08-.306-.507-.693-.76-1.16-.76-.48 0-.88.246-1.2.74-.306.493-.46 1.193-.46 2.1 0 .906.154 1.606.46 2.1.32.493.72.74 1.2.74zm-7.7-8.12c.467 0 .854-.247 1.16-.74.32-.507.48-1.207.48-2.1 0-.934-.16-1.64-.48-2.12-.306-.48-.693-.72-1.16-.72-.48 0-.88.246-1.2.74-.306.493-.46 1.193-.46 2.1 0 .906.154 1.606.46 2.1.32.493.72.74 1.2.74z" fill="#0F6062"/><path d="M27.097 40l4.881-8.148L32 33.26 27.958 40h-.86zm.78-7.88c-.6 0-1.146-.127-1.64-.38a2.928 2.928 0 01-1.18-1.1c-.293-.48-.44-1.047-.44-1.7 0-.654.147-1.22.44-1.7.294-.48.687-.847 1.18-1.1a3.536 3.536 0 011.64-.38c.587 0 1.127.126 1.62.38.494.253.887.62 1.18 1.1.294.48.44 1.046.44 1.7 0 .653-.146 1.22-.44 1.7-.293.48-.686.846-1.18 1.1a3.494 3.494 0 01-1.62.38zm0-.34c.467 0 .854-.247 1.16-.74.32-.507.48-1.207.48-2.1 0-.934-.16-1.64-.48-2.12-.306-.48-.693-.72-1.16-.72-.48 0-.88.246-1.2.74-.306.493-.46 1.193-.46 2.1 0 .906.154 1.606.46 2.1.32.493.72.74 1.2.74z" fill="#fff"/></svg>