<svg width="41" height="28" fill="none" xmlns="http://www.w3.org/2000/svg"><rect x=".5" y=".5" width="40" height="27" rx="3.5" fill="#fff" stroke="#F3F3F3"/><path fill-rule="evenodd" clip-rule="evenodd" d="M6.633 9.801h.047c.337-.006 1.16-.02 1.518 1.178.254.848.658 2.238 1.213 4.168h.226a823.924 823.924 0 011.226-4.168c.358-1.196 1.22-1.184 1.639-1.178h3.011v9.047h-2.994v-5.331h-.2l-1.67 5.331h-2.25L6.73 13.513h-.2v5.335H3.534V9.801h3.098zm13.178 0v5.336h.239l2.03-4.388c.394-.873 1.233-.948 1.233-.948h2.897v9.047h-3.056v-5.335h-.239l-1.99 4.387c-.394.869-1.273.948-1.273.948h-2.897V9.801h3.056zm13.714 6.352c1.482 0 2.821-.856 3.247-2.053h-9.357v4.748h2.906v-2.695h3.204z" fill="#40A548"/><path d="M33.665 9.802h-6.403c.152 2.014 1.904 3.738 3.717 3.738h5.995c.346-1.674-.845-3.738-3.31-3.738z" fill="#1291D0"/></svg>