<svg width="72" height="25" fill="none" xmlns="http://www.w3.org/2000/svg"><mask id="a" style="mask-type:luminance" maskUnits="userSpaceOnUse" x="0" y="0" width="72" height="25"><path d="M0 0h72v25H0V0z" fill="#fff"/></mask><g mask="url(#a)"><path fill-rule="evenodd" clip-rule="evenodd" d="M48.43 10.388h-9.558c-1.582 0-2.294.433-2.584 1.326l-.897 2.86h9.558c1.583 0 2.294-.434 2.585-1.327l.897-2.859zM15.642 8.005H13.84c-3.614 0-6.7 8.95-2.436 8.942h2.744c1.582 0 2.752.564 2.233 2.09l-.712 2.096h-2.91l-2.366-.026c-3.025-.026-4.977-1.49-5.68-3.709-.765-2.4.316-7.4 3.429-10.606 1.811-1.863 4.317-2.98 7.527-2.98h5.936l-.933 2.625c-.597 1.698-1.829 1.568-2.524 1.568h-2.506zm35.006-4.176h-9.557c-1.583 0-2.295.433-2.586 1.326l-.897 2.86h9.559c1.582 0 2.295-.434 2.585-1.326l.896-2.86zm-4.545 13.127h-9.558c-1.583 0-2.295.434-2.586 1.326l-.897 2.86h9.559c1.582 0 2.294-.433 2.585-1.326l.897-2.86zM26.616 7.997h2.383c2.031 0 1.565 2.495.536 4.93-.906 2.14-2.506 4.038-4.414 4.038h-3.966c-1.583 0-2.312.434-2.62 1.326l-.976 2.85h2.91l2.84-.025c2.524-.018 4.582-.2 7-2.34 2.55-2.262 5.522-8.128 5.012-11.516-.396-2.66-1.847-3.44-5.364-3.44h-6.401l-3.729 10.745h2.366c1.407 0 2.119.017 2.867-1.967l1.556-4.601zm20.216 13.145h4.51l1.935-5.45 2.014-1.673 1.592 4.93c.492 1.525.993 2.193 2.101 2.193h3.456l-3.562-9.68 8.556-7.65h-5.53l-5.197 5.45c-.607.632-1.222 1.256-1.829 2.01h-.053l2.585-7.46H52.9l-6.068 17.33z" fill="#00A952"/></g></svg>