<svg width="41" height="28" fill="none" xmlns="http://www.w3.org/2000/svg"><rect x=".5" y=".5" width="40" height="27" rx="3.5" fill="#fff" stroke="#F3F3F3"/><path d="M18.202 19.203h-2.73l1.708-9.8h2.73l-1.708 9.8zm9.896-9.56a7.184 7.184 0 00-2.448-.417c-2.695 0-4.594 1.334-4.605 3.242-.023 1.408 1.359 2.19 2.392 2.659 1.056.48 1.415.792 1.415 1.22-.01.656-.853.96-1.64.96-1.09 0-1.673-.157-2.56-.522l-.36-.157-.382 2.2c.64.271 1.82.511 3.044.522 2.865 0 4.73-1.314 4.751-3.347.011-1.116-.718-1.97-2.29-2.67-.956-.448-1.54-.75-1.54-1.209.01-.417.494-.844 1.572-.844a4.943 4.943 0 012.033.375l.247.104.371-2.116z" fill="#15195A"/><path fill-rule="evenodd" clip-rule="evenodd" d="M32.985 9.402h2.112l2.202 9.8H34.77s-.247-1.125-.325-1.47H30.94l-.573 1.47h-2.864l4.054-8.987c.281-.636.776-.813 1.427-.813zm-.168 3.587s-.865 2.179-1.09 2.742h2.27c-.113-.49-.63-2.836-.63-2.836l-.19-.845a51.12 51.12 0 01-.276.719c-.053.136-.089.228-.084.22zM3.646 9.402h4.392c.596.021 1.079.198 1.236.824l.954 4.503v.001l.293 1.355 2.673-6.683h2.886l-4.29 9.79H8.903L6.47 10.677A11.631 11.631 0 003.602 9.6l.044-.198z" fill="#15195A"/></svg>