<svg width="41" height="28" viewBox="0 0 41 28" fill="none" xmlns="http://www.w3.org/2000/svg">
<g id="icon">
<rect id="Rectangle" x="0.5" y="0.5" width="40" height="27" rx="3.5" fill="white" stroke="#F3F3F3"/>
<path id="Combined-Shape" fill-rule="evenodd" clip-rule="evenodd" d="M6.63281 9.80135C6.64729 9.80126 6.66315 9.801 6.68027 9.80071C7.01694 9.79503 7.83971 9.78117 8.19821 10.9793C8.45198 11.8274 8.85623 13.2167 9.41094 15.1471H9.63685C10.2317 13.1119 10.6404 11.7227 10.8628 10.9793C11.2207 9.78326 12.0833 9.79499 12.5016 9.80067C12.5282 9.80104 12.553 9.80137 12.5758 9.80137L15.5126 9.80138V18.848H12.5193V13.5167H12.3186L10.6499 18.848H8.39785L6.72921 13.5127H6.52849V18.848H3.53516V9.80138L6.63281 9.80135ZM19.811 9.80138V15.1367H20.0498L22.0796 10.7495C22.4736 9.87644 23.3133 9.80138 23.3133 9.80138H26.21V18.848H23.1542V13.5127H22.9154L20.9254 17.8999C20.5314 18.769 19.6519 18.848 19.6519 18.848H16.7552V9.80138H19.811ZM33.5254 16.1532C35.0074 16.1532 36.346 15.2965 36.7723 14.1004H27.4148V18.848H30.3207V16.1532H33.5254Z" fill="#40A548"/>
<path id="path24" d="M33.6648 9.80176H27.2617C27.4141 11.8158 29.1657 13.54 30.9789 13.54H36.9735C37.3195 11.8661 36.1286 9.80176 33.6648 9.80176Z" fill="#1291D0"/>
</g>
</svg>
