<svg width="41" height="28" viewBox="0 0 41 28" fill="none" xmlns="http://www.w3.org/2000/svg">
<g id="icon">
<rect id="Rectangle" x="0.5" y="0.5" width="40" height="27" rx="3.5" fill="white" stroke="#F3F3F3"/>
<path id="Path" d="M24.2547 20.2834H16.9375V7.3584H24.2547V20.2834Z" fill="#FF5F00"/>
<path id="Path_2" d="M17.4067 13.82C17.4067 11.1981 18.6557 8.86263 20.6007 7.35753C19.1784 6.25693 17.3833 5.60002 15.4325 5.60002C10.8141 5.60002 7.07031 9.28018 7.07031 13.82C7.07031 18.3599 10.8141 22.04 15.4325 22.04C17.3833 22.04 19.1784 21.3831 20.6007 20.2825C18.6557 18.7774 17.4067 16.4419 17.4067 13.82Z" fill="#EB001B"/>
<path id="Path_3" d="M34.1208 13.82C34.1208 18.3599 30.377 22.04 25.7586 22.04C23.8077 22.04 22.0127 21.3831 20.5898 20.2825C22.5354 18.7774 23.7844 16.4419 23.7844 13.82C23.7844 11.1981 22.5354 8.86263 20.5898 7.35753C22.0127 6.25693 23.8077 5.60002 25.7586 5.60002C30.377 5.60002 34.1208 9.28018 34.1208 13.82Z" fill="#F79E1B"/>
</g>
</svg>
