<svg width="41" height="28" viewBox="0 0 41 28" fill="none" xmlns="http://www.w3.org/2000/svg">
<g id="icon">
<rect id="Rectangle" x="0.5" y="0.5" width="40" height="27" rx="3.5" fill="white" stroke="#F3F3F3"/>
<path id="polygon9" d="M18.2023 19.2028H15.4727L17.18 9.40234H19.9095L18.2023 19.2028Z" fill="#15195A"/>
<path id="path11" d="M28.0984 9.64283C27.56 9.44453 26.706 9.22559 25.6501 9.22559C22.9545 9.22559 21.0562 10.5601 21.0446 12.4679C21.0222 13.8756 22.4037 14.6574 23.4369 15.1268C24.493 15.6064 24.852 15.9194 24.852 16.3469C24.8412 17.0035 23.9986 17.3061 23.2127 17.3061C22.1229 17.3061 21.539 17.1501 20.6516 16.7848L20.2921 16.6282L19.9102 18.8282C20.5504 19.099 21.7299 19.3393 22.9545 19.3498C25.8186 19.3498 27.6833 18.036 27.7054 16.0028C27.7163 14.8872 26.9868 14.0323 25.4141 13.3337C24.4594 12.8853 23.8747 12.583 23.8747 12.1241C23.8859 11.707 24.3693 11.2798 25.447 11.2798C26.3344 11.2589 26.9864 11.4569 27.4803 11.6551L27.7272 11.7591L28.0984 9.64283Z" fill="#15195A"/>
<path id="path13" fill-rule="evenodd" clip-rule="evenodd" d="M32.9852 9.40234H35.0966L37.2987 19.2027H34.7713C34.7713 19.2027 34.524 18.0766 34.4456 17.7326H30.941C30.8396 17.9931 30.3681 19.2027 30.3681 19.2027H27.5039L31.5585 10.2155C31.8394 9.57944 32.3341 9.40234 32.9852 9.40234ZM32.817 12.9888C32.817 12.9888 31.952 15.1678 31.7272 15.7309H33.9961C33.8838 15.2409 33.3669 12.895 33.3669 12.895L33.1762 12.0505C33.0958 12.2679 32.9797 12.5669 32.9013 12.7686C32.8482 12.9053 32.8124 12.9972 32.817 12.9888Z" fill="#15195A"/>
<path id="Combined Shape" fill-rule="evenodd" clip-rule="evenodd" d="M3.64649 9.40234H8.03827C8.63355 9.42299 9.11658 9.60023 9.27376 10.2262L10.2281 14.7286C10.2283 14.7291 10.2284 14.7295 10.2285 14.73L10.5206 16.0853L13.1939 9.40234H16.0803L11.7897 19.1924H8.90318L6.47023 10.6767C5.63078 10.2211 4.67272 9.85466 3.60156 9.60037L3.64649 9.40234Z" fill="#15195A"/>
</g>
</svg>
