<svg width="129" height="25" viewBox="0 0 129 25" fill="none" xmlns="http://www.w3.org/2000/svg">
<g id="icon">
<path id="Vector" d="M125.458 13.2303C125.086 13.9583 124.394 14.4114 123.653 14.4114C122.55 14.4114 121.64 13.4391 121.573 12.202L121.568 12.1613C121.568 12.1257 121.563 12.0951 121.563 12.0595C121.563 11.6624 121.65 11.2705 121.819 10.9243C122.187 10.1709 122.889 9.70255 123.648 9.70255C124.403 9.70255 125.1 10.1658 125.468 10.909L125.502 10.9701L127.142 10.2676L127.108 10.1913C126.465 8.68443 125.076 7.70703 123.566 7.70703C121.858 7.70703 120.358 8.90842 119.84 10.7003C119.719 11.1228 119.656 11.5606 119.656 12.0086C119.656 12.0646 119.656 12.1206 119.661 12.1715C119.739 14.4928 121.456 16.3102 123.566 16.3102C125.057 16.3102 126.397 15.3989 127.065 13.9278L127.099 13.8514L125.482 13.1591L125.458 13.2303Z" fill="#453D36"/>
<path id="Vector_2" d="M91.396 11.1743H87.6699C87.6989 11.0878 87.7328 11.0114 87.7715 10.935C88.1393 10.1816 88.8409 9.71329 89.6007 9.71329C89.8765 9.71329 90.1475 9.77438 90.3991 9.89147C90.8588 10.1613 91.2169 10.6245 91.396 11.1743ZM91.7541 8.49664C91.6863 8.44573 91.6137 8.38973 91.5363 8.33883C91.5218 8.32865 91.5024 8.31847 91.4879 8.30828C91.4444 8.27774 91.4008 8.25229 91.3573 8.22683L91.2992 8.1912C91.2169 8.14539 91.1395 8.10466 91.0669 8.07412C91.0379 8.05884 91.0137 8.04866 90.9847 8.03339C90.9411 8.01303 90.8976 7.99776 90.854 7.97739C90.825 7.96721 90.8008 7.95703 90.7717 7.94685L90.7524 7.94176C90.6895 7.91631 90.6266 7.89595 90.5588 7.87558C90.5201 7.86031 90.4766 7.85013 90.4378 7.83995C90.3991 7.82977 90.3604 7.81959 90.3217 7.8094C90.2685 7.79922 90.2152 7.78395 90.162 7.77886C90.1233 7.77377 90.0846 7.76359 90.0459 7.7585C89.983 7.74832 89.9201 7.74323 89.8572 7.73305C89.8281 7.72795 89.7991 7.72795 89.77 7.72795C89.6926 7.72286 89.6104 7.71777 89.5329 7.71777H89.5184C89.4168 7.71777 89.3152 7.72286 89.2087 7.73305L89.1555 7.73814C89.0684 7.74832 88.9861 7.7585 88.899 7.77377L88.8361 7.78395C88.7538 7.79922 88.6764 7.81959 88.5942 7.83995L88.5409 7.85522C88.4587 7.88067 88.3764 7.90613 88.2941 7.93667L88.2554 7.95194C88.1683 7.98249 88.0812 8.02321 87.9796 8.06903C87.1279 8.47118 86.4311 9.19405 86.0198 10.1053L85.9907 10.1765C85.9133 10.3496 85.8504 10.5329 85.7972 10.7161C85.6762 11.1387 85.6133 11.5765 85.6133 12.0244C85.6133 12.0804 85.6133 12.1364 85.6181 12.1873C85.6326 12.5488 85.6859 12.9051 85.7778 13.2462L85.7923 13.3276C85.8407 13.4854 85.8988 13.6534 85.9762 13.8367C85.9907 13.8672 86.0004 13.8927 86.0149 13.9232L86.0488 13.9945C86.1262 14.1625 86.2182 14.3254 86.3149 14.4781L86.3391 14.5188C86.4359 14.6665 86.5424 14.809 86.6585 14.9515L86.6876 14.9872C86.7263 15.0279 86.7601 15.0737 86.7989 15.1093L86.8134 15.1246C86.886 15.201 86.9634 15.2773 87.0457 15.3486C87.0602 15.3639 87.0795 15.3791 87.094 15.3893C87.1376 15.425 87.1763 15.4606 87.2199 15.4962L87.2537 15.5217C87.3312 15.5828 87.4086 15.6388 87.4957 15.6948L87.5537 15.7355C87.5973 15.7609 87.6409 15.7915 87.6844 15.8169L87.7425 15.8475C87.8199 15.8882 87.8973 15.9289 87.9748 15.9697C87.9989 15.9798 88.028 15.9951 88.057 16.0053C88.1006 16.0257 88.1441 16.0409 88.1877 16.0613C88.2215 16.0766 88.2554 16.0867 88.2893 16.0969C88.3522 16.1224 88.4199 16.1427 88.4829 16.1631C88.5264 16.1733 88.5651 16.1886 88.6038 16.1987C88.6425 16.2089 88.6813 16.2191 88.72 16.2293C88.7732 16.2395 88.8264 16.2547 88.8797 16.2649C88.9184 16.27 88.9571 16.2802 88.9958 16.2853C89.0587 16.2955 89.1216 16.3005 89.1845 16.3107C89.2136 16.3158 89.2426 16.3158 89.2716 16.3158C89.349 16.3209 89.4313 16.326 89.5233 16.326C89.6249 16.326 89.7217 16.3209 89.833 16.3107L89.8862 16.3056C89.9733 16.2955 90.0556 16.2853 90.1427 16.27L90.2056 16.2598C90.2878 16.2446 90.3653 16.2242 90.4475 16.2038L90.5007 16.1886C90.583 16.1631 90.6653 16.1376 90.7427 16.1122L90.7863 16.0969C90.8782 16.0613 90.9653 16.0257 91.0427 15.99L91.0621 15.9798C91.9089 15.5777 92.6057 14.8599 93.0219 13.9538L93.0558 13.8774L91.2798 13.1036L91.246 13.1647C90.8734 13.8876 90.1814 14.3356 89.441 14.3356C89.1652 14.3356 88.8942 14.2745 88.6425 14.1574C88.0135 13.7858 87.6747 13.348 87.5634 12.7473H93.1768L93.1816 12.676C93.2397 12.0092 93.3219 9.72857 91.7541 8.49664Z" fill="#453D36"/>
<path id="Vector_3" d="M83.0623 12.0544L83.0284 12.1206C82.3993 13.3525 81.3202 14.0856 80.154 14.0856C78.2765 14.0856 76.7473 12.1919 76.7473 9.86547C76.7473 7.53906 78.2765 5.64535 80.154 5.64535C81.5332 5.64535 82.7671 6.66347 83.2994 8.24156L83.3236 8.31792L85.2834 7.44234L85.2592 7.37107C84.393 4.95812 82.3848 3.40039 80.1492 3.40039C77.0957 3.40039 74.6133 6.30204 74.6133 9.86038C74.6133 13.4238 77.0957 16.3255 80.1492 16.3255C82.1042 16.3255 83.9285 15.1037 84.9205 13.1336H84.9253L84.9834 13.0064H84.9786L84.9834 12.9962L83.0623 12.0544Z" fill="#453D36"/>
<path id="Vector_4" d="M96.8241 10.2877C97.2015 9.9721 97.6564 9.79902 98.1355 9.79902C98.9194 9.79902 99.6453 10.2674 100.028 11.0259C100.202 11.372 100.294 11.764 100.294 12.1662C100.294 12.1967 100.289 12.2272 100.289 12.2578L100.284 12.3138C100.25 12.9552 99.9792 13.5457 99.534 13.9631C99.1517 14.2788 98.7017 14.4518 98.2226 14.4518C97.4338 14.4518 96.7128 13.9835 96.3305 13.225C96.3112 13.1843 96.2918 13.1436 96.2724 13.1028C96.1321 12.7821 96.0644 12.4411 96.0644 12.0898C96.0644 12.0593 96.0692 12.0287 96.0692 11.9931L96.074 11.9473C96.0886 11.652 96.1563 11.3618 96.2773 11.092C96.4079 10.7713 96.5918 10.5066 96.8241 10.2877ZM102.06 10.8121C101.518 8.98453 100.076 7.80859 98.392 7.80859H98.3484C98.3436 7.80859 98.3194 7.80859 98.2807 7.81368C98.2758 7.81368 98.2661 7.81368 98.2613 7.81368C98.2468 7.81368 97.0419 7.82387 96.2773 8.65873L96.2821 8.0224H94.1094V20.7184H96.2821L96.2773 15.6329C96.3741 15.755 96.4612 15.8314 96.466 15.8365L96.4757 15.8416C96.9886 16.3456 97.8258 16.4372 98.2807 16.4423C100.424 16.4015 102.162 14.5791 102.244 12.2883C102.249 12.2323 102.249 12.1763 102.249 12.1203C102.249 11.6775 102.186 11.2346 102.06 10.8121Z" fill="#453D36"/>
<path id="Vector_5" d="M107.773 10.8632C107.603 10.9344 107.507 10.9497 107.468 10.9548L107.12 10.9599C107.037 10.9599 106.97 10.9599 106.965 10.9599L106.805 10.965L105.363 10.9599V9.64142L107.492 9.63633C107.507 9.63633 107.589 9.64651 107.7 9.69742C107.918 9.8145 108.078 10.0487 108.078 10.2523C108.083 10.5628 107.991 10.7461 107.773 10.8632ZM108.286 13.6579C108.262 14.0092 107.986 14.2739 107.724 14.3502C107.691 14.3604 107.647 14.3706 107.589 14.3757C107.4 14.4113 107.182 14.4266 107.037 14.4266H106.5C106.292 14.4266 106.089 14.4266 105.91 14.4266H105.373V12.5482H105.91C106.089 12.5482 106.292 12.5482 106.5 12.5482H106.974C107.042 12.5482 107.4 12.5533 107.671 12.6143L107.691 12.6194C107.705 12.6245 107.715 12.6245 107.724 12.6296C107.753 12.6347 107.778 12.65 107.812 12.6652L107.816 12.6602L107.821 12.6652L107.841 12.6754C107.865 12.6856 107.884 12.6958 107.899 12.7111C108.121 12.8485 108.271 13.0827 108.286 13.3219V13.3474C108.286 13.383 108.291 13.4899 108.291 13.4899C108.291 13.4899 108.291 13.6376 108.286 13.6579ZM110.4 13.3372V13.3168C110.381 12.8027 110.197 12.3751 109.849 12.0086L109.834 11.9933C109.704 11.8609 109.544 11.7286 109.36 11.5911C109.399 11.5351 109.437 11.474 109.481 11.4079C109.849 11.0668 110.047 10.6086 110.047 10.125C110.047 9.19345 109.157 8.23641 108.136 8.07351C107.836 8.04806 107.613 8.04297 107.507 8.04297C107.449 8.04297 107.415 8.04297 107.415 8.04297L103.277 8.05315V16.0098H105.31L106.307 15.9945H107.86C108.968 15.9131 109.941 15.1902 110.279 14.1975C110.367 13.943 110.41 13.6783 110.41 13.4085C110.4 13.3932 110.4 13.3678 110.4 13.3372Z" fill="#453D36"/>
<path id="Vector_6" d="M118.992 15.949C118.978 15.9083 118.968 15.8624 118.959 15.8166C118.954 15.7963 118.949 15.781 118.949 15.7606L118.934 15.6741C118.871 15.2363 118.842 14.3862 118.833 13.7498V8.08398H116.713V12.0954C116.713 12.0954 116.713 12.1717 116.708 12.2786V12.3092C116.689 12.6197 116.621 13.1848 116.404 13.536C116.094 13.984 115.6 14.2538 115.082 14.2538C115.034 14.2538 114.991 14.2487 114.942 14.2487C114.666 14.2233 114.4 14.1215 114.168 13.9586C113.858 13.7346 113.626 13.4037 113.519 13.0219L113.515 13.0066C113.481 12.9048 113.447 12.6757 113.418 12.3703V12.355C113.413 12.2888 113.408 12.2379 113.408 12.2023L113.403 12.1667C113.297 10.6191 113.403 8.20616 113.408 8.1858L113.413 8.08908H111.352V8.17052C111.356 9.51954 111.361 11.8561 111.352 12.299C111.366 12.803 111.434 13.5411 111.656 14.208C111.777 14.5134 111.918 14.7832 112.077 15.0225C112.116 15.0734 112.155 15.1243 112.198 15.1803C112.247 15.2363 112.29 15.2872 112.334 15.333C112.59 15.613 112.895 15.8268 113.244 15.9795L113.263 15.9846C113.432 16.0661 113.911 16.2544 114.628 16.2544H114.661C114.758 16.2544 114.841 16.2493 114.913 16.2442C114.962 16.2442 116.113 16.2341 116.868 15.2974C116.907 15.6741 116.975 15.9184 117.086 16.0304L117.11 16.0559H119.06L118.992 15.949Z" fill="#453D36"/>
<path id="Vector_7" d="M23.8938 7.89516H25.5343L25.7714 7.89006L23.8164 7.87988L23.8938 7.89516Z" fill="#00A0DE"/>
<path id="Vector_8" d="M66.657 15.9433L68.0894 10.9291L69.5217 15.9433H71.4961L69.0765 8.30234L69.0281 8.14453H67.1506L67.1022 8.30234L64.6875 15.9433H66.657Z" fill="#00A0DE"/>
<path id="Vector_9" d="M55.5488 8.11426H53.3276L50.8162 10.7105V8.11426H48.9531V15.9385H50.8162V13.3983L51.3194 12.8027L53.768 15.9385H56.0666L52.5873 11.3061L55.5488 8.11426Z" fill="#00A0DE"/>
<path id="Vector_10" d="M36.569 12.9762C36.5496 13.0169 36.5302 13.0576 36.5109 13.0984C36.1431 13.8314 35.4318 14.3252 34.6188 14.3252C34.1252 14.3252 33.6704 14.1419 33.3074 13.8365C32.8767 13.4293 32.5912 12.8438 32.5574 12.1871C32.5525 12.1413 32.5525 12.0904 32.5525 12.0446C32.5525 11.6323 32.6493 11.2454 32.8187 10.9094C33.1864 10.1764 33.8978 9.68256 34.7108 9.68256C35.2043 9.68256 35.6592 9.86583 36.0221 10.1713C36.2544 10.3902 36.4431 10.66 36.5738 10.9654C36.6851 11.2301 36.7577 11.5152 36.777 11.8206C36.7722 11.8715 36.777 11.9173 36.777 11.9632C36.777 12.3297 36.7044 12.6708 36.569 12.9762ZM34.5849 7.91103C34.5801 7.91103 34.5801 7.91103 34.5801 7.91103C34.5801 7.90594 34.5801 7.91103 34.5849 7.91103ZM36.569 8.10447L36.5738 8.8477C36.5641 8.83752 36.5593 8.82734 36.5544 8.81716C35.8479 7.90594 34.5656 7.89576 34.5656 7.90085C34.5269 7.90085 34.5027 7.89576 34.5027 7.89576C32.78 7.8754 31.4734 9.09205 30.9798 10.7516C30.8637 11.1436 30.8008 11.5661 30.8008 11.9988C30.8008 12.0497 30.8008 12.1057 30.8056 12.1566C30.883 14.3252 32.5332 16.0662 34.5704 16.1018C35.0979 16.0916 35.8383 15.9746 36.2786 15.5266C36.2786 15.5266 36.4528 15.3739 36.5786 15.155L36.5738 15.8982H38.5336V11.9988V8.09429H36.569V8.10447Z" fill="#00A0DE"/>
<path id="Vector_11" d="M61.5291 13.022C61.5098 13.0628 61.4904 13.1035 61.4711 13.1442C61.1033 13.8722 60.3968 14.366 59.5838 14.366C59.0902 14.366 58.6402 14.1827 58.2773 13.8823C57.8466 13.4802 57.5659 12.8948 57.5272 12.2381C57.5224 12.1923 57.5224 12.1414 57.5224 12.0955C57.5224 11.6832 57.6192 11.2963 57.7885 10.9654C58.1563 10.2375 58.8628 9.74367 59.6758 9.74367C60.1694 9.74367 60.6194 9.92694 60.9823 10.2273C61.2146 10.4462 61.3985 10.716 61.5291 11.0214C61.6404 11.281 61.713 11.5712 61.7324 11.8715C61.7324 11.9174 61.7372 11.9683 61.7372 12.0141C61.7372 12.3704 61.6598 12.7166 61.5291 13.022ZM61.5291 8.16558L61.534 8.90881C61.5243 8.89863 61.5195 8.89354 61.5146 8.88336C60.813 7.97723 59.5354 7.96705 59.5354 7.97214C59.4967 7.96705 59.4725 7.96705 59.4725 7.96705C57.7547 7.94669 56.4529 9.15825 55.9642 10.8127C55.8481 11.2047 55.7852 11.6221 55.7852 12.0548C55.7852 12.1057 55.7852 12.1617 55.79 12.2126C55.8674 14.3761 57.5079 16.1018 59.5403 16.1426C60.0629 16.1324 60.8033 16.0153 61.2436 15.5724C61.2436 15.5724 61.4178 15.4197 61.5437 15.2008L61.5388 15.9389H63.489V12.0548V8.16558H61.5291Z" fill="#00A0DE"/>
<path id="Vector_12" d="M27.2721 12.8845C26.9672 13.4139 26.4398 13.8008 25.8058 13.9433H23.6863V9.81995L25.2881 9.80467H25.7816C25.8349 9.81485 25.8929 9.82504 25.9462 9.84031C26.2414 9.91158 26.5172 10.0439 26.7543 10.217C27.2043 10.5835 27.5044 11.1181 27.5431 11.7187C27.5479 11.7595 27.5527 11.8053 27.5527 11.8511C27.5527 12.2227 27.4511 12.5791 27.2721 12.8845ZM29.6529 11.734C29.6045 10.4715 28.9754 9.36179 28.027 8.65929C27.0737 7.82442 25.6413 7.86006 25.6413 7.86006L25.3994 7.86515H23.7589H23.6863V7.84988V5.40638H28.2593V3.44141H21.8281V3.51267V5.37075V15.9032H22.1911H25.7042C25.772 15.9032 25.8639 15.8981 25.9655 15.893C27.6157 15.7607 28.9851 14.6357 29.469 13.1136C29.59 12.7267 29.6577 12.3194 29.6577 11.8918C29.6577 11.8358 29.6577 11.7849 29.6529 11.734Z" fill="#00A0DE"/>
<path id="Vector_13" d="M47.414 15.6694C47.4092 15.649 47.4044 15.6287 47.3995 15.6083C47.3947 15.5879 47.3947 15.5676 47.3898 15.5523C47.3898 15.5523 47.3898 15.5472 47.3898 15.5421C47.385 15.5269 47.385 15.5167 47.385 15.5167C47.3269 15.0891 47.2931 14.2797 47.2785 13.5822V11.9074V8.00293H45.7591H45.3187V8.91924V9.53011V9.90682V10.8588V11.9329C45.3187 11.9329 45.3187 12.0092 45.309 12.1263C45.309 12.1314 45.309 12.1365 45.309 12.1416V12.1467C45.2897 12.4623 45.2171 13.0477 44.9897 13.4244C44.6751 13.8775 44.1767 14.1728 43.6057 14.1728C43.5573 14.1728 43.5089 14.1677 43.4605 14.1677C43.1605 14.1422 42.8847 14.0353 42.6524 13.8622C42.3282 13.6331 42.0862 13.2819 41.9701 12.8797C41.9701 12.8746 41.9652 12.8746 41.9652 12.8696C41.9169 12.727 41.883 12.4165 41.8636 12.2078V12.2027C41.8539 12.0907 41.8491 12.0143 41.8491 12.0143C41.7427 10.4413 41.8539 8.02329 41.8539 8.02329L41.7959 8.01311H39.957C39.9619 8.76143 39.9715 11.6478 39.957 12.1365C39.9715 12.5947 40.0296 13.3481 40.2522 14.02C40.3587 14.2847 40.4893 14.5596 40.6635 14.8142C40.6974 14.8651 40.7361 14.916 40.7748 14.9618C40.8281 15.0178 40.8716 15.0687 40.9103 15.1196C41.1426 15.3741 41.4329 15.593 41.791 15.7458C41.8007 15.7508 41.8056 15.7508 41.8152 15.7559C41.9604 15.8272 42.4395 16.0257 43.175 16.0206C43.2718 16.0156 43.3541 16.0156 43.4218 16.0105C43.4218 16.0105 44.6993 16.0308 45.4397 14.9313C45.4542 15.2265 45.5074 15.6745 45.6478 15.8272H47.4528C47.4382 15.7712 47.4237 15.7203 47.414 15.6694Z" fill="#00A0DE"/>
<path id="Vector_14" d="M44.8066 5.89027C44.555 6.23134 44.1485 6.48587 43.6791 6.50115C43.1662 6.52151 42.7016 6.25171 42.4355 5.875L41.4531 6.43497C41.8112 7.3411 42.7064 7.96724 43.7323 7.92652C44.6808 7.88579 45.4744 7.29019 45.818 6.46042L44.8066 5.89027Z" fill="#00A0DE"/>
<path id="Vector_15" d="M84.6049 21.5023C84.5275 21.5787 84.4307 21.6143 84.3097 21.6143C84.2274 21.6143 84.1548 21.5939 84.1065 21.5532C84.0532 21.5125 84.029 21.4565 84.029 21.3903C84.029 21.2529 84.121 21.1816 84.3 21.1816H84.721V21.207C84.721 21.3292 84.6823 21.4259 84.6049 21.5023ZM85.0307 20.1075C84.8807 19.9548 84.6775 19.8784 84.4162 19.8784C84.0726 19.8784 83.7919 20.0209 83.5645 20.3009L83.8403 20.6471C83.9274 20.5453 84.0145 20.474 84.0919 20.4333C84.1694 20.3875 84.2613 20.3671 84.3581 20.3671C84.4742 20.3671 84.5662 20.3976 84.6291 20.4587C84.692 20.5198 84.721 20.6114 84.721 20.7285V20.8202H84.2323C84.0048 20.8202 83.8258 20.8711 83.6951 20.9831C83.5645 21.09 83.4967 21.2376 83.4967 21.4208C83.4967 21.6041 83.5596 21.7517 83.6806 21.8637C83.8016 21.9757 83.9661 22.0317 84.1742 22.0317C84.421 22.0317 84.6194 21.9503 84.7694 21.7823V21.9808H85.2582V20.7591C85.2582 20.474 85.1807 20.2602 85.0307 20.1075ZM81.0385 21.7161C81.2466 21.9299 81.4934 22.0368 81.7789 22.0317C81.9676 22.0317 82.1321 21.9859 82.2773 21.8943C82.4225 21.8026 82.5386 21.6805 82.6257 21.5176L82.2531 21.2172C82.1224 21.4158 81.9627 21.5125 81.7837 21.5125C81.6337 21.5125 81.5079 21.4565 81.4159 21.3547C81.3191 21.2478 81.2708 21.1154 81.2708 20.9474C81.2708 20.7845 81.3191 20.6522 81.4159 20.5453C81.5127 20.4384 81.6337 20.3824 81.7837 20.3824C81.9676 20.3824 82.1224 20.4842 82.2531 20.6827L82.6257 20.3773C82.4418 20.0413 82.1611 19.8682 81.774 19.8682C81.4837 19.8682 81.232 19.97 81.0336 20.1787C80.8304 20.3875 80.7288 20.642 80.7288 20.9372C80.7288 21.2427 80.8304 21.4972 81.0385 21.7161ZM78.8415 20.8914C78.7593 20.8914 78.6915 20.866 78.6383 20.8202C78.5899 20.7743 78.5609 20.7133 78.5609 20.6369C78.5609 20.5605 78.5851 20.5045 78.6383 20.4587C78.6867 20.4129 78.7544 20.3925 78.8415 20.3925H79.1754V20.8914H78.8415ZM78.2415 20.1126C78.0963 20.2398 78.0237 20.4129 78.0237 20.6318C78.0237 20.7794 78.0625 20.9067 78.1302 21.0187C78.2028 21.1307 78.3044 21.2121 78.4351 21.2681L77.8834 21.9808H78.4835L78.9674 21.3496H79.1754V21.9808H79.7029V19.9242H78.8173C78.5802 19.9191 78.3867 19.9853 78.2415 20.1126ZM76.0591 21.5074C75.9139 21.5074 75.7881 21.4565 75.6961 21.3496C75.5994 21.2427 75.5558 21.1103 75.5558 20.9525C75.5558 20.7896 75.6042 20.6522 75.6961 20.5453C75.7929 20.4384 75.9139 20.3824 76.0591 20.3824C76.2042 20.3824 76.3252 20.4384 76.422 20.5453C76.5188 20.6522 76.5672 20.7896 76.5672 20.9474C76.5672 21.1052 76.5188 21.2427 76.422 21.3445C76.3252 21.4565 76.2042 21.5074 76.0591 21.5074ZM75.3139 21.711C75.5219 21.9248 75.7687 22.0317 76.0542 22.0266C76.3397 22.0317 76.5914 21.9299 76.7995 21.711C77.0075 21.4972 77.114 21.2427 77.1092 20.9474C77.114 20.6522 77.0124 20.3976 76.8043 20.1889C76.5962 19.9751 76.3446 19.8733 76.0591 19.8784C75.7736 19.8733 75.5268 19.9751 75.3187 20.1889C75.1106 20.4027 75.009 20.6573 75.0138 20.9474C75.0042 21.2427 75.1058 21.4972 75.3139 21.711ZM72.7588 21.9757V20.3925H73.4557V21.9757H73.9879V19.9191H72.2314V21.9757H72.7588ZM68.273 20.4384C68.3553 20.362 68.4569 20.3264 68.5682 20.3264C68.6843 20.3264 68.786 20.3671 68.8682 20.4434C68.9505 20.5198 68.9892 20.6216 68.994 20.7438H68.1036C68.1327 20.6165 68.1907 20.5147 68.273 20.4384ZM69.5118 20.8303C69.5118 20.5605 69.4247 20.3315 69.2553 20.1482C69.0811 19.9649 68.8634 19.8733 68.5924 19.8733C68.3117 19.8682 68.0698 19.97 67.8665 20.1838C67.6633 20.3976 67.5665 20.6522 67.5713 20.9474C67.5665 21.2478 67.6681 21.5023 67.8762 21.7161C68.0843 21.9299 68.3408 22.0317 68.6408 22.0266C68.9263 22.0266 69.1876 21.9248 69.4247 21.7212L69.1973 21.3394C69.0279 21.4768 68.844 21.5481 68.6505 21.5481C68.5101 21.5481 68.3891 21.5125 68.2924 21.4412C68.1956 21.3699 68.1327 21.2681 68.0988 21.1409H69.4683C69.4973 21.034 69.5118 20.9321 69.5118 20.8303ZM64.6243 20.9881H64.9631C65.0502 20.9881 65.1228 21.0136 65.176 21.0594C65.2292 21.1052 65.2534 21.1714 65.2534 21.2529C65.2534 21.4208 65.1566 21.5074 64.9631 21.5074H64.6243V20.9881ZM66.5455 19.9191H66.018V21.9757H66.5455V19.9191ZM64.9776 21.9757C65.2099 21.9757 65.4083 21.9095 65.5631 21.7823C65.718 21.655 65.7906 21.4768 65.7906 21.2427C65.7906 21.0136 65.7131 20.8405 65.5631 20.7082C65.4083 20.5758 65.2147 20.5147 64.9776 20.5147H64.6243V19.9191H64.0969V21.9757H64.9776ZM62.2968 21.5634H61.8225V21.1154H62.2968C62.379 21.1154 62.4468 21.1358 62.4952 21.1765C62.5435 21.2172 62.5677 21.2681 62.5677 21.3394C62.5677 21.4107 62.5435 21.4616 62.4952 21.5074C62.4468 21.543 62.379 21.5634 62.2968 21.5634ZM62.1951 20.3416C62.3548 20.3416 62.4323 20.4027 62.4323 20.5351C62.4323 20.6623 62.3548 20.7285 62.1951 20.7285H61.8225V20.3467H62.1951V20.3416ZM62.7565 20.8762C62.8629 20.7743 62.9162 20.6471 62.9162 20.4994C62.9162 20.3264 62.8532 20.1838 62.7226 20.0769C62.5968 19.97 62.4274 19.9191 62.229 19.9191H61.3193V21.9757H62.3597C62.5629 21.9757 62.7323 21.9146 62.8629 21.7976C62.9984 21.6805 63.0613 21.5278 63.0613 21.3445C63.0565 21.1307 62.9549 20.9729 62.7565 20.8762ZM59.2481 21.5074C59.103 21.5074 58.9771 21.4565 58.8852 21.3496C58.7933 21.2427 58.7449 21.1103 58.7449 20.9525C58.7449 20.7896 58.7933 20.6522 58.8852 20.5453C58.982 20.4384 59.103 20.3824 59.2481 20.3824C59.3933 20.3824 59.5143 20.4384 59.6111 20.5453C59.7079 20.6522 59.7562 20.7896 59.7562 20.9474C59.7562 21.1052 59.7079 21.2427 59.6111 21.3445C59.5094 21.4565 59.3885 21.5074 59.2481 21.5074ZM58.5029 21.711C58.711 21.9248 58.9578 22.0317 59.2433 22.0266C59.5288 22.0317 59.7804 21.9299 59.9885 21.711C60.1966 21.4972 60.3031 21.2427 60.2982 20.9474C60.3031 20.6522 60.2014 20.3976 59.9934 20.1889C59.7853 19.9751 59.5336 19.8733 59.2481 19.8784C58.9626 19.8733 58.711 19.9751 58.5029 20.1889C58.2948 20.4027 58.1932 20.6573 58.1981 20.9474C58.1932 21.2427 58.2948 21.4972 58.5029 21.711ZM55.7688 21.7161C55.9769 21.9299 56.2237 22.0368 56.5141 22.0317C56.7028 22.0317 56.8673 21.9859 57.0125 21.8943C57.1577 21.8026 57.2738 21.6805 57.3609 21.5176L56.9883 21.2172C56.8576 21.4158 56.6979 21.5125 56.5189 21.5125C56.3689 21.5125 56.2431 21.4565 56.1511 21.3547C56.0544 21.2478 56.006 21.1154 56.006 20.9474C56.006 20.7845 56.0544 20.6522 56.1511 20.5453C56.2479 20.4384 56.3689 20.3824 56.5189 20.3824C56.7028 20.3824 56.8576 20.4842 56.9883 20.6827L57.3609 20.3773C57.177 20.0413 56.8963 19.8682 56.5092 19.8682C56.2189 19.8682 55.9672 19.97 55.764 20.1787C55.5608 20.3875 55.4591 20.642 55.4591 20.9372C55.4591 21.2427 55.5608 21.4972 55.7688 21.7161ZM53.8187 21.5023C53.7413 21.5787 53.6445 21.6143 53.5235 21.6143C53.4413 21.6143 53.3735 21.5939 53.3203 21.5532C53.267 21.5125 53.2428 21.4565 53.2428 21.3903C53.2428 21.2529 53.3348 21.1816 53.5138 21.1816H53.93V21.207C53.9348 21.3292 53.8961 21.4259 53.8187 21.5023ZM54.2445 20.1075C54.0945 19.9548 53.8913 19.8784 53.63 19.8784C53.2864 19.8784 53.0009 20.0209 52.7783 20.3009L53.0541 20.6471C53.1412 20.5453 53.2283 20.474 53.3058 20.4333C53.3832 20.3875 53.4751 20.3671 53.5719 20.3671C53.688 20.3671 53.78 20.3976 53.8429 20.4587C53.9058 20.5198 53.9348 20.6114 53.9348 20.7285V20.8202H53.4461C53.2187 20.8202 53.0396 20.8711 52.9041 20.9831C52.7735 21.09 52.7057 21.2376 52.7057 21.4208C52.7057 21.6041 52.7686 21.7517 52.8896 21.8637C53.0106 21.9757 53.1751 22.0317 53.3832 22.0317C53.63 22.0317 53.8284 21.9503 53.9784 21.7823V21.9808H54.4671V20.7591C54.4671 20.474 54.3945 20.2602 54.2445 20.1075ZM51.1621 20.7692C51.0749 20.8049 50.9733 20.8252 50.8475 20.8252C50.591 20.8252 50.4652 20.6776 50.4652 20.3875V19.9242H49.9378V20.4333C49.9378 20.7133 50.0103 20.9372 50.1507 21.09C50.291 21.2478 50.4894 21.3241 50.741 21.3241C50.9201 21.3241 51.0604 21.3038 51.1621 21.2579V21.9808H51.6943V19.9242H51.1621V20.7692ZM46.3472 20.8914C46.2649 20.8914 46.1972 20.866 46.1439 20.8202C46.0955 20.7743 46.0665 20.7133 46.0665 20.6369C46.0665 20.5605 46.0907 20.5045 46.1439 20.4587C46.1923 20.4129 46.2601 20.3925 46.3472 20.3925H46.6811V20.8914H46.3472ZM45.7471 20.1126C45.602 20.2398 45.5294 20.4129 45.5294 20.6318C45.5294 20.7794 45.5681 20.9067 45.6358 21.0187C45.7084 21.1307 45.81 21.2121 45.9407 21.2681L45.389 21.9808H45.9891L46.473 21.3496H46.6811V21.9808H47.2085V19.9242H46.323C46.0859 19.9191 45.8923 19.9853 45.7471 20.1126ZM43.5647 20.8914C43.4824 20.8914 43.4147 20.866 43.3615 20.8202C43.3131 20.7743 43.284 20.7133 43.284 20.6369C43.284 20.5605 43.3082 20.5045 43.3615 20.4587C43.4099 20.4129 43.4776 20.3925 43.5647 20.3925H43.8986V20.8914H43.5647ZM42.9647 20.1126C42.8195 20.2398 42.7469 20.4129 42.7469 20.6318C42.7469 20.7794 42.7808 20.9067 42.8534 21.0187C42.9259 21.1307 43.0276 21.2121 43.1582 21.2681L42.6066 21.9808H43.2066L43.6905 21.3496H43.8986V21.9808H44.4261V19.9242H43.5405C43.3034 19.9191 43.1098 19.9853 42.9647 20.1126ZM40.3903 21.9757V21.151H41.1113V21.9757H41.6388V19.9191H41.1113V20.6725H40.3903V19.9191H39.8628V21.9757H40.3903ZM37.4481 21.0441V19.9242H36.9207V22.0317H37.0949L38.1837 20.866V21.9808H38.716V19.8784H38.5417L37.4481 21.0441ZM34.5011 20.5147L34.506 20.3925H35.0673V21.5023H34.3221C34.4285 21.2783 34.4914 20.9474 34.5011 20.5147ZM35.5996 19.9191H34.0366L34.0221 20.4282C34.0124 20.7285 33.9882 20.9627 33.9543 21.1307C33.9204 21.2987 33.8624 21.4208 33.7801 21.5023H33.572V22.5611H34.0801V21.9757H35.4157V22.5611H35.9238V21.5023H35.5996V19.9191ZM31.617 20.4384C31.6993 20.362 31.8009 20.3264 31.9122 20.3264C32.0284 20.3264 32.13 20.3671 32.2122 20.4434C32.2945 20.5198 32.3332 20.6216 32.3381 20.7438H31.4477C31.4719 20.6165 31.5299 20.5147 31.617 20.4384ZM32.851 20.8303C32.851 20.5605 32.7639 20.3315 32.5897 20.1482C32.4155 19.9649 32.1977 19.8733 31.9267 19.8733C31.6461 19.8682 31.4041 19.97 31.2009 20.1838C30.9976 20.3976 30.9009 20.6522 30.9057 20.9474C30.9009 21.2478 31.0025 21.5023 31.2106 21.7161C31.4186 21.9299 31.6751 22.0317 31.9751 22.0266C32.2606 22.0266 32.5219 21.9248 32.7591 21.7212L32.5365 21.3394C32.3671 21.4768 32.1832 21.5481 31.9896 21.5481C31.8493 21.5481 31.7283 21.5125 31.6316 21.4412C31.5348 21.3699 31.4719 21.2681 31.438 21.1409H32.8074C32.8413 21.034 32.851 20.9321 32.851 20.8303ZM28.8394 20.9881H29.1781C29.2652 20.9881 29.333 21.0136 29.3862 21.0594C29.4395 21.1052 29.4636 21.1714 29.4636 21.2529C29.4636 21.3343 29.4395 21.4005 29.3862 21.4412C29.333 21.4819 29.2652 21.5074 29.1733 21.5074H28.8346V20.9881H28.8394ZM29.1975 21.9757C29.4298 21.9757 29.6282 21.9095 29.783 21.7823C29.9379 21.6499 30.0105 21.4718 30.0105 21.2427C30.0105 21.0136 29.933 20.8405 29.783 20.7082C29.6282 20.5758 29.4298 20.5147 29.1975 20.5147H28.8394V19.9191H27.8377V20.3925H28.3119V21.9757H29.1975ZM26.3473 21.3598C26.2505 21.4616 26.1344 21.5125 25.994 21.5125C25.8537 21.5125 25.7376 21.4616 25.6359 21.3598C25.5392 21.2579 25.4956 21.1307 25.4956 20.9831C25.4956 20.8354 25.544 20.7133 25.6359 20.6114C25.7327 20.5096 25.8537 20.4587 25.994 20.4587C26.1344 20.4587 26.2553 20.5096 26.3473 20.6114C26.4441 20.7133 26.4925 20.8354 26.4925 20.9831C26.4925 21.1307 26.4441 21.2579 26.3473 21.3598ZM26.7731 20.2449C26.5989 20.0464 26.3812 19.9497 26.1198 19.9497C25.8198 19.9497 25.5924 20.0667 25.4327 20.3009C25.4375 20.1482 25.4521 20.026 25.4763 19.9344C25.5004 19.8428 25.544 19.7613 25.6069 19.6849C25.6698 19.6137 25.7521 19.5526 25.8585 19.517C25.965 19.4762 26.1053 19.4457 26.2795 19.4253C26.5747 19.3948 26.7683 19.3591 26.8651 19.3235V18.8145C26.7586 18.8552 26.5602 18.8908 26.2747 18.9315C26.0085 18.9672 25.786 19.0232 25.6117 19.0995C25.4375 19.1759 25.302 19.2828 25.2053 19.4151C25.1085 19.5475 25.0407 19.6951 25.002 19.8631C24.9633 20.0311 24.944 20.2347 24.944 20.4842V20.7947C24.944 21.1612 25.0407 21.4616 25.2343 21.6856C25.4279 21.9095 25.6795 22.0215 25.9989 22.0215C26.2989 22.0215 26.5457 21.9248 26.7441 21.7263C26.9425 21.5278 27.0393 21.2834 27.0393 20.9831C27.0393 20.6929 26.9522 20.4434 26.7731 20.2449ZM22.9599 21.5074C22.8148 21.5074 22.6938 21.4565 22.597 21.3496C22.5002 21.2427 22.4567 21.1103 22.4567 20.9525C22.4567 20.7896 22.5051 20.6522 22.597 20.5453C22.6938 20.4384 22.8148 20.3824 22.9599 20.3824C23.1051 20.3824 23.2261 20.4384 23.3229 20.5453C23.4196 20.6522 23.468 20.7896 23.468 20.9474C23.468 21.1052 23.4196 21.2427 23.3229 21.3445C23.2212 21.4565 23.1003 21.5074 22.9599 21.5074ZM22.2147 21.711C22.4228 21.9248 22.6696 22.0317 22.9551 22.0266C23.2406 22.0317 23.4922 21.9299 23.7003 21.711C23.9132 21.4972 24.0149 21.2427 24.01 20.9474C24.0149 20.6522 23.9132 20.3976 23.7052 20.1889C23.4971 19.9751 23.2454 19.8733 22.9599 19.8784C22.6744 19.8733 22.4276 19.9751 22.2196 20.1889C22.0115 20.4027 21.9099 20.6573 21.9147 20.9474C21.905 21.2427 22.0066 21.4972 22.2147 21.711Z" fill="#00A0DE"/>
<g id="Group">
<path id="Vector_16" d="M14.6903 21.9759H3.5653C3.20237 21.9759 2.90234 21.6654 2.90234 21.2785C2.90234 20.8916 3.19753 20.5811 3.5653 20.5811H14.6903C15.0581 20.5811 15.3533 20.8916 15.3533 21.2785C15.3533 21.6654 15.0581 21.9759 14.6903 21.9759Z" fill="#00A0DE"/>
<path id="Vector_17" d="M15.362 4.37777C15.362 4.56612 15.2168 4.72393 15.0329 4.72393H14.3603C14.1813 4.72393 14.0312 4.57121 14.0312 4.37777V3.67017C14.0312 3.48182 14.1764 3.3291 14.3603 3.3291H15.0329C15.212 3.3291 15.362 3.48182 15.362 3.67017V4.37777Z" fill="#00A0DE"/>
<path id="Vector_18" d="M4.22341 4.38265C4.22341 4.571 4.07824 4.72372 3.89919 4.72372H3.22656C3.04752 4.72372 2.90234 4.571 2.90234 4.38265V3.67506C2.90234 3.4867 3.04752 3.33398 3.22656 3.33398H3.89435C4.0734 3.33398 4.21857 3.4867 4.21857 3.67506V4.38265H4.22341Z" fill="#00A0DE"/>
<path id="Vector_19" d="M3.5653 14.4822C3.19753 14.4822 2.90234 14.1717 2.90234 13.7848V5.94525C2.90234 5.56346 3.19753 5.25293 3.56046 5.25293C3.92339 5.25293 4.22341 5.56346 4.22341 5.94525V13.7899C4.22341 14.1717 3.92823 14.4822 3.5653 14.4822Z" fill="#00A0DE"/>
<path id="Vector_20" d="M14.6981 14.4822C14.3352 14.4822 14.0352 14.1717 14.0352 13.7848V5.94525C14.0352 5.56346 14.3303 5.25293 14.6981 5.25293C15.061 5.25293 15.3562 5.56346 15.3562 5.94525V13.7899C15.3611 14.1717 15.0659 14.4822 14.6981 14.4822Z" fill="#00A0DE"/>
<path id="Vector_21" d="M12.8582 4.72372H5.40123C5.0383 4.72372 4.73828 4.41319 4.73828 4.0314C4.73828 3.6496 5.03346 3.33398 5.40123 3.33398H12.8582C13.2212 3.33398 13.5212 3.64451 13.5212 4.0314C13.5164 4.41319 13.2212 4.72372 12.8582 4.72372Z" fill="#00A0DE"/>
<path id="Vector_22" d="M15.3631 15.3586C15.3631 15.1703 15.2179 15.0176 15.0389 15.0176H14.3711C14.192 15.0176 14.0469 15.1703 14.0469 15.3586V16.0612C14.0469 16.2495 14.192 16.4022 14.3711 16.4022H15.0389C15.2179 16.4022 15.3631 16.2495 15.3631 16.0612V15.3586Z" fill="#00A0DE"/>
<path id="Vector_23" d="M4.22825 15.3481C4.22825 15.1598 4.08308 15.002 3.90403 15.002H3.2314C3.04752 15.007 2.90234 15.1598 2.90234 15.3481V16.0557C2.90234 16.2441 3.04752 16.3968 3.2314 16.3968H3.90403C4.08308 16.3968 4.22825 16.2441 4.22825 16.0557V15.3481Z" fill="#00A0DE"/>
<path id="Vector_24" d="M12.8582 15.0117H5.40123C5.0383 15.0117 4.73828 15.3222 4.73828 15.704C4.73828 16.0858 5.03346 16.4015 5.40123 16.4015H12.8582C13.2212 16.4015 13.5212 16.0909 13.5212 15.704C13.5164 15.3222 13.2212 15.0117 12.8582 15.0117Z" fill="#00A0DE"/>
<path id="Vector_25" d="M12.8936 14.4474C12.7388 14.4474 12.5839 14.3863 12.4629 14.2591L4.92851 6.35336C4.68172 6.09883 4.68172 5.67631 4.91883 5.41669C5.15595 5.15707 5.54791 5.15198 5.7947 5.40651L13.3291 13.3071C13.5711 13.5617 13.5759 13.9842 13.3388 14.2438C13.2178 14.3813 13.0533 14.4474 12.8936 14.4474Z" fill="#00A0DE"/>
<path id="Vector_26" d="M5.36493 14.4472C5.20524 14.4472 5.04071 14.3811 4.92458 14.2487C4.68262 13.984 4.68746 13.5666 4.93425 13.312L12.4687 5.41139C12.7155 5.15686 13.1074 5.16195 13.3446 5.42157C13.5817 5.68119 13.5817 6.10371 13.3349 6.35825L5.79561 14.2538C5.67463 14.3811 5.51978 14.4472 5.36493 14.4472Z" fill="#00A0DE"/>
</g>
</g>
</svg>
