<svg width="72" height="25" viewBox="0 0 72 25" fill="none" xmlns="http://www.w3.org/2000/svg">
<g id="g10">
<g id="g12">
<g id="Clip path group">
<mask id="mask0_1964_31449" style="mask-type:luminance" maskUnits="userSpaceOnUse" x="0" y="0" width="72" height="25">
<g id="clipPath18">
<path id="path16" d="M0 0H72V25H0V0Z" fill="white"/>
</g>
</mask>
<g mask="url(#mask0_1964_31449)">
<g id="g14">
<g id="g20">
<path id="path22" fill-rule="evenodd" clip-rule="evenodd" d="M48.4307 10.3884H38.8722C37.2899 10.3884 36.5779 10.821 36.2876 11.7139L35.3906 14.5732H44.9491C46.5315 14.5732 47.2435 14.14 47.5336 13.2474L48.4307 10.3884Z" fill="#00A952"/>
</g>
<g id="g24">
<path id="path26" fill-rule="evenodd" clip-rule="evenodd" d="M15.6423 8.00519H13.8398C10.2261 8.00519 7.13958 16.9556 11.404 16.9474H14.1475C15.7303 16.9474 16.8999 17.5109 16.3811 19.0361L15.669 21.1328H12.7584L10.3928 21.1065C7.36801 21.0807 5.41618 19.6164 4.71272 17.3983C3.94758 14.9984 5.02907 9.99777 8.14186 6.79192C9.95317 4.92943 12.4594 3.81113 15.669 3.81113H21.6045L20.6723 6.43666C20.0746 8.13491 18.8431 8.00519 18.1484 8.00519H15.6423Z" fill="#00A952"/>
</g>
<g id="g28">
<path id="path30" fill-rule="evenodd" clip-rule="evenodd" d="M50.6485 3.82873H41.0911C39.5082 3.82873 38.7956 4.26245 38.5053 5.1552L37.6083 8.01447H47.1668C48.7492 8.01447 49.4617 7.58076 49.7519 6.68861L50.6485 3.82873ZM46.1026 16.9564H36.5447C34.9619 16.9564 34.2498 17.3899 33.9595 18.2822L33.0625 21.1416H42.6205C44.2034 21.1416 44.9154 20.7089 45.2058 19.8162L46.1026 16.9564Z" fill="#00A952"/>
</g>
<g id="g32">
<path id="path34" fill-rule="evenodd" clip-rule="evenodd" d="M26.6157 7.99697H28.9988C31.0301 7.99697 30.5637 10.4924 29.5352 12.9274C28.6292 15.0676 27.0291 16.965 25.1208 16.965H21.1551C19.5721 16.965 18.8429 17.3989 18.5348 18.291L17.5586 21.1416H20.4692L23.3095 21.1158C25.833 21.0983 27.891 20.9161 30.3092 18.7758C32.8592 16.5143 35.8311 10.6483 35.3207 7.26025C34.9251 4.60009 33.4743 3.82004 29.957 3.82004H23.5559L19.8273 14.5647H22.193C23.5998 14.5647 24.3119 14.5823 25.0597 12.5979L26.6157 7.99697Z" fill="#00A952"/>
</g>
<g id="g36">
<path id="path38" fill-rule="evenodd" clip-rule="evenodd" d="M46.832 21.1416H51.3428L53.2773 15.6913L55.2909 14.0188L56.8826 18.9497C57.3751 20.4744 57.8765 21.1416 58.9841 21.1416H62.4397L58.8784 11.4625L67.4341 3.81111H61.9037L56.7066 9.262C56.0999 9.89397 55.4847 10.5182 54.878 11.272H54.825L57.4103 3.81111H52.8994L46.832 21.1416Z" fill="#00A952"/>
</g>
</g>
</g>
</g>
</g>
</g>
</svg>
