<svg width="67" height="18" viewBox="0 0 67 18" fill="none" xmlns="http://www.w3.org/2000/svg">
<g id="Group 184">
<path id="Vector" fill-rule="evenodd" clip-rule="evenodd" d="M67.0006 0.917655C67.0006 0.917655 65.7549 0.765625 64.283 0.765625C62.8487 0.765625 61.6406 0.917655 61.6406 0.917655V5.66859H67.0006V0.917655Z" fill="#E4003E"/>
<path id="Vector_2" fill-rule="evenodd" clip-rule="evenodd" d="M67.0006 12.1309H61.6406V16.9578C61.6406 16.9578 63.1507 17.1098 64.3582 17.1098C65.5663 17.1098 67.0006 16.9198 67.0006 16.9198V12.1309Z" fill="#E4003E"/>
<path id="Vector_3" fill-rule="evenodd" clip-rule="evenodd" d="M58.4291 0.917969H51.8234L47.2184 6.73311H45.0669V0.917969H39.3672V16.9951H45.0669V10.9519H47.1429L51.7857 16.9951H58.8444L51.9367 8.44343L58.4291 0.917969Z" fill="#242265"/>
<path id="Vector_4" fill-rule="evenodd" clip-rule="evenodd" d="M18.005 0.917969H0V16.9951H5.77519V5.47886H12.2298V16.9951H18.005V0.917969Z" fill="#242265"/>
<path id="Vector_5" fill-rule="evenodd" clip-rule="evenodd" d="M20.7991 5.17492L19.9688 0.918084C19.9688 0.918084 25.3664 0.5 28.7259 0.5C32.0853 0.5 36.1241 0.918084 36.1241 0.918084C36.1241 0.918084 37.3698 4.18673 37.3698 8.78565C37.3698 13.3845 36.0864 16.9953 36.0864 16.9953C36.0864 16.9953 32.2363 17.4133 28.6881 17.4133C25.14 17.4133 19.9688 16.9953 19.9688 16.9953L20.7991 12.7384C20.7991 12.7384 24.4228 13.0045 27.518 13.0045C30.6132 13.0045 31.8211 12.7384 31.8211 12.7384C31.8211 12.7384 31.9721 11.9403 32.0476 11.028H24.6493V6.92329H32.0853C32.0098 5.85907 31.8588 5.21292 31.8588 5.21292C31.8588 5.21292 29.3298 4.94687 27.1783 4.94687C24.989 4.90886 20.7991 5.17492 20.7991 5.17492Z" fill="#242265"/>
</g>
</svg>
