<svg width="21" height="20" viewBox="0 0 21 20" fill="none" xmlns="http://www.w3.org/2000/svg">
<g id="icon">
<path id="Vector" d="M13.0002 8.33301L3.8335 17.5005" stroke="#202929" stroke-linecap="round" stroke-linejoin="round"/>
<path id="Vector_2" d="M15.4998 2.50098L12.9998 5.00098C12.5454 5.45535 12.3182 5.68254 12.1967 5.92762C11.9657 6.39391 11.9657 6.94137 12.1967 7.40767C12.3182 7.65274 12.5454 7.87994 12.9998 8.33433C13.4542 8.78866 13.6813 9.01591 13.9264 9.13733C14.3928 9.36841 14.9402 9.36841 15.4065 9.13733C15.6516 9.01591 15.8788 8.78866 16.3331 8.33433L18.8331 5.83431" stroke="#202929" stroke-linecap="round" stroke-linejoin="round"/>
<path id="Vector_3" d="M17.1665 4.16602L14.6665 6.66602" stroke="#202929" stroke-linecap="round" stroke-linejoin="round"/>
<path id="Vector_4" d="M7.87045 8.20492C6.73291 9.3425 5.17293 9.62683 3.75105 8.20492C2.32912 6.78299 1.58366 4.19321 2.7212 3.05567C3.85875 1.91813 6.44851 2.66359 7.87045 4.08552C9.29234 5.5074 9.00801 7.06737 7.87045 8.20492ZM7.87045 8.20492L17.1665 17.501" stroke="#202929" stroke-linecap="round"/>
</g>
</svg>
