<svg width="21" height="20" viewBox="0 0 21 20" fill="none" xmlns="http://www.w3.org/2000/svg">
<g id="icon">
<path id="Vector" d="M8.9005 1.66699C5.05836 2.44691 2.1665 5.84381 2.1665 9.91616C2.1665 14.565 5.93515 18.3337 10.584 18.3337C14.6563 18.3337 18.0533 15.4418 18.8332 11.5997" stroke="#202929" stroke-linecap="round"/>
<path id="Vector_2" d="M16.2813 14.9997C16.6013 14.9302 16.8976 14.8197 17.1667 14.6688M12.7396 14.4502C13.2359 14.6676 13.7147 14.8287 14.1709 14.9345M9.5455 12.4561C9.89008 12.698 10.2583 12.9881 10.6169 13.2384M3 11.5205C3.26862 11.3893 3.55859 11.2387 3.88542 11.1098M5.87587 10.833C6.34411 10.885 6.86918 11.0185 7.46453 11.269" stroke="#202929" stroke-linecap="round" stroke-linejoin="round"/>
<path id="Vector_3" d="M15.5 6.25C15.5 5.55964 14.9403 5 14.25 5C13.5597 5 13 5.55964 13 6.25C13 6.94036 13.5597 7.5 14.25 7.5C14.9403 7.5 15.5 6.94036 15.5 6.25Z" stroke="#202929"/>
<path id="Vector_4" d="M15.0732 11.3505C14.8524 11.5535 14.5571 11.667 14.2499 11.667C13.9428 11.667 13.6476 11.5535 13.4268 11.3505C11.4044 9.47999 8.69433 7.39045 10.0159 4.35683C10.7306 2.71657 12.4459 1.66699 14.2499 1.66699C16.0539 1.66699 17.7694 2.71657 18.4839 4.35683C19.8039 7.38663 17.1004 9.48641 15.0732 11.3505Z" stroke="#202929"/>
</g>
</svg>
