<svg width="21" height="20" viewBox="0 0 21 20" fill="none" xmlns="http://www.w3.org/2000/svg">
<g id="icon">
<path id="Vector" d="M9.53775 2.06518C10.0073 1.79972 10.2422 1.66699 10.5 1.66699C10.7578 1.66699 10.9927 1.79972 11.4623 2.06518L17.0378 5.21685C17.5073 5.48231 17.7422 5.61504 17.8711 5.83366C18 6.05228 18 6.31773 18 6.84865V13.152C18 13.6829 18 13.9484 17.8711 14.167C17.7422 14.3856 17.5073 14.5183 17.0378 14.7838L11.4623 17.9355C10.9927 18.2009 10.7578 18.3337 10.5 18.3337C10.2422 18.3337 10.0073 18.2009 9.53775 17.9355L3.96225 14.7838C3.49264 14.5183 3.25783 14.3856 3.12892 14.167C3 13.9484 3 13.6829 3 13.152V6.84865C3 6.31773 3 6.05228 3.12892 5.83366C3.25783 5.61504 3.49264 5.48231 3.96225 5.21685L9.53775 2.06518Z" stroke="#202929" stroke-linecap="round" stroke-linejoin="round"/>
<path id="Vector_2" d="M13.4168 3.55859L11.4452 4.62535C10.9837 4.87499 10.7531 4.99982 10.5002 4.99982C10.2472 4.99982 10.0166 4.87499 9.55516 4.62535L7.5835 3.55859" stroke="#202929" stroke-linecap="round" stroke-linejoin="round"/>
<path id="Vector_3" d="M10.4998 9.67917V18.333M10.4998 9.67917L17.5832 5.83301M10.4998 9.67917L3.4165 5.83301" stroke="#202929" stroke-linecap="round" stroke-linejoin="round"/>
<path id="Vector_4" d="M3 10L5.41203 11.2988C5.86028 11.5402 6.08442 11.6608 6.20887 11.8777C6.33333 12.0946 6.33333 12.3644 6.33333 12.9042V15.8333" stroke="#202929" stroke-linecap="round" stroke-linejoin="round"/>
<path id="Vector_5" d="M17.9998 10L15.5878 11.2988C15.1396 11.5402 14.9154 11.6608 14.7909 11.8777C14.6665 12.0946 14.6665 12.3644 14.6665 12.9042V15.8333" stroke="#202929" stroke-linecap="round" stroke-linejoin="round"/>
</g>
</svg>
