<svg width="21" height="20" viewBox="0 0 21 20" fill="none" xmlns="http://www.w3.org/2000/svg">
<g id="icon">
<path id="Vector" d="M3 9.15527V12.9108C3 15.2712 3 16.4514 3.73223 17.1848C4.46447 17.9181 5.64297 17.9181 8 17.9181H13C15.357 17.9181 16.5355 17.9181 17.2677 17.1848C18 16.4514 18 15.2712 18 12.9108V9.15527" stroke="#202929"/>
<path id="Vector_2" d="M6.3335 14.9785H9.6668" stroke="#202929" stroke-linecap="round"/>
<path id="Vector_3" d="M15.3296 2.0833L5.62469 2.1075C4.17622 2.03298 3.80484 3.14838 3.80484 3.69364C3.80484 4.1813 3.74196 4.89222 2.8542 6.2284C1.96644 7.56459 2.03315 7.96153 2.53376 8.88655C2.94924 9.6543 4.00601 9.95414 4.55702 10.0046C6.30719 10.0444 7.15871 8.53272 7.15871 7.47035C8.02693 10.1398 10.4961 10.1398 11.5963 9.83455C12.6986 9.52872 13.6429 8.43405 13.8657 7.47035C13.9956 8.66797 14.39 9.36689 15.5551 9.84705C16.7619 10.3445 17.7997 9.58422 18.3205 9.09689C18.8412 8.60955 19.1754 7.52759 18.2471 6.33844C17.607 5.51836 17.3401 4.74579 17.2526 3.94507C17.2017 3.48111 17.1571 2.98256 16.8308 2.6653C16.3538 2.20166 15.6695 2.06099 15.3296 2.0833Z" stroke="#202929" stroke-linecap="round" stroke-linejoin="round"/>
</g>
</svg>
