<svg width="58" height="58" viewBox="0 0 58 58" fill="none" xmlns="http://www.w3.org/2000/svg">
<g id="icon svg">
<g id="Group 205">
<path id="Vector 163" d="M27.9545 17.1283C27.0283 19.2767 22.0122 31.5044 22.0122 31.5044C21.4476 31.5925 19.6546 31.3401 17 29.6259L22.1031 17.1283C25.2183 8.64964 30.5523 7.62808 33.0487 8.09301C38.4093 9.40284 39.7237 14.7728 39.7108 17.294L39.6271 28.9969L39.5059 45.9585C39.7854 45.9585 41.3802 46.4068 41.4577 47.1034C41.4623 47.1442 41.4631 47.1877 41.4585 47.2324L41.4693 49.0279C41.1726 49.4086 39.9601 50.3164 36.9775 50.3164C33.9948 50.3164 32.7609 49.2739 32.58 48.826V47.1601C32.5792 47.1407 32.5793 47.1218 32.58 47.1034C32.6071 46.4459 33.9248 46.0559 34.6838 45.9585V36.8985L31.0496 37.8719L30.3443 37.6287V35.537L34.6838 34.382V28.9969V17.294C34.6717 16.2608 34.2296 14.0285 32.5572 13.3654C30.8849 12.7022 28.8806 14.98 27.9545 17.1283Z" fill="#DFD5BC"/>
</g>
</g>
</svg>
