<svg width="58" height="58" viewBox="0 0 58 58" fill="none" xmlns="http://www.w3.org/2000/svg">
<path d="M29.9016 36C23.0536 36 17.3535 39.5634 16.2092 44.2613C15.9798 45.203 16.7858 46 17.7551 46H29.5" stroke="#DFD5BC" stroke-width="1.5" stroke-linecap="round" stroke-linejoin="round"/>
<path d="M39.4842 25.0889C39.5359 25.9428 38.6456 26.5566 38.194 26.7567C37.5003 29.1268 36.4401 30.695 35.3494 31.6932C34.107 32.8303 32.8251 33.2276 32.0005 33.2276C30.5262 33.2276 29.3426 32.5937 28.4101 31.6932C26.8911 30.2263 26.0379 28.0519 25.6781 26.7567C25.3771 26.5121 24.7233 25.836 24.5169 25.0889C24.3104 24.3419 24.947 23.4879 25.2911 23.1543C25.0976 20.4859 24.5169 17.9508 26.3233 15.3491C27.7684 13.2677 29.549 12.6805 30.7103 12.5472C32.7747 12.387 34.5705 12.5779 36.323 14.0147C37.8975 15.3056 38.581 17.2168 38.8391 18.6179C39.0848 19.952 38.7531 22.1981 38.581 23.4211C38.8606 23.6213 39.4326 24.235 39.4842 25.0889Z" stroke="#DFD5BC" stroke-width="1.5" stroke-linecap="round"/>
<path fill-rule="evenodd" clip-rule="evenodd" d="M48.3966 45.5745C49.1643 44.3295 49.6001 42.8563 49.6001 41.3C49.6001 36.7143 45.8858 33 41.3 33C39.3495 33 37.5443 33.6848 36.1125 34.826C34.2035 36.3408 33 38.6855 33 41.3C33 42.8563 33.4357 44.3295 34.2035 45.5745C35.6352 47.9815 38.2705 49.6001 41.3 49.6001C43.3958 49.6001 45.3048 48.8323 46.7573 47.525C47.4006 46.9855 47.9608 46.3215 48.3966 45.5745ZM44.9275 39.6904C45.161 39.4744 45.1753 39.1101 44.9593 38.8766C44.7433 38.6431 44.379 38.6288 44.1455 38.8448L40.1323 42.5564L38.4697 40.8938C38.2448 40.6689 37.8802 40.6689 37.6553 40.8938C37.4304 41.1187 37.4304 41.4834 37.6553 41.7083L39.7095 43.7625C39.9282 43.9812 40.2807 43.9881 40.5078 43.7781L44.9275 39.6904Z" fill="#DFD5BC"/>
</svg>
