<svg width="190" height="36" viewBox="0 0 190 36" fill="none" xmlns="http://www.w3.org/2000/svg">
<g id="logo" clip-path="url(#clip0_2497_51019)">
<g id="Clip path group">
<mask id="mask0_2497_51019" style="mask-type:luminance" maskUnits="userSpaceOnUse" x="1" y="0" width="188" height="36">
<g id="clip0_4438_60747">
<path id="Vector" d="M188.837 0.5H1.16211V35.5H188.837V0.5Z" fill="white"/>
</g>
</mask>
<g mask="url(#mask0_2497_51019)">
<g id="Group">
<path id="Vector_2" d="M36.3037 17.5439C36.2535 15.6485 34.919 10.4289 34.0255 9.59352L34.0284 9.59064C33.4165 8.97557 31.6224 9.15724 31.6999 10.8623C32.0633 15.7315 27.6851 22.732 20.3045 22.8708C16.7809 22.8708 14.9997 21.9152 13.7673 20.9168C13.8693 20.7681 15.3374 18.3721 19.3867 17.5367C23.403 16.9273 30.3023 15.916 29.8397 6.88715C29.8397 6.88715 29.8397 4.43826 27.8057 3.00926C24.9357 1.28273 21.6376 0.418755 18.2777 0.506012C13.5849 0.627598 9.22094 2.56153 5.99037 5.95308C2.75836 9.34319 1.04612 13.7833 1.16822 18.4565C1.41672 27.9473 9.24967 35.5 18.7302 35.5C28.2107 35.5 36.6599 27.1921 36.3037 17.5439ZM3.29847 18.4007C3.19073 14.2953 4.69614 10.3931 7.53455 7.41355C10.3744 4.43396 14.2097 2.73462 18.3337 2.62734C20.5718 2.62734 27.7239 3.43123 27.7239 7.12889C27.767 10.489 27.3173 14.3841 19.1138 15.4311C16.646 15.7344 14.0776 17.1676 12.4156 19.1574C10.6976 21.2143 9.99804 23.8735 10.3069 26.5312C10.5712 28.8041 11.6069 30.8097 13.1309 32.3273C7.51731 30.1402 3.46653 24.7661 3.2999 18.4007H3.29847ZM21.3331 33.1398C16.916 33.6304 12.9213 30.5665 12.4228 26.2866C12.2848 25.108 12.4228 23.9407 12.7934 22.8493C14.2542 23.9364 16.4506 24.9906 20.329 24.9906H20.3304C22.3759 24.9392 24.3582 24.4228 26.2227 23.4544C29.9488 21.5204 32.5977 17.9916 33.4955 13.9921C33.8431 15.2351 34.1476 16.6098 34.1734 17.5968C34.3731 25.1923 28.8543 31.8681 21.3316 33.1384L21.3331 33.1398Z" fill="#276EF1"/>
<path id="Vector_3" d="M64.5697 25.7376V16.0329C64.5697 15.4534 64.7534 14.9634 65.1263 14.5609C65.4974 14.1565 65.9739 13.9562 66.5598 13.9562C67.1457 13.9562 67.5968 14.1565 67.9756 14.5629C68.3506 14.9673 68.5401 15.4573 68.5401 16.0329V25.7376C68.5401 26.3073 68.3506 26.7895 67.9756 27.1765C67.6046 27.5653 67.1281 27.7637 66.5598 27.7637C65.9915 27.7637 65.4935 27.5693 65.1263 27.1804C64.7553 26.7934 64.5697 26.3112 64.5697 25.7376ZM66.5598 12.8187C65.9017 12.8187 65.3412 12.5834 64.8822 12.1168C64.4233 11.6481 64.1968 11.0901 64.1968 10.4387C64.1968 9.78727 64.4233 9.22925 64.8783 8.77231C65.3373 8.31147 65.8978 8.08203 66.5598 8.08203C67.2218 8.08203 67.7686 8.31536 68.2413 8.7762C68.7139 9.23703 68.9501 9.79121 68.9501 10.4387C68.9501 11.0862 68.7139 11.6443 68.2413 12.1129C67.7686 12.5834 67.2081 12.8187 66.5598 12.8187Z" fill="#276EF1"/>
<path id="Vector_4" d="M70.1196 16.212C70.1196 15.5529 70.3168 15.0415 70.7093 14.6798C71.1 14.3142 71.5687 14.1354 72.1038 14.1354C72.553 14.1354 72.9552 14.2404 73.3185 14.4542C73.6758 14.6682 73.9356 14.9734 74.086 15.3779C74.912 14.3492 75.8768 13.832 76.9861 13.832C77.5388 13.8573 77.9898 14.0809 78.3394 14.5029C78.6929 14.9229 78.8725 15.409 78.8725 15.9592C78.8725 16.5387 78.6734 16.9665 78.273 17.2387C77.8785 17.507 77.2966 17.7637 76.5251 17.999C75.7577 18.2382 75.2343 18.452 74.9609 18.6445C74.3789 19.0354 74.0879 19.7237 74.0879 20.7173V25.7087C74.0879 26.4573 73.8809 27.0057 73.463 27.3576C73.047 27.7134 72.5197 27.8923 71.8772 27.8923C71.3597 27.8029 70.9379 27.5812 70.6078 27.2195C70.2836 26.8598 70.1196 26.3717 70.1196 25.7632V16.2101V16.212Z" fill="#276EF1"/>
<path id="Vector_5" d="M93.2411 26.2502L90.0325 18.243C89.8567 17.8074 89.7296 17.4924 89.6571 17.2999C89.5812 17.1093 89.515 16.8955 89.454 16.664C89.3993 16.4287 89.3701 16.2149 89.3701 16.0185C89.4037 15.4857 89.6103 15.0249 89.9875 14.6302C90.3663 14.2355 90.8247 14.0371 91.3564 14.0371C91.8148 14.0371 92.2042 14.146 92.5204 14.356C92.8401 14.566 93.0945 14.9568 93.2879 15.5362L95.3731 21.5174H95.4243L97.5625 15.5596C97.8981 14.5446 98.541 14.0371 99.4763 14.0371C100.015 14.0371 100.484 14.2393 100.873 14.638C101.263 15.0307 101.459 15.4935 101.459 16.0165C101.459 16.5396 101.256 17.2862 100.847 18.241L97.619 26.2482C97.1818 27.3099 96.4532 27.8427 95.4278 27.8427C94.4025 27.8427 93.6447 27.3099 93.2446 26.2482" fill="#276EF1"/>
<path id="Vector_6" d="M103.432 16.8008C103.964 15.8481 104.669 15.0761 105.544 14.4869C106.424 13.8939 107.373 13.575 108.398 13.5303C109.267 13.5303 109.985 13.6644 110.551 13.9347C111.119 14.2011 111.617 14.5842 112.035 15.0761C112.195 14.6678 112.445 14.3625 112.774 14.1525C113.105 13.9386 113.469 13.8317 113.861 13.8317C114.412 13.8317 114.88 14.0164 115.267 14.3819C115.652 14.7553 115.845 15.2589 115.845 15.9103V25.5586C115.845 26.0506 115.689 26.4978 115.375 26.9022C115.062 27.3047 114.623 27.5361 114.062 27.5867C113.501 27.5867 113.045 27.4467 112.705 27.1667C112.359 26.8886 112.137 26.6125 112.035 26.3442C111.238 27.3417 110.113 27.8414 108.651 27.8414C107.416 27.8414 106.336 27.505 105.412 26.8303C104.485 26.1575 103.772 25.2689 103.266 24.1742C102.765 23.0775 102.491 21.9186 102.44 20.6956C102.495 19.2217 102.827 17.9247 103.43 16.8008M109.135 17.355C108.303 17.355 107.655 17.6778 107.176 18.3194C106.7 18.9611 106.442 19.7544 106.409 20.6956C106.409 21.6133 106.657 22.395 107.15 23.0444C107.645 23.69 108.305 24.0147 109.137 24.0147C109.715 24.0147 110.211 23.8689 110.629 23.5792C111.045 23.2894 111.357 22.8908 111.568 22.3872C111.776 21.8817 111.879 21.3178 111.879 20.6956C111.879 19.7389 111.639 18.9456 111.158 18.3078C110.678 17.6739 110.004 17.355 109.135 17.355Z" fill="#276EF1"/>
<path id="Vector_7" d="M146.272 16.8008C146.805 15.8481 147.508 15.0761 148.387 14.4869C149.263 13.8939 150.217 13.575 151.236 13.5303C152.105 13.5303 152.824 13.6644 153.394 13.9347C153.962 14.2011 154.458 14.5842 154.874 15.0761C155.038 14.6678 155.285 14.3625 155.617 14.1486C155.944 13.9386 156.307 13.8317 156.704 13.8317C157.251 13.8317 157.72 14.0164 158.108 14.3819C158.497 14.7514 158.69 15.2589 158.69 15.9103V25.5586C158.69 26.0506 158.534 26.4978 158.218 26.9022C157.901 27.3047 157.468 27.5361 156.907 27.5867C156.347 27.5867 155.89 27.4467 155.55 27.1667C155.204 26.8886 154.982 26.6125 154.877 26.3442C154.083 27.3417 152.955 27.8414 151.496 27.8414C150.261 27.8414 149.182 27.505 148.254 26.8303C147.33 26.1556 146.614 25.2689 146.112 24.1742C145.609 23.0775 145.332 21.9186 145.282 20.6956C145.34 19.2217 145.674 17.9247 146.275 16.8008M151.978 17.355C151.152 17.355 150.498 17.6778 150.021 18.3194C149.54 18.9611 149.289 19.7544 149.253 20.6956C149.253 21.6133 149.498 22.3989 149.996 23.0444C150.49 23.69 151.152 24.0147 151.978 24.0147C152.56 24.0147 153.058 23.8689 153.474 23.5792C153.892 23.2894 154.203 22.8908 154.409 22.3872C154.619 21.8817 154.726 21.3178 154.726 20.6956C154.726 19.7389 154.485 18.9456 154.005 18.3078C153.524 17.6739 152.851 17.355 151.978 17.355Z" fill="#276EF1"/>
<path id="Vector_8" d="M62.984 25.8156V19.0743C62.984 17.9348 62.7106 16.9684 62.1618 16.175C61.6111 15.3818 60.8671 14.7946 59.9316 14.4075C58.9961 14.0265 57.9552 13.834 56.8089 13.834C55.0512 13.834 53.5885 14.2831 52.4128 15.1756C51.2353 16.0721 50.6455 17.3709 50.6455 19.0743V25.8156C50.6455 26.3912 50.835 26.8812 51.2197 27.2837C51.5985 27.6921 52.0711 27.8943 52.6374 27.8943C53.2038 27.8943 53.6999 27.6921 54.067 27.2896C54.4342 26.8871 54.6177 26.3971 54.6177 25.8176V19.6887C54.6177 18.9712 54.8364 18.4287 55.2778 18.0593C55.7153 17.6898 56.225 17.5071 56.8109 17.5071C57.3967 17.5071 57.9221 17.6898 58.3712 18.0593C58.8223 18.4325 59.045 18.975 59.045 19.6887V25.8176C59.045 26.3931 59.2266 26.8831 59.5879 27.2856C59.9492 27.694 60.414 27.8962 60.9744 27.8962C61.5681 27.8962 62.0486 27.694 62.4236 27.2915C62.7985 26.889 62.984 26.399 62.984 25.8196" fill="#276EF1"/>
<path id="Vector_9" d="M129.768 25.7697V19.0303C129.768 17.8889 129.494 16.9225 128.941 16.1291C128.389 15.3397 127.649 14.7486 126.713 14.3636C125.777 13.9806 124.734 13.7881 123.586 13.7881C121.835 13.7881 120.368 14.2372 119.191 15.1297C118.014 16.0281 117.429 17.325 117.429 19.0303V25.7697C117.429 26.3453 117.616 26.8353 117.997 27.2378C118.38 27.6441 118.851 27.8464 119.413 27.8464C120.003 27.8464 120.479 27.6441 120.847 27.2416C121.21 26.8431 121.395 26.3472 121.395 25.7678V19.6409C121.395 18.9214 121.614 18.3809 122.053 18.0134C122.491 17.6439 123.006 17.4591 123.586 17.4591C124.166 17.4591 124.702 17.6439 125.153 18.0134C125.598 18.3866 125.822 18.9272 125.822 19.6409V25.7678C125.822 26.3434 126.004 26.8334 126.367 27.2359C126.73 27.6422 127.193 27.8444 127.757 27.8444C128.322 27.8444 128.832 27.6422 129.209 27.2397C129.579 26.8411 129.769 26.3453 129.769 25.7659" fill="#276EF1"/>
<path id="Vector_10" d="M143.692 25.7697V19.0303C143.692 17.8889 143.413 16.9225 142.865 16.1291C142.313 15.3397 141.57 14.7486 140.635 14.3636C139.7 13.9806 138.658 13.7881 137.512 13.7881C135.759 13.7881 134.292 14.2372 133.116 15.1297C131.941 16.0281 131.354 17.325 131.354 19.0303V25.7697C131.354 26.3453 131.544 26.8353 131.923 27.2378C132.302 27.6441 132.775 27.8464 133.339 27.8464C133.903 27.8464 134.405 27.6441 134.769 27.2416C135.135 26.8431 135.321 26.3472 135.321 25.7678V19.6409C135.321 18.9214 135.54 18.3809 135.98 18.0134C136.417 17.6439 136.928 17.4591 137.515 17.4591C138.1 17.4591 138.627 17.6439 139.074 18.0134C139.526 18.3866 139.748 18.9272 139.748 19.6409V25.7678C139.748 26.3434 139.93 26.8334 140.291 27.2359C140.654 27.6422 141.117 27.8444 141.678 27.8444C142.271 27.8444 142.758 27.6422 143.131 27.2397C143.502 26.8411 143.692 26.3453 143.692 25.7659" fill="#276EF1"/>
<path id="Vector_11" d="M85.9247 20.4971C86.5106 20.4971 86.9656 20.6546 87.2898 20.9793C87.6179 21.3001 87.7838 21.6968 87.7838 22.1751C87.7838 22.6185 87.6179 23.0015 87.2898 23.3126C86.9597 23.6218 86.5008 23.7812 85.9247 23.7812H82.4504C81.849 23.7812 81.3705 23.6218 81.0209 23.3126C80.6733 23.0015 80.4819 22.6185 80.4585 22.1751C80.4838 21.7221 80.6772 21.3274 81.0404 20.9949C81.3998 20.6643 81.8704 20.4971 82.4504 20.4971H85.9247Z" fill="#276EF1"/>
<path id="Vector_12" d="M162.435 27.8439C161.848 27.8439 161.34 27.63 160.915 27.2061C160.489 26.7822 160.273 26.2786 160.273 25.6875C160.273 25.0964 160.489 24.5577 160.91 24.13C161.336 23.6983 161.842 23.4844 162.435 23.4844C163.029 23.4844 163.578 23.6983 164.008 24.1261C164.438 24.5539 164.652 25.075 164.652 25.6875C164.652 26.3 164.438 26.7919 164.004 27.21C163.574 27.6339 163.051 27.8439 162.435 27.8439Z" fill="#276EF1"/>
<path id="Vector_13" d="M166.239 15.9103C166.239 15.2511 166.438 14.7397 166.828 14.3781C167.224 14.0125 167.687 13.8317 168.227 13.8317C168.674 13.8317 169.074 13.9425 169.438 14.1506C169.794 14.3644 170.052 14.6697 170.209 15.0742C171.031 14.0456 171.995 13.5303 173.109 13.5303C173.657 13.5556 174.109 13.7772 174.462 14.2011C174.812 14.625 174.989 15.1092 174.989 15.6575C174.989 16.2369 174.791 16.6667 174.394 16.9369C173.993 17.2092 173.411 17.4619 172.644 17.7011C171.876 17.9364 171.355 18.1542 171.076 18.3467C170.494 18.7336 170.207 19.4258 170.207 20.4156V25.4069C170.207 26.1536 169.996 26.7019 169.582 27.0558C169.166 27.4097 168.635 27.5886 167.992 27.5886C167.474 27.5011 167.053 27.2794 166.729 26.9178C166.4 26.5581 166.234 26.0739 166.234 25.4614V15.9103H166.239Z" fill="#276EF1"/>
<path id="Vector_14" d="M188.921 15.6089V22.3483C188.921 23.4897 188.649 24.4561 188.096 25.2436C187.543 26.035 186.801 26.6242 185.866 27.0111C184.93 27.3961 183.889 27.5906 182.743 27.5906C180.989 27.5906 179.522 27.1414 178.345 26.2431C177.169 25.3506 176.583 24.0497 176.583 22.3483V15.6089C176.583 15.0294 176.773 14.5433 177.151 14.135C177.536 13.7325 178.007 13.5303 178.569 13.5303C179.157 13.5303 179.636 13.7325 180.001 14.1311C180.368 14.5336 180.55 15.0256 180.55 15.6089V21.7358C180.55 22.4553 180.768 22.9958 181.208 23.3653C181.645 23.7347 182.161 23.9194 182.743 23.9194C183.325 23.9194 183.856 23.7347 184.307 23.3614C184.754 22.9919 184.981 22.4514 184.981 21.7358V15.6089C184.981 15.0294 185.162 14.5433 185.519 14.135C185.882 13.7325 186.345 13.5303 186.91 13.5303C187.475 13.5303 187.984 13.7325 188.359 14.1311C188.734 14.5336 188.92 15.0256 188.92 15.6089" fill="#276EF1"/>
</g>
</g>
</g>
</g>
<defs>
<clipPath id="clip0_2497_51019">
<rect width="189" height="35" fill="white" transform="translate(0.5 0.5)"/>
</clipPath>
</defs>
</svg>
