<svg width="237" height="296" viewBox="0 0 237 296" fill="none" xmlns="http://www.w3.org/2000/svg">
<path d="M-112.002 188.59C-95.0563 205.476 -74.784 218.681 -52.4629 227.371C-30.1417 236.061 -6.25589 240.049 17.6887 239.083C41.6333 238.116 65.1173 232.217 86.66 221.756C108.203 211.295 127.337 196.5 142.856 178.304C158.376 160.107 169.943 138.904 176.83 116.031C183.717 93.1578 185.774 69.1109 182.871 45.4062C179.967 21.7016 172.167 -1.14656 159.962 -21.6977C147.757 -42.2488 131.411 -60.0572 111.956 -74" stroke="#8F7E65" stroke-opacity="0.35"/>
<path d="M85.0618 295C75.952 269.864 72.8141 242.966 75.8948 216.418C78.9755 189.87 88.1908 164.396 102.817 141.995C117.443 119.595 137.082 100.878 160.19 87.3163C183.299 73.7542 209.248 65.7156 236 63.832" stroke="#8F7E65" stroke-opacity="0.35"/>
</svg>
