<svg width="350" height="310" viewBox="0 0 350 310" fill="none" xmlns="http://www.w3.org/2000/svg">
<path d="M349.002 107.41C332.056 90.5235 311.784 77.3191 289.463 68.6288C267.142 59.9386 243.256 55.951 219.311 56.9174C195.367 57.8839 171.883 63.7835 150.34 74.2442C128.797 84.7049 109.663 99.4999 94.1438 117.696C78.6245 135.893 67.0567 157.096 60.1698 179.969C53.2828 202.842 51.2261 226.889 54.1293 250.594C57.0325 274.298 64.8327 297.147 77.0379 317.698C89.2432 338.249 105.589 356.057 125.044 370" stroke="#8F7E65" stroke-opacity="0.35"/>
<path d="M151.938 0.999927C161.048 26.1356 164.186 53.0338 161.105 79.5817C158.024 106.13 148.809 131.604 134.183 154.005C119.557 176.405 99.9183 195.122 76.8097 208.684C53.7011 222.246 27.7518 230.284 1 232.168" stroke="#8F7E65" stroke-opacity="0.35"/>
</svg>
