<svg width="41" height="28" fill="none" xmlns="http://www.w3.org/2000/svg"><rect x=".5" y=".5" width="40" height="27" rx="3.5" fill="#fff" stroke="#F3F3F3"/><path d="M24.255 20.283h-7.317V7.358h7.317v12.925z" fill="#FF5F00"/><path d="M17.407 13.82c0-2.622 1.249-4.957 3.194-6.462A8.419 8.419 0 0015.433 5.6c-4.619 0-8.363 3.68-8.363 8.22 0 4.54 3.744 8.22 8.362 8.22a8.42 8.42 0 005.169-1.758c-1.945-1.505-3.194-3.84-3.194-6.462z" fill="#EB001B"/><path d="M34.12 13.82c0 4.54-3.743 8.22-8.361 8.22a8.422 8.422 0 01-5.17-1.758c1.946-1.505 3.195-3.84 3.195-6.462s-1.249-4.957-3.194-6.462A8.422 8.422 0 0125.759 5.6c4.618 0 8.362 3.68 8.362 8.22z" fill="#F79E1B"/></svg>