<svg width="129" height="25" fill="none" xmlns="http://www.w3.org/2000/svg"><path d="M125.458 13.23c-.372.728-1.064 1.181-1.805 1.181-1.103 0-2.013-.972-2.08-2.209l-.005-.04c0-.036-.005-.067-.005-.103 0-.397.087-.788.256-1.135.368-.753 1.07-1.221 1.829-1.221.755 0 1.452.463 1.82 1.206l.034.061 1.64-.702-.034-.077c-.643-1.507-2.032-2.484-3.542-2.484-1.708 0-3.208 1.201-3.726 2.993a4.74 4.74 0 00-.179 1.472c.078 2.32 1.795 4.138 3.905 4.138 1.491 0 2.831-.911 3.499-2.382l.034-.077-1.617-.692-.024.071zm-34.062-2.056H87.67c.029-.086.063-.163.102-.239.367-.753 1.069-1.222 1.829-1.222.275 0 .546.061.798.178.46.27.818.733.997 1.283zm.358-2.677c-.068-.051-.14-.107-.218-.158-.014-.01-.034-.02-.048-.03a1.734 1.734 0 00-.13-.082l-.059-.036a2.43 2.43 0 00-.232-.117l-.082-.04c-.044-.021-.087-.036-.131-.057l-.082-.03-.02-.005a2.184 2.184 0 00-.193-.066c-.039-.016-.082-.026-.121-.036l-.116-.03c-.053-.01-.107-.026-.16-.031-.039-.005-.077-.015-.116-.02-.063-.01-.126-.016-.189-.026-.029-.005-.058-.005-.087-.005a3.69 3.69 0 00-.237-.01h-.015c-.101 0-.203.005-.31.015l-.052.005c-.088.01-.17.02-.257.036l-.063.01c-.082.015-.16.036-.242.056l-.053.015c-.082.026-.165.051-.247.082l-.039.015c-.087.03-.174.071-.275.117-.852.402-1.549 1.125-1.96 2.036l-.03.072a4.74 4.74 0 00-.377 1.848 4.818 4.818 0 00.165 1.222l.014.08c.049.158.107.326.184.51.015.03.024.056.039.086l.034.072c.077.168.17.33.266.483l.024.04c.097.148.203.291.32.433l.029.036c.038.04.072.087.11.122l.015.016a3.338 3.338 0 00.281.264c.044.036.082.072.126.107l.034.026c.077.06.155.117.242.173l.058.04.13.082.059.03.232.123c.024.01.053.025.082.035.044.02.087.036.13.056a.733.733 0 00.102.036c.063.025.13.046.194.066.043.01.082.026.12.036l.117.03c.053.01.106.026.16.036.038.005.077.015.116.02.063.01.126.015.189.026a.5.5 0 00.087.005 3.3 3.3 0 00.561-.005l.053-.005c.087-.01.17-.02.257-.036l.063-.01c.082-.015.16-.036.242-.056l.053-.015c.082-.026.164-.051.242-.077l.043-.015a4.53 4.53 0 00.257-.107l.02-.01c.846-.402 1.543-1.12 1.959-2.026l.034-.077-1.776-.773-.034.06c-.373.724-1.065 1.172-1.805 1.172-.276 0-.547-.062-.799-.179-.629-.371-.967-.809-1.079-1.41h5.614l.005-.071c.058-.667.14-2.947-1.428-4.18zm-8.692 3.557l-.034.067c-.629 1.231-1.708 1.965-2.874 1.965-1.877 0-3.407-1.894-3.407-4.22 0-2.327 1.53-4.22 3.407-4.22 1.38 0 2.613 1.017 3.145 2.596l.025.076 1.96-.876-.025-.07C84.393 4.957 82.385 3.4 80.15 3.4c-3.053 0-5.536 2.902-5.536 6.46 0 3.564 2.483 6.466 5.536 6.466 1.955 0 3.78-1.222 4.772-3.192h.004l.058-.128h-.004l.004-.01-1.92-.942zm13.762-1.766a2.033 2.033 0 011.311-.489c.784 0 1.51.468 1.893 1.227.174.346.266.738.266 1.14 0 .03-.005.061-.005.092l-.005.056a2.43 2.43 0 01-.75 1.65 2.042 2.042 0 01-1.311.488c-.79 0-1.51-.469-1.892-1.227l-.059-.122a2.51 2.51 0 01-.208-1.013c0-.03.005-.061.005-.097l.005-.046c.015-.295.082-.585.203-.855.13-.32.315-.585.547-.804zm5.236.524c-.542-1.827-1.984-3.003-3.668-3.003h-.044c-.004 0-.029 0-.067.005h-.02c-.014 0-1.22.01-1.984.845l.005-.637H94.11v12.696h2.173l-.005-5.085c.097.122.184.198.189.204l.01.005c.513.504 1.35.595 1.805.6 2.143-.04 3.881-1.863 3.963-4.154.005-.056.005-.112.005-.168 0-.442-.063-.885-.189-1.308zm5.713.051c-.17.071-.266.087-.305.092l-.348.005h-.155l-.16.005-1.442-.005V9.64l2.129-.005c.015 0 .097.01.208.061.218.118.378.352.378.555.005.31-.087.494-.305.611zm.513 2.795a.806.806 0 01-.562.692.643.643 0 01-.135.026c-.189.035-.407.05-.552.05h-1.664v-1.878h1.601c.068 0 .426.005.697.066l.02.005c.014.005.024.005.033.01.029.006.054.021.088.036l.004-.005.005.005.02.01a.16.16 0 01.058.036.802.802 0 01.387.61v.026c0 .036.005.143.005.143s0 .148-.005.168zm2.114-.32v-.021a1.93 1.93 0 00-.551-1.308l-.015-.016a4.143 4.143 0 00-.474-.402c.039-.056.077-.117.121-.183.368-.341.566-.8.566-1.283 0-.932-.89-1.889-1.911-2.051a7.62 7.62 0 00-.629-.031h-.092l-4.138.01v7.957h2.033l.997-.016h1.553c1.108-.08 2.081-.804 2.419-1.796.088-.255.131-.52.131-.79-.01-.015-.01-.04-.01-.07zm8.592 2.611a1.02 1.02 0 01-.033-.132c-.005-.02-.01-.036-.01-.056l-.015-.087c-.063-.438-.092-1.288-.101-1.924V8.084h-2.12v4.011s0 .077-.005.184v.03c-.019.31-.087.876-.304 1.227-.31.448-.804.718-1.322.718-.048 0-.091-.005-.14-.005a1.606 1.606 0 01-.774-.29 1.734 1.734 0 01-.649-.937l-.004-.015c-.034-.102-.068-.331-.097-.637v-.015c-.005-.066-.01-.117-.01-.153l-.005-.035c-.106-1.548 0-3.96.005-3.981l.005-.097h-2.061v.082c.004 1.349.009 3.685 0 4.128.014.504.082 1.242.304 1.909.121.305.262.575.421.815l.121.157c.049.056.092.107.136.153.256.28.561.494.91.646l.019.006c.169.081.648.27 1.365.27h.033c.097 0 .18-.006.252-.01.049 0 1.2-.01 1.955-.948.039.377.107.621.218.733l.024.026h1.95l-.068-.107z" fill="#453D36"/><path d="M23.894 7.895h1.64l.237-.005-1.955-.01.078.015zm42.763 8.048l1.432-5.014 1.433 5.014h1.974l-2.42-7.64-.048-.158h-1.877l-.049.157-2.415 7.641h1.97zM55.549 8.114h-2.221l-2.512 2.596V8.114h-1.863v7.824h1.863v-2.54l.503-.595 2.449 3.135h2.299l-3.48-4.632 2.962-3.192zm-18.98 4.862a45.8 45.8 0 00-.058.122c-.368.733-1.08 1.227-1.892 1.227a2.03 2.03 0 01-1.312-.489 2.441 2.441 0 01-.75-1.649c-.005-.046-.005-.097-.005-.142 0-.413.097-.8.267-1.136.367-.733 1.079-1.226 1.892-1.226.493 0 .948.183 1.311.488.232.22.421.489.552.794.111.265.184.55.203.856-.005.05 0 .096 0 .142 0 .367-.073.708-.208 1.013zm-1.984-5.065h-.005c0-.005 0 0 .005 0zm1.984.193l.005.744c-.01-.01-.015-.02-.02-.03-.706-.912-1.988-.922-1.988-.917-.04 0-.063-.005-.063-.005-1.723-.02-3.03 1.196-3.523 2.856a4.406 4.406 0 00-.174 1.405c.077 2.168 1.727 3.91 3.764 3.945.528-.01 1.268-.127 1.709-.575 0 0 .174-.153.3-.372l-.005.743h1.96V8.094h-1.965v.01z" fill="#00A0DE"/><path d="M61.53 13.022l-.059.122c-.368.728-1.074 1.222-1.887 1.222a2.04 2.04 0 01-1.307-.484 2.44 2.44 0 01-.75-1.644c-.005-.046-.005-.097-.005-.143 0-.412.097-.799.267-1.13.367-.727 1.074-1.221 1.887-1.221.493 0 .943.183 1.306.483.233.22.416.489.547.794.111.26.184.55.203.85 0 .046.005.097.005.143 0 .356-.077.703-.208 1.008zm0-4.856l.004.743a.09.09 0 01-.02-.026c-.701-.906-1.979-.916-1.979-.91-.038-.006-.063-.006-.063-.006-1.717-.02-3.02 1.191-3.508 2.846a4.37 4.37 0 00-.174 1.4c.077 2.163 1.718 3.889 3.75 3.93.523-.01 1.263-.128 1.704-.57 0 0 .174-.153.3-.372l-.005.738h1.95V8.165h-1.96zm-34.258 4.718c-.305.53-.832.917-1.466 1.06h-2.12V9.82l1.602-.015h.494c.053.01.11.02.164.035.295.072.571.204.808.377.45.367.75.901.79 1.502.004.04.009.086.009.132 0 .372-.102.728-.28 1.033zm2.38-1.15a4.011 4.011 0 00-1.625-3.075c-.953-.835-2.386-.799-2.386-.799l-.242.005h-1.713V5.406h4.573V3.441h-6.43v12.462h3.875c.068 0 .16-.005.261-.01a4.016 4.016 0 003.693-4.001c0-.056 0-.107-.005-.158zm17.762 3.936l-.014-.062c-.005-.02-.005-.04-.01-.056v-.01c-.005-.015-.005-.025-.005-.025-.058-.428-.092-1.237-.106-1.935V8.003h-1.96v3.93s0 .076-.01.193v.021c-.02.315-.092.9-.32 1.277-.314.454-.812.749-1.383.749-.049 0-.097-.005-.145-.005a1.566 1.566 0 01-.809-.306 1.819 1.819 0 01-.682-.982c0-.005-.005-.005-.005-.01-.048-.143-.082-.454-.101-.662v-.005a8.678 8.678 0 01-.015-.189c-.106-1.573.005-3.99.005-3.99l-.058-.01h-1.839c.005.747.014 3.634 0 4.123.014.458.073 1.211.295 1.883.107.265.237.54.411.794.034.051.073.102.112.148.053.056.097.107.135.158.233.254.523.473.881.626.01.005.015.005.024.01.145.071.625.27 1.36.265.097-.005.18-.005.247-.01 0 0 1.277.02 2.018-1.08.014.296.067.744.208.896h1.805c-.015-.056-.03-.107-.039-.158zm-2.607-9.78a1.477 1.477 0 01-1.128.611c-.513.02-.977-.25-1.244-.626l-.982.56a2.353 2.353 0 002.28 1.492 2.367 2.367 0 002.085-1.467l-1.011-.57zm39.798 15.612a.398.398 0 01-.295.112.315.315 0 01-.204-.06.195.195 0 01-.077-.164c0-.137.092-.208.271-.208h.421v.025a.394.394 0 01-.116.295zm.426-1.394c-.15-.153-.354-.23-.615-.23-.343 0-.624.143-.852.423l.276.346a.9.9 0 01.252-.214.52.52 0 01.266-.066c.116 0 .208.03.271.092.063.06.092.152.092.27v.091h-.489c-.227 0-.406.051-.537.163a.54.54 0 00-.198.438c0 .183.063.33.184.443.12.112.285.168.493.168a.757.757 0 00.595-.25v.199h.49v-1.222c0-.285-.078-.499-.228-.651zm-3.993 1.608a.98.98 0 00.74.316.91.91 0 00.5-.138.981.981 0 00.348-.376l-.373-.3c-.13.198-.29.294-.47.294a.48.48 0 01-.367-.157.578.578 0 01-.145-.408c0-.162.048-.295.145-.402a.474.474 0 01.368-.163c.184 0 .338.102.47.3l.372-.305c-.184-.336-.465-.509-.852-.509a.985.985 0 00-.74.31 1.05 1.05 0 00-.305.76c0 .305.101.56.31.778zm-2.197-.825a.302.302 0 01-.203-.07.244.244 0 01-.077-.184c0-.076.024-.133.077-.178.049-.046.116-.067.203-.067h.334v.5h-.334zm-.6-.778a.655.655 0 00-.217.519.73.73 0 00.106.387.66.66 0 00.305.25l-.552.712h.6l.484-.631h.208v.63h.528v-2.056h-.886a.819.819 0 00-.575.189zm-2.182 1.394a.46.46 0 01-.363-.157.567.567 0 01-.14-.398c0-.162.048-.3.14-.407a.472.472 0 01.363-.163c.145 0 .266.056.363.163a.582.582 0 01.145.402.561.561 0 01-.145.398.455.455 0 01-.363.162zm-.745.204c.208.214.455.32.74.316a.968.968 0 00.745-.316c.208-.214.315-.468.31-.764a1.012 1.012 0 00-.305-.758.98.98 0 00-.745-.31.97.97 0 00-.74.31c-.208.214-.31.468-.305.758-.01.296.092.55.3.764zm-2.555.265v-1.584h.697v1.584h.532v-2.057H72.23v2.057h.528zm-4.486-1.538a.422.422 0 01.295-.112.413.413 0 01.426.417h-.89a.583.583 0 01.169-.305zm1.239.392a.972.972 0 00-.257-.682.87.87 0 00-.663-.275.94.94 0 00-.725.31c-.204.215-.3.47-.296.764-.004.3.097.555.305.77a1 1 0 00.765.31c.285 0 .547-.102.784-.306l-.228-.382a.858.858 0 01-.547.21.59.59 0 01-.358-.108.527.527 0 01-.193-.3h1.37c.028-.107.043-.209.043-.31zm-4.888.158h.34a.32.32 0 01.212.071c.053.046.077.112.077.194 0 .168-.096.254-.29.254h-.339v-.519zm1.922-1.069h-.528v2.057h.528v-2.057zm-1.568 2.057a.9.9 0 00.585-.194c.155-.127.228-.305.228-.54a.671.671 0 00-.228-.534c-.155-.132-.348-.193-.585-.193h-.354v-.596h-.527v2.057h.88zm-2.681-.413h-.474v-.448h.474c.082 0 .15.02.198.062.049.04.073.091.073.162a.215.215 0 01-.073.168.332.332 0 01-.198.056zm-.102-1.221c.16 0 .237.06.237.193 0 .127-.077.194-.237.194h-.373v-.382h.373v-.005zm.562.534a.504.504 0 00.16-.377.52.52 0 00-.194-.422.744.744 0 00-.494-.158h-.91v2.057h1.04a.73.73 0 00.504-.178.57.57 0 00.198-.453.503.503 0 00-.304-.469zm-3.509.631a.46.46 0 01-.363-.157.59.59 0 01-.14-.398c0-.162.048-.3.14-.407a.472.472 0 01.363-.163c.145 0 .266.056.363.163a.582.582 0 01.145.402.561.561 0 01-.145.398.47.47 0 01-.363.162zm-.745.204c.208.214.455.32.74.316a.967.967 0 00.745-.316c.209-.214.315-.468.31-.764a1.012 1.012 0 00-.305-.758.98.98 0 00-.745-.31.98.98 0 00-.745.31c-.208.214-.31.468-.305.758-.005.296.097.55.305.764zm-2.734.005c.208.214.455.32.745.316a.91.91 0 00.498-.138.981.981 0 00.349-.376l-.373-.3c-.13.198-.29.294-.47.294a.48.48 0 01-.367-.157.578.578 0 01-.145-.408c0-.162.048-.295.145-.402a.474.474 0 01.368-.163c.184 0 .339.102.47.3l.372-.305c-.184-.336-.465-.509-.852-.509-.29 0-.542.102-.745.31a1.05 1.05 0 00-.305.76c0 .305.102.56.31.778zm-1.95-.214a.398.398 0 01-.296.112.325.325 0 01-.203-.06.195.195 0 01-.077-.164c0-.137.092-.208.27-.208h.417v.025a.374.374 0 01-.111.295zm.425-1.394c-.15-.153-.353-.23-.614-.23-.344 0-.63.143-.852.423l.276.346a.898.898 0 01.252-.214.52.52 0 01.266-.066c.116 0 .208.03.27.092.064.06.093.152.093.27v.091h-.489c-.227 0-.406.051-.542.163a.54.54 0 00-.198.438c0 .183.063.33.184.443.12.112.285.168.493.168a.757.757 0 00.595-.25v.199h.49v-1.222c0-.285-.074-.499-.224-.651zm-3.082.661a.816.816 0 01-.315.056c-.256 0-.382-.147-.382-.438v-.463h-.527v.51c0 .28.072.503.213.656.14.158.338.234.59.234.18 0 .32-.02.421-.066v.723h.532v-2.057h-.532v.845zm-4.815.122a.302.302 0 01-.203-.07.244.244 0 01-.078-.184c0-.076.025-.133.078-.178.048-.046.116-.067.203-.067h.334v.5h-.334zm-.6-.778a.655.655 0 00-.218.519c0 .147.04.275.107.387a.66.66 0 00.305.25l-.552.712h.6l.484-.631h.208v.63h.528v-2.056h-.886a.82.82 0 00-.576.189zm-2.182.778a.302.302 0 01-.203-.07.244.244 0 01-.078-.184c0-.076.024-.133.078-.178.048-.046.116-.067.203-.067h.334v.5h-.334zm-.6-.778a.655.655 0 00-.218.519.69.69 0 00.106.387.66.66 0 00.305.25l-.551.712h.6l.483-.631h.209v.63h.527v-2.056h-.886a.819.819 0 00-.575.189zm-2.575 1.863v-.825h.721v.825h.528v-2.057h-.528v.753h-.72v-.753h-.528v2.057h.527zm-2.942-.932v-1.12h-.527v2.108h.174l1.089-1.166v1.115h.532v-2.103h-.174l-1.094 1.166zm-2.947-.53l.005-.122h.561v1.11h-.745c.106-.224.17-.555.18-.987zm1.099-.595h-1.563l-.015.51c-.01.3-.034.534-.068.702a.705.705 0 01-.174.371h-.208v1.06h.508v-.586h1.336v.585h.508v-1.059H35.6V19.92zm-3.983.52a.422.422 0 01.295-.113.413.413 0 01.426.417h-.89a.524.524 0 01.169-.305zm1.234.391a.955.955 0 00-.261-.682.87.87 0 00-.663-.275.94.94 0 00-.726.31c-.203.215-.3.47-.295.764-.005.3.097.555.305.77a1 1 0 00.764.31c.286 0 .547-.102.784-.306l-.223-.382a.859.859 0 01-.546.21.59.59 0 01-.358-.108.527.527 0 01-.194-.3h1.37a1.03 1.03 0 00.043-.31zm-4.012.158h.34c.086 0 .154.026.207.071a.244.244 0 01.078.194c0 .081-.024.148-.078.188a.336.336 0 01-.213.066h-.338v-.519h.004zm.359.988a.9.9 0 00.585-.194c.155-.132.227-.31.227-.54a.671.671 0 00-.227-.534.872.872 0 00-.585-.193h-.359v-.596h-1.001v.473h.474v1.584h.886zm-2.85-.616a.467.467 0 01-.354.152.485.485 0 01-.358-.152.525.525 0 01-.14-.377c0-.148.048-.27.14-.372a.477.477 0 01.358-.152c.14 0 .261.05.353.152a.517.517 0 01.145.372.529.529 0 01-.145.377zm.425-1.115a.83.83 0 00-.653-.295.78.78 0 00-.687.35 1.8 1.8 0 01.043-.366.646.646 0 01.13-.25.576.576 0 01.252-.167c.107-.04.247-.071.421-.092.296-.03.49-.066.586-.102v-.509c-.106.041-.305.077-.59.117a2.51 2.51 0 00-.663.168.978.978 0 00-.407.316c-.096.133-.164.28-.203.448a2.797 2.797 0 00-.058.621v.31c0 .367.097.668.29.892a.957.957 0 00.765.335 1.006 1.006 0 001.04-1.038c0-.29-.087-.54-.266-.738zm-3.813 1.262a.467.467 0 01-.363-.157.566.566 0 01-.14-.398c0-.162.048-.3.14-.407a.472.472 0 01.363-.163c.145 0 .266.056.363.163a.583.583 0 01.145.402.561.561 0 01-.145.398.47.47 0 01-.363.162zm-.745.204c.208.214.455.32.74.316a.967.967 0 00.745-.316c.213-.214.315-.468.31-.764a1.012 1.012 0 00-.305-.758.98.98 0 00-.745-.31.97.97 0 00-.74.31c-.208.214-.31.468-.305.758-.01.296.092.55.3.764z" fill="#00A0DE"/><g fill="#00A0DE"><path d="M14.69 21.976H3.565c-.363 0-.663-.31-.663-.697 0-.387.296-.698.663-.698H14.69c.368 0 .663.31.663.698 0 .386-.295.697-.663.697zm.672-17.598a.338.338 0 01-.33.346h-.672a.338.338 0 01-.329-.346V3.67c0-.188.145-.34.33-.34h.672c.179 0 .329.152.329.34v.708zm-11.139.005a.333.333 0 01-.324.34h-.672a.333.333 0 01-.325-.34v-.708c0-.188.146-.341.325-.341h.667c.18 0 .325.153.325.341v.708h.004zm-.658 10.099c-.367 0-.663-.31-.663-.697v-7.84c0-.382.296-.692.658-.692.363 0 .663.31.663.692v7.845c0 .382-.295.692-.658.692zm11.133 0c-.363 0-.663-.31-.663-.697v-7.84c0-.382.295-.692.663-.692.363 0 .658.31.658.692v7.845a.67.67 0 01-.658.692zm-1.84-9.758H5.401c-.363 0-.663-.31-.663-.693 0-.381.295-.697.663-.697h7.457c.363 0 .663.31.663.697-.005.382-.3.693-.663.693zm2.505 10.635a.333.333 0 00-.324-.341h-.668a.333.333 0 00-.324.34v.703c0 .189.145.341.324.341h.668a.333.333 0 00.324-.34v-.703zm-11.135-.011c0-.188-.145-.346-.324-.346h-.673a.342.342 0 00-.329.346v.708c0 .188.146.34.33.34h.672a.333.333 0 00.324-.34v-.708zm8.63-.336H5.401c-.363 0-.663.31-.663.692 0 .382.295.697.663.697h7.457c.363 0 .663-.31.663-.697-.005-.382-.3-.692-.663-.692zm.036-.565a.59.59 0 01-.431-.188L4.929 6.353a.695.695 0 01-.01-.936.594.594 0 01.876-.01l7.534 7.9a.7.7 0 01.01.937.592.592 0 01-.445.203z"/><path d="M5.365 14.447a.587.587 0 01-.44-.198.69.69 0 01.01-.937l7.534-7.9a.594.594 0 01.876.01.695.695 0 01-.01.936l-7.54 7.896a.595.595 0 01-.43.193z"/></g></svg>