<svg width="67" height="18" fill="none" xmlns="http://www.w3.org/2000/svg"><g fill-rule="evenodd" clip-rule="evenodd"><path d="M67 .918S65.756.766 64.284.766c-1.434 0-2.642.152-2.642.152v4.75H67V.919zm0 11.212h-5.36v4.828s1.51.152 2.718.152 2.643-.19 2.643-.19v-4.79z" fill="#E4003E"/><path d="M58.43.918h-6.607l-4.605 5.815h-2.151V.918h-5.7v16.077h5.7v-6.043h2.076l4.643 6.043h7.058l-6.907-8.552L58.429.918zm-40.425 0H0v16.077h5.775V5.48h6.455v11.516h5.775V.918zM20.8 5.175L19.968.918S25.366.5 28.726.5c3.36 0 7.398.418 7.398.418s1.246 3.269 1.246 7.868c0 4.598-1.284 8.21-1.284 8.21s-3.85.417-7.398.417c-3.548 0-8.72-.418-8.72-.418l.831-4.257s3.624.267 6.719.267 4.303-.267 4.303-.267.151-.798.227-1.71h-7.399V6.923h7.436c-.075-1.064-.226-1.71-.226-1.71s-2.53-.266-4.68-.266c-2.19-.038-6.38.228-6.38.228z" fill="#242265"/></g></svg>